<svg width="702" height="292" viewBox="0 0 702 292" fill="none" xmlns="http://www.w3.org/2000/svg">
<path d="M366.493 76.6847L404 83.2252V245.649L366.493 262V76.6847Z" fill="#7EA11F"/>
<rect opacity="0.8" x="276.099" y="28.5405" width="56.3767" height="69.036" rx="13" stroke="#889452" stroke-width="4"/>
<path opacity="0.8" d="M258.718 35C258.718 27.8203 264.538 22 271.718 22H302.094C309.274 22 315.094 27.8203 315.094 35V84.5766C315.094 91.7563 309.274 97.5766 302.094 97.5766H271.718C264.538 97.5766 258.718 91.7563 258.718 84.5766V35Z" stroke="#9FB261" stroke-width="4"/>
<path d="M200 83.2252L366.493 76.6847V262L200 239.108V83.2252Z" fill="#98C029"/>
<path d="M286.225 152.865C286.225 154.657 285.948 156.267 285.393 157.697C284.838 159.105 284.092 160.299 283.153 161.281C282.236 162.241 281.158 162.977 279.921 163.489C278.705 164.001 277.414 164.257 276.049 164.257C274.62 164.257 273.286 164.001 272.049 163.489C270.812 162.977 269.734 162.241 268.817 161.281C267.921 160.299 267.217 159.105 266.705 157.697C266.193 156.267 265.937 154.657 265.937 152.865C265.937 151.03 266.193 149.398 266.705 147.969C267.217 146.539 267.921 145.334 268.817 144.353C269.734 143.371 270.812 142.625 272.049 142.113C273.286 141.601 274.62 141.345 276.049 141.345C277.5 141.345 278.844 141.601 280.081 142.113C281.318 142.625 282.396 143.371 283.313 144.353C284.23 145.334 284.945 146.539 285.457 147.969C285.969 149.398 286.225 151.03 286.225 152.865ZM281.809 152.865C281.809 151.457 281.66 150.262 281.361 149.281C281.062 148.299 280.646 147.499 280.113 146.881C279.601 146.241 278.993 145.782 278.289 145.505C277.585 145.227 276.838 145.089 276.049 145.089C275.26 145.089 274.524 145.227 273.841 145.505C273.158 145.782 272.561 146.241 272.049 146.881C271.537 147.499 271.132 148.299 270.833 149.281C270.534 150.262 270.385 151.457 270.385 152.865C270.385 154.251 270.534 155.435 270.833 156.417C271.132 157.377 271.537 158.166 272.049 158.785C272.561 159.382 273.158 159.819 273.841 160.097C274.524 160.353 275.26 160.481 276.049 160.481C276.838 160.481 277.585 160.353 278.289 160.097C278.993 159.819 279.601 159.382 280.113 158.785C280.646 158.166 281.062 157.377 281.361 156.417C281.66 155.435 281.809 154.251 281.809 152.865ZM302.449 142.753C302.662 142.497 302.908 142.273 303.185 142.081C303.484 141.889 303.878 141.793 304.369 141.793H308.497L274.961 186.721C274.769 186.998 274.524 187.222 274.225 187.393C273.926 187.563 273.564 187.649 273.137 187.649H268.945L302.449 142.753ZM311.601 176.833C311.601 178.625 311.324 180.225 310.769 181.633C310.214 183.041 309.468 184.235 308.529 185.217C307.612 186.177 306.534 186.913 305.297 187.425C304.081 187.937 302.79 188.193 301.425 188.193C299.974 188.193 298.63 187.937 297.393 187.425C296.177 186.913 295.11 186.177 294.193 185.217C293.297 184.235 292.593 183.041 292.081 181.633C291.569 180.225 291.313 178.625 291.313 176.833C291.313 174.998 291.569 173.366 292.081 171.937C292.593 170.486 293.297 169.27 294.193 168.289C295.11 167.307 296.177 166.561 297.393 166.049C298.63 165.537 299.974 165.281 301.425 165.281C302.854 165.281 304.188 165.537 305.425 166.049C306.684 166.561 307.761 167.307 308.657 168.289C309.574 169.27 310.289 170.486 310.801 171.937C311.334 173.366 311.601 174.998 311.601 176.833ZM307.185 176.833C307.185 175.425 307.036 174.23 306.737 173.249C306.438 172.246 306.022 171.435 305.489 170.817C304.977 170.198 304.369 169.75 303.665 169.473C302.961 169.195 302.214 169.057 301.425 169.057C300.636 169.057 299.889 169.195 299.185 169.473C298.502 169.75 297.905 170.198 297.393 170.817C296.881 171.435 296.476 172.246 296.177 173.249C295.9 174.23 295.761 175.425 295.761 176.833C295.761 178.219 295.9 179.393 296.177 180.353C296.476 181.313 296.881 182.102 297.393 182.721C297.905 183.318 298.502 183.755 299.185 184.033C299.889 184.289 300.636 184.417 301.425 184.417C302.214 184.417 302.961 184.289 303.665 184.033C304.369 183.755 304.977 183.318 305.489 182.721C306.022 182.102 306.438 181.313 306.737 180.353C307.036 179.393 307.185 178.219 307.185 176.833Z" fill="white"/>
<path d="M656.22 68.3964L702 76.2883V272.27L656.22 292V68.3964Z" fill="#DA4201"/>
<path opacity="0.8" d="M545.444 25.069C545.444 17.8893 551.264 12.069 558.444 12.069H602.139C609.319 12.069 615.139 17.8893 615.139 25.069V80.7134C615.139 87.6806 609.646 93.4091 602.685 93.7019L558.99 95.5395C551.603 95.8502 545.444 89.945 545.444 82.551V25.069Z" stroke="#AC572D" stroke-width="4"/>
<path opacity="0.8" d="M524.229 15C524.229 7.82029 530.049 2 537.229 2H580.924C588.103 2 593.924 7.8203 593.924 15V81.018C593.924 88.1977 588.103 94.018 580.924 94.018H537.229C530.049 94.018 524.229 88.1977 524.229 81.018V15Z" stroke="#B76943" stroke-width="4"/>
<path d="M453 76.2883L656.22 68.3964V292L453 264.378V76.2883Z" fill="#E9591A"/>
<path d="M563.193 154.316C563.193 156.5 562.855 158.463 562.179 160.205C561.503 161.921 560.593 163.377 559.449 164.573C558.331 165.743 557.018 166.64 555.51 167.264C554.028 167.888 552.455 168.2 550.791 168.2C549.049 168.2 547.424 167.888 545.916 167.264C544.408 166.64 543.095 165.743 541.977 164.573C540.885 163.377 540.027 161.921 539.403 160.205C538.779 158.463 538.467 156.5 538.467 154.316C538.467 152.08 538.779 150.091 539.403 148.349C540.027 146.607 540.885 145.138 541.977 143.942C543.095 142.746 544.408 141.836 545.916 141.212C547.424 140.588 549.049 140.276 550.791 140.276C552.559 140.276 554.197 140.588 555.705 141.212C557.213 141.836 558.526 142.746 559.644 143.942C560.762 145.138 561.633 146.607 562.257 148.349C562.881 150.091 563.193 152.08 563.193 154.316ZM557.811 154.316C557.811 152.6 557.629 151.144 557.265 149.948C556.901 148.752 556.394 147.777 555.744 147.023C555.12 146.243 554.379 145.684 553.521 145.346C552.663 145.008 551.753 144.839 550.791 144.839C549.829 144.839 548.932 145.008 548.1 145.346C547.268 145.684 546.54 146.243 545.916 147.023C545.292 147.777 544.798 148.752 544.434 149.948C544.07 151.144 543.888 152.6 543.888 154.316C543.888 156.006 544.07 157.449 544.434 158.645C544.798 159.815 545.292 160.777 545.916 161.531C546.54 162.259 547.268 162.792 548.1 163.13C548.932 163.442 549.829 163.598 550.791 163.598C551.753 163.598 552.663 163.442 553.521 163.13C554.379 162.792 555.12 162.259 555.744 161.531C556.394 160.777 556.901 159.815 557.265 158.645C557.629 157.449 557.811 156.006 557.811 154.316ZM582.966 141.992C583.226 141.68 583.525 141.407 583.863 141.173C584.227 140.939 584.708 140.822 585.306 140.822H590.337L549.465 195.578C549.231 195.916 548.932 196.189 548.568 196.397C548.204 196.605 547.762 196.709 547.242 196.709H542.133L582.966 141.992ZM594.12 183.527C594.12 185.711 593.782 187.661 593.106 189.377C592.43 191.093 591.52 192.549 590.376 193.745C589.258 194.915 587.945 195.812 586.437 196.436C584.955 197.06 583.382 197.372 581.718 197.372C579.95 197.372 578.312 197.06 576.804 196.436C575.322 195.812 574.022 194.915 572.904 193.745C571.812 192.549 570.954 191.093 570.33 189.377C569.706 187.661 569.394 185.711 569.394 183.527C569.394 181.291 569.706 179.302 570.33 177.56C570.954 175.792 571.812 174.31 572.904 173.114C574.022 171.918 575.322 171.008 576.804 170.384C578.312 169.76 579.95 169.448 581.718 169.448C583.46 169.448 585.085 169.76 586.593 170.384C588.127 171.008 589.44 171.918 590.532 173.114C591.65 174.31 592.521 175.792 593.145 177.56C593.795 179.302 594.12 181.291 594.12 183.527ZM588.738 183.527C588.738 181.811 588.556 180.355 588.192 179.159C587.828 177.937 587.321 176.949 586.671 176.195C586.047 175.441 585.306 174.895 584.448 174.557C583.59 174.219 582.68 174.05 581.718 174.05C580.756 174.05 579.846 174.219 578.988 174.557C578.156 174.895 577.428 175.441 576.804 176.195C576.18 176.949 575.686 177.937 575.322 179.159C574.984 180.355 574.815 181.811 574.815 183.527C574.815 185.217 574.984 186.647 575.322 187.817C575.686 188.987 576.18 189.949 576.804 190.703C577.428 191.431 578.156 191.964 578.988 192.302C579.846 192.614 580.756 192.77 581.718 192.77C582.68 192.77 583.59 192.614 584.448 192.302C585.306 191.964 586.047 191.431 586.671 190.703C587.321 189.949 587.828 188.987 588.192 187.817C588.556 186.647 588.738 185.217 588.738 183.527Z" fill="white"/>
<path d="M134.664 92.5045L165 97.6396V225.162L134.664 238V92.5045Z" fill="#01729C"/>
<rect opacity="0.8" x="62.3429" y="54.3429" width="45.9714" height="54.6286" rx="13" stroke="#477180" stroke-width="4"/>
<path opacity="0.8" d="M47.8743 63C47.8743 55.8203 53.6946 50 60.8743 50H79.7084C86.8881 50 92.7084 55.8203 92.7084 63V95.4775C92.7084 102.657 86.8881 108.477 79.7083 108.477H60.8743C53.6946 108.477 47.8743 102.657 47.8743 95.4775V63Z" stroke="#4D7C8C" stroke-width="4"/>
<path d="M0 97.6396L134.664 92.5045V238L0 220.027V97.6396Z" fill="#1485AF"/>
<path d="M59.7566 149.169C59.7566 150.513 59.5486 151.721 59.1326 152.793C58.7166 153.849 58.1566 154.745 57.4526 155.481C56.7646 156.201 55.9566 156.753 55.0286 157.137C54.1166 157.521 53.1486 157.713 52.1246 157.713C51.0526 157.713 50.0526 157.521 49.1246 157.137C48.1966 156.753 47.3886 156.201 46.7006 155.481C46.0286 154.745 45.5006 153.849 45.1166 152.793C44.7326 151.721 44.5406 150.513 44.5406 149.169C44.5406 147.793 44.7326 146.569 45.1166 145.497C45.5006 144.425 46.0286 143.521 46.7006 142.785C47.3886 142.049 48.1966 141.489 49.1246 141.105C50.0526 140.721 51.0526 140.529 52.1246 140.529C53.2126 140.529 54.2206 140.721 55.1486 141.105C56.0766 141.489 56.8846 142.049 57.5726 142.785C58.2606 143.521 58.7966 144.425 59.1806 145.497C59.5646 146.569 59.7566 147.793 59.7566 149.169ZM56.4446 149.169C56.4446 148.113 56.3326 147.217 56.1086 146.481C55.8846 145.745 55.5726 145.145 55.1726 144.681C54.7886 144.201 54.3326 143.857 53.8046 143.649C53.2766 143.441 52.7166 143.337 52.1246 143.337C51.5326 143.337 50.9806 143.441 50.4686 143.649C49.9566 143.857 49.5086 144.201 49.1246 144.681C48.7406 145.145 48.4366 145.745 48.2126 146.481C47.9886 147.217 47.8766 148.113 47.8766 149.169C47.8766 150.209 47.9886 151.097 48.2126 151.833C48.4366 152.553 48.7406 153.145 49.1246 153.609C49.5086 154.057 49.9566 154.385 50.4686 154.593C50.9806 154.785 51.5326 154.881 52.1246 154.881C52.7166 154.881 53.2766 154.785 53.8046 154.593C54.3326 154.385 54.7886 154.057 55.1726 153.609C55.5726 153.145 55.8846 152.553 56.1086 151.833C56.3326 151.097 56.4446 150.209 56.4446 149.169ZM71.9246 141.585C72.0846 141.393 72.2686 141.225 72.4766 141.081C72.7006 140.937 72.9966 140.865 73.3646 140.865H76.4606L51.3086 174.561C51.1646 174.769 50.9806 174.937 50.7566 175.065C50.5326 175.193 50.2606 175.257 49.9406 175.257H46.7966L71.9246 141.585ZM78.7886 167.145C78.7886 168.489 78.5806 169.689 78.1646 170.745C77.7486 171.801 77.1886 172.697 76.4846 173.433C75.7966 174.153 74.9886 174.705 74.0606 175.089C73.1486 175.473 72.1806 175.665 71.1566 175.665C70.0686 175.665 69.0606 175.473 68.1326 175.089C67.2206 174.705 66.4206 174.153 65.7326 173.433C65.0606 172.697 64.5326 171.801 64.1486 170.745C63.7646 169.689 63.5726 168.489 63.5726 167.145C63.5726 165.769 63.7646 164.545 64.1486 163.473C64.5326 162.385 65.0606 161.473 65.7326 160.737C66.4206 160.001 67.2206 159.441 68.1326 159.057C69.0606 158.673 70.0686 158.481 71.1566 158.481C72.2286 158.481 73.2286 158.673 74.1566 159.057C75.1006 159.441 75.9086 160.001 76.5806 160.737C77.2686 161.473 77.8046 162.385 78.1886 163.473C78.5886 164.545 78.7886 165.769 78.7886 167.145ZM75.4766 167.145C75.4766 166.089 75.3646 165.193 75.1406 164.457C74.9166 163.705 74.6046 163.097 74.2046 162.633C73.8206 162.169 73.3646 161.833 72.8366 161.625C72.3086 161.417 71.7486 161.313 71.1566 161.313C70.5646 161.313 70.0046 161.417 69.4766 161.625C68.9646 161.833 68.5166 162.169 68.1326 162.633C67.7486 163.097 67.4446 163.705 67.2206 164.457C67.0126 165.193 66.9086 166.089 66.9086 167.145C66.9086 168.185 67.0126 169.065 67.2206 169.785C67.4446 170.505 67.7486 171.097 68.1326 171.561C68.5166 172.009 68.9646 172.337 69.4766 172.545C70.0046 172.737 70.5646 172.833 71.1566 172.833C71.7486 172.833 72.3086 172.737 72.8366 172.545C73.3646 172.337 73.8206 172.009 74.2046 171.561C74.6046 171.097 74.9166 170.505 75.1406 169.785C75.3646 169.065 75.4766 168.185 75.4766 167.145Z" fill="white"/>
</svg>
