<svg width="102" height="112" viewBox="0 0 102 112" fill="none" xmlns="http://www.w3.org/2000/svg">
    <path d="M43.5 2.33013C48.141 -0.349364 53.859 -0.349365 58.5 2.33013L93.7295 22.6699C98.3705 25.3494 101.229 30.3013 101.229 35.6603V76.3397C101.229 81.6987 98.3705 86.6506 93.7295 89.3301L58.5 109.67C53.859 112.349 48.141 112.349 43.5 109.67L8.27053 89.3301C3.62951 86.6506 0.770527 81.6987 0.770527 76.3397V35.6603C0.770527 30.3013 3.62951 25.3494 8.27053 22.6699L43.5 2.33013Z" fill="white"/>
    <path d="M73.0703 32.9531H28.9297C27.3143 32.9531 26 34.2674 26 35.8828V76.0562C26 77.7053 27.3416 79.0469 28.9907 79.0469H73.0093C74.6584 79.0469 76 77.7053 76 76.0562V35.8828C76 34.2674 74.6857 32.9531 73.0703 32.9531ZM28.9297 34.9062H73.0703C73.6088 34.9062 74.0469 35.3443 74.0469 35.8828V41.3516H27.9531V35.8828C27.9531 35.3443 28.3912 34.9062 28.9297 34.9062ZM73.0093 77.0938H28.9907C28.4187 77.0938 27.9531 76.6283 27.9531 76.0562V43.3047H74.0469V76.0562C74.0469 76.6283 73.5814 77.0938 73.0093 77.0938Z" fill="url(#paint0_linear)"/>
    <path d="M34.0085 39.3861C34.7062 39.3861 35.2719 38.8205 35.2719 38.1228C35.2719 37.425 34.7062 36.8594 34.0085 36.8594C33.3108 36.8594 32.7451 37.425 32.7451 38.1228C32.7451 38.8205 33.3108 39.3861 34.0085 39.3861Z" fill="url(#paint1_linear)"/>
    <path d="M39.0617 39.3861C39.7595 39.3861 40.3251 38.8205 40.3251 38.1228C40.3251 37.425 39.7595 36.8594 39.0617 36.8594C38.364 36.8594 37.7983 37.425 37.7983 38.1228C37.7983 38.8205 38.364 39.3861 39.0617 39.3861Z" fill="url(#paint2_linear)"/>
    <path d="M45.0058 39.0172C45.4991 38.5239 45.4991 37.7241 45.0058 37.2308C44.5125 36.7375 43.7127 36.7375 43.2194 37.2308C42.7261 37.7241 42.7261 38.5239 43.2194 39.0172C43.7127 39.5105 44.5125 39.5105 45.0058 39.0172Z" fill="url(#paint3_linear)"/>
    <path d="M63.7532 56.393L55.5345 55.2009L51.8572 47.7548C51.6926 47.4216 51.3532 47.2107 50.9816 47.2107C50.9815 47.2107 50.9814 47.2107 50.9813 47.2107C50.6096 47.2108 50.2702 47.4219 50.1057 47.7553L46.4324 55.2035L38.2143 56.3999C37.8465 56.4534 37.5409 56.7112 37.4261 57.0647C37.3114 57.4183 37.4073 57.8063 37.6735 58.0657L43.6218 63.8609L42.2202 72.0464C42.1574 72.4128 42.3082 72.7831 42.609 73.0015C42.7791 73.1251 42.9804 73.1878 43.1828 73.1878C43.3383 73.1878 43.4944 73.1507 43.6374 73.0755L50.9871 69.209L58.3388 73.0716C58.6679 73.2446 59.0667 73.2157 59.3673 72.997C59.6679 72.7785 59.8184 72.4082 59.7555 72.0418L58.3496 63.8571L64.2949 58.0587C64.561 57.7992 64.6566 57.4111 64.5417 57.0576C64.4267 56.7041 64.1211 56.4464 63.7532 56.393ZM44.4794 70.4257L44.4907 70.3595L50.9841 61.4221L45.576 63.1567C45.526 63.032 45.4516 62.9166 45.3526 62.8202L40.4538 58.0475L40.5533 58.0331L50.9841 61.4222L47.6924 56.8553C47.8015 56.7674 47.8931 56.6572 47.957 56.5279L50.9822 50.394L50.9841 50.3978V61.4222L54.3094 56.8815C54.4364 56.9745 54.5857 57.037 54.7461 57.0602L61.4266 58.0292L50.9841 61.4221L56.3782 63.1974C56.3252 63.3508 56.3094 63.5169 56.3378 63.6816L57.4873 70.373L50.9841 61.4221L50.9624 67.1305C50.8144 67.1342 50.6671 67.1704 50.5322 67.2414L44.4794 70.4257Z" fill="url(#paint4_linear)"/>
    <defs>
        <linearGradient id="paint0_linear" x1="27.9089" y1="51.5439" x2="77.5206" y2="51.5439" gradientUnits="userSpaceOnUse">
            <stop stop-color="#1378BA"/>
            <stop offset="1" stop-color="#2BB673"/>
        </linearGradient>
        <linearGradient id="paint1_linear" x1="32.8416" y1="37.8785" x2="35.3487" y2="37.8785" gradientUnits="userSpaceOnUse">
            <stop stop-color="#1378BA"/>
            <stop offset="1" stop-color="#2BB673"/>
        </linearGradient>
        <linearGradient id="paint2_linear" x1="37.8948" y1="37.8785" x2="40.402" y2="37.8785" gradientUnits="userSpaceOnUse">
            <stop stop-color="#1378BA"/>
            <stop offset="1" stop-color="#2BB673"/>
        </linearGradient>
        <linearGradient id="paint3_linear" x1="43.1149" y1="38.7763" x2="44.8874" y2="37.0038" gradientUnits="userSpaceOnUse">
            <stop stop-color="#1378BA"/>
            <stop offset="1" stop-color="#2BB673"/>
        </linearGradient>
        <linearGradient id="paint4_linear" x1="38.4173" y1="57.6879" x2="65.4171" y2="57.6879" gradientUnits="userSpaceOnUse">
            <stop stop-color="#1378BA"/>
            <stop offset="1" stop-color="#2BB673"/>
        </linearGradient>
    </defs>
</svg>
