<svg width="102" height="112" viewBox="0 0 102 112" fill="none" xmlns="http://www.w3.org/2000/svg">
    <path d="M43.5 2.33013C48.141 -0.349364 53.859 -0.349365 58.5 2.33013L93.7295 22.6699C98.3705 25.3494 101.229 30.3013 101.229 35.6603V76.3397C101.229 81.6987 98.3705 86.6506 93.7295 89.3301L58.5 109.67C53.859 112.349 48.141 112.349 43.5 109.67L8.27053 89.3301C3.62951 86.6506 0.770527 81.6987 0.770527 76.3397V35.6603C0.770527 30.3013 3.62951 25.3494 8.27053 22.6699L43.5 2.33013Z"
          fill="white"/>
    <path d="M75.0234 79.0469H27.9531V31.9766C27.9531 31.4372 27.5159 31 26.9766 31C26.4372 31 26 31.4372 26 31.9766V80.0234C26 80.5627 26.4372 81 26.9766 81H75.0234C75.5627 81 76 80.5627 76 80.0234C76 79.4842 75.5627 79.0469 75.0234 79.0469Z"
          fill="url(#paint0_linear)"/>
    <path d="M32.8359 75.1406H38.6953C39.2347 75.1406 39.6719 74.7034 39.6719 74.1641V55.4141C39.6719 54.8747 39.2347 54.4375 38.6953 54.4375H32.8359C32.2966 54.4375 31.8594 54.8747 31.8594 55.4141V74.1641C31.8594 74.7034 32.2966 75.1406 32.8359 75.1406ZM33.8125 56.3906H37.7188V73.1875H33.8125V56.3906Z"
          fill="url(#paint1_linear)"/>
    <path d="M44.8477 60.2969C44.3083 60.2969 43.8711 60.7341 43.8711 61.2734V74.1641C43.8711 74.7034 44.3083 75.1406 44.8477 75.1406H51C51.5393 75.1406 51.9766 74.7034 51.9766 74.1641V61.2734C51.9766 60.7341 51.5393 60.2969 51 60.2969H44.8477ZM50.0234 73.1875H45.8242V62.25H50.0234V73.1875Z"
          fill="url(#paint2_linear)"/>
    <path d="M57.1523 54.4375C56.6131 54.4375 56.1758 54.8747 56.1758 55.4141V74.1641C56.1758 74.7034 56.6131 75.1406 57.1523 75.1406H63.0117C63.551 75.1406 63.9883 74.7034 63.9883 74.1641V55.4141C63.9883 54.8747 63.551 54.4375 63.0117 54.4375H57.1523ZM62.0352 73.1875H58.1289V56.3906H62.0352V73.1875Z"
          fill="url(#paint3_linear)"/>
    <path d="M75.0234 42.7188H68.8711C68.3318 42.7188 67.8945 43.156 67.8945 43.6953V74.1641C67.8945 74.7034 68.3318 75.1406 68.8711 75.1406H75.0234C75.5627 75.1406 76 74.7034 76 74.1641V43.6953C76 43.156 75.5627 42.7188 75.0234 42.7188ZM74.0469 73.1875H69.8477V44.6719H74.0469V73.1875Z"
          fill="url(#paint4_linear)"/>
    <path d="M35.7655 50.5312C36.9444 50.5312 38.0022 50.0056 38.719 49.1771L43.9543 51.6815C43.9 51.9407 43.871 52.2092 43.871 52.4844C43.871 54.6383 45.6233 56.3906 47.7772 56.3906C49.9312 56.3906 51.6835 54.6383 51.6835 52.4844C51.6835 52.2143 51.6559 51.9504 51.6034 51.6956L57.1192 49.1665C57.8361 50.0011 58.8979 50.5312 60.0819 50.5312C62.2358 50.5312 63.9882 48.7789 63.9882 46.625C63.9882 45.9076 63.7929 45.2353 63.454 44.6569L70.0966 38.2617C70.6814 38.611 71.3644 38.8125 72.0937 38.8125C74.2476 38.8125 75.9999 37.0602 75.9999 34.9062C75.9999 32.7523 74.2476 31 72.0937 31C69.9397 31 68.1874 32.7523 68.1874 34.9062C68.1874 35.6236 68.3827 36.296 68.7216 36.8743L62.079 43.2695C61.4941 42.9202 60.8112 42.7188 60.0819 42.7188C57.928 42.7188 56.1757 44.4711 56.1757 46.625C56.1757 46.8951 56.2033 47.159 56.2558 47.4138L50.7399 49.9429C50.023 49.1083 48.9612 48.5781 47.7772 48.5781C46.5983 48.5781 45.5405 49.1038 44.8237 49.9322L39.5885 47.4278C39.6429 47.1686 39.6719 46.9001 39.6719 46.6249C39.6719 44.471 37.9195 42.7187 35.7656 42.7187C33.6117 42.7187 31.8594 44.471 31.8594 46.6249C31.8594 48.7788 33.6116 50.5312 35.7655 50.5312ZM60.0819 44.6719C61.1589 44.6719 62.0351 45.548 62.0351 46.625C62.0351 47.702 61.1589 48.5781 60.0819 48.5781C59.005 48.5781 58.1288 47.702 58.1288 46.625C58.1288 45.548 59.005 44.6719 60.0819 44.6719ZM35.7655 44.6719C36.8425 44.6719 37.7187 45.548 37.7187 46.625C37.7187 47.702 36.8425 48.5781 35.7655 48.5781C34.6886 48.5781 33.8124 47.702 33.8124 46.625C33.8124 45.548 34.6886 44.6719 35.7655 44.6719Z"
          fill="url(#paint5_linear)"/>
    <defs>
        <linearGradient id="paint0_linear" x1="27.9089" y1="51.1662" x2="77.5206" y2="51.1662"
                        gradientUnits="userSpaceOnUse">
            <stop stop-color="#1378BA"/>
            <stop offset="1" stop-color="#2BB673"/>
        </linearGradient>
        <linearGradient id="paint1_linear" x1="32.1576" y1="62.7876" x2="39.9095" y2="62.7876"
                        gradientUnits="userSpaceOnUse">
            <stop stop-color="#1378BA"/>
            <stop offset="1" stop-color="#2BB673"/>
        </linearGradient>
        <linearGradient id="paint2_linear" x1="44.1805" y1="66.2837" x2="52.2231" y2="66.2837"
                        gradientUnits="userSpaceOnUse">
            <stop stop-color="#1378BA"/>
            <stop offset="1" stop-color="#2BB673"/>
        </linearGradient>
        <linearGradient id="paint3_linear" x1="56.4741" y1="62.7876" x2="64.2259" y2="62.7876"
                        gradientUnits="userSpaceOnUse">
            <stop stop-color="#1378BA"/>
            <stop offset="1" stop-color="#2BB673"/>
        </linearGradient>
        <linearGradient id="paint4_linear" x1="68.204" y1="55.7953" x2="76.2465" y2="55.7953"
                        gradientUnits="userSpaceOnUse">
            <stop stop-color="#1378BA"/>
            <stop offset="1" stop-color="#2BB673"/>
        </linearGradient>
        <linearGradient id="paint5_linear" x1="33.5446" y1="41.2407" x2="77.3423" y2="41.2407"
                        gradientUnits="userSpaceOnUse">
            <stop stop-color="#1378BA"/>
            <stop offset="1" stop-color="#2BB673"/>
        </linearGradient>
    </defs>
</svg>
