<svg width="102" height="112" viewBox="0 0 102 112" fill="none" xmlns="http://www.w3.org/2000/svg">
    <path d="M43.5 2.33013C48.141 -0.349364 53.859 -0.349365 58.5 2.33013L93.7295 22.6699C98.3705 25.3494 101.229 30.3013 101.229 35.6603V76.3397C101.229 81.6987 98.3705 86.6506 93.7295 89.3301L58.5 109.67C53.859 112.349 48.141 112.349 43.5 109.67L8.27053 89.3301C3.62951 86.6506 0.770527 81.6987 0.770527 76.3397V35.6603C0.770527 30.3013 3.62951 25.3494 8.27053 22.6699L43.5 2.33013Z" fill="white"/>
    <path d="M68.5781 41.3516H63.6953V37.8359C63.6953 37.577 63.5924 37.3285 63.4093 37.1454L57.5499 31.286C57.3668 31.1029 57.1184 31 56.8594 31H39.2812C38.7419 31 38.3047 31.4372 38.3047 31.9766V41.3516H33.4219C31.8064 41.3516 30.4922 42.6658 30.4922 44.2812V71.625C30.4922 73.2404 31.8064 74.5547 33.4219 74.5547H46.1172V79.0469H43.1875C42.6481 79.0469 42.2109 79.4841 42.2109 80.0234C42.2109 80.5628 42.6481 81 43.1875 81H58.8125C59.3519 81 59.7891 80.5628 59.7891 80.0234C59.7891 79.4841 59.3519 79.0469 58.8125 79.0469H55.8828V74.5547H68.5781C70.1936 74.5547 71.5078 73.2404 71.5078 71.625V44.2812C71.5078 42.6658 70.1936 41.3516 68.5781 41.3516ZM57.8359 34.3342L60.3611 36.8594H57.8359V34.3342ZM40.2578 32.9531H55.8828V37.8359C55.8828 38.3753 56.32 38.8125 56.8594 38.8125H61.7422V60.2969H40.2578V32.9531ZM33.4219 43.3047H38.3047V61.2734C38.3047 61.8128 38.7419 62.25 39.2812 62.25H62.7188C63.2581 62.25 63.6953 61.8128 63.6953 61.2734V43.3047H68.5781C69.1166 43.3047 69.5547 43.7428 69.5547 44.2812V64.7891H32.4453V44.2812C32.4453 43.7428 32.8834 43.3047 33.4219 43.3047ZM53.9297 79.0469H48.0703V74.5547H53.9297V79.0469ZM68.5781 72.6016H33.4219C32.8834 72.6016 32.4453 72.1635 32.4453 71.625V66.7422H69.5547V71.625C69.5547 72.1635 69.1166 72.6016 68.5781 72.6016Z" fill="url(#paint0_linear)"/>
    <path d="M52.7578 68.6953H49.2422C48.7028 68.6953 48.2656 69.1325 48.2656 69.6719C48.2656 70.2112 48.7028 70.6484 49.2422 70.6484H52.7578C53.2972 70.6484 53.7344 70.2112 53.7344 69.6719C53.7344 69.1325 53.2972 68.6953 52.7578 68.6953Z" fill="url(#paint1_linear)"/>
    <path d="M45.1406 56.3906C46.2193 56.3906 47.0938 55.5162 47.0938 54.4375V50.5312C47.0938 49.4525 46.2193 48.5781 45.1406 48.5781C44.0619 48.5781 43.1875 49.4525 43.1875 50.5312V54.4375C43.1875 55.5162 44.0619 56.3906 45.1406 56.3906Z" fill="url(#paint2_linear)"/>
    <path d="M51 56.3906C52.0787 56.3906 52.9531 55.5162 52.9531 54.4375V46.625C52.9531 45.5463 52.0787 44.6719 51 44.6719C49.9213 44.6719 49.0469 45.5463 49.0469 46.625V54.4375C49.0469 55.5162 49.9213 56.3906 51 56.3906Z" fill="url(#paint3_linear)"/>
    <path d="M56.8594 50.5312C55.7807 50.5312 54.9062 51.4057 54.9062 52.4844V54.4375C54.9062 55.5162 55.7807 56.3906 56.8594 56.3906C57.9381 56.3906 58.8125 55.5162 58.8125 54.4375V52.4844C58.8125 51.4057 57.9381 50.5312 56.8594 50.5312Z" fill="url(#paint4_linear)"/>
    <path d="M43.5781 37.8359H47.0938C47.6331 37.8359 48.0703 37.3987 48.0703 36.8594C48.0703 36.32 47.6331 35.8828 47.0938 35.8828H43.5781C43.0388 35.8828 42.6016 36.32 42.6016 36.8594C42.6016 37.3987 43.0388 37.8359 43.5781 37.8359Z" fill="url(#paint5_linear)"/>
    <path d="M43.5781 41.7422H50.4141C50.9534 41.7422 51.3906 41.305 51.3906 40.7656C51.3906 40.2263 50.9534 39.7891 50.4141 39.7891H43.5781C43.0388 39.7891 42.6016 40.2263 42.6016 40.7656C42.6016 41.305 43.0388 41.7422 43.5781 41.7422Z" fill="url(#paint6_linear)"/>
    <defs>
        <linearGradient id="paint0_linear" x1="32.0581" y1="51.1662" x2="72.7552" y2="51.1662" gradientUnits="userSpaceOnUse">
            <stop stop-color="#1378BA"/>
            <stop offset="1" stop-color="#2BB673"/>
        </linearGradient>
        <linearGradient id="paint1_linear" x1="48.4744" y1="69.4831" x2="53.9007" y2="69.4831" gradientUnits="userSpaceOnUse">
            <stop stop-color="#1378BA"/>
            <stop offset="1" stop-color="#2BB673"/>
        </linearGradient>
        <linearGradient id="paint2_linear" x1="43.3366" y1="51.7291" x2="47.2125" y2="51.7291" gradientUnits="userSpaceOnUse">
            <stop stop-color="#1378BA"/>
            <stop offset="1" stop-color="#2BB673"/>
        </linearGradient>
        <linearGradient id="paint3_linear" x1="49.196" y1="49.3983" x2="53.0719" y2="49.3983" gradientUnits="userSpaceOnUse">
            <stop stop-color="#1378BA"/>
            <stop offset="1" stop-color="#2BB673"/>
        </linearGradient>
        <linearGradient id="paint4_linear" x1="55.0554" y1="52.8945" x2="58.9313" y2="52.8945" gradientUnits="userSpaceOnUse">
            <stop stop-color="#1378BA"/>
            <stop offset="1" stop-color="#2BB673"/>
        </linearGradient>
        <linearGradient id="paint5_linear" x1="42.8104" y1="36.6706" x2="48.2366" y2="36.6706" gradientUnits="userSpaceOnUse">
            <stop stop-color="#1378BA"/>
            <stop offset="1" stop-color="#2BB673"/>
        </linearGradient>
        <linearGradient id="paint6_linear" x1="42.9371" y1="40.5768" x2="51.6579" y2="40.5768" gradientUnits="userSpaceOnUse">
            <stop stop-color="#1378BA"/>
            <stop offset="1" stop-color="#2BB673"/>
        </linearGradient>
    </defs>
</svg>
