<svg width="391" height="391" viewBox="0 0 391 391" fill="none" xmlns="http://www.w3.org/2000/svg">
<circle cx="195.5" cy="195.5" r="195.5" fill="white"/>
<path d="M112 127V176.28H178.527H187.995H225.866H227.381V176.406C249.094 177.16 266.262 194.634 266.389 215.88C266.389 237.126 249.22 254.474 227.381 255.354H225.866H193.928C190.394 255.354 186.859 255.48 183.198 255.48H178.527V255.354H112V391H161.611V304.634H213.495C222.963 304.634 231.547 303.88 239.121 302.371C246.822 300.863 254.017 298.726 260.455 295.96C266.894 293.194 272.953 289.926 278.255 286.029C283.683 282.131 288.733 277.857 293.151 273.206C300.473 265.789 306.153 256.486 310.067 245.423C313.98 234.36 316 222.669 316 210.349C316 195.137 313.223 181.937 307.795 171C302.366 159.937 294.666 151.011 284.693 144.349C275.73 138.314 265.631 133.914 254.396 131.274C243.413 128.383 230.158 127 214.884 127H112ZM112 215.754C112 279.089 112 154.784 112 215.754V215.754ZM157.446 196.771C146.968 196.771 138.384 205.32 138.384 215.754C138.384 226.189 146.968 234.737 157.446 234.737C167.923 234.737 176.507 226.189 176.507 215.754C176.507 205.32 168.05 196.771 157.446 196.771ZM222.079 196.771C211.602 196.771 203.017 205.32 203.017 215.754C203.017 226.189 211.602 234.737 222.079 234.737C232.557 234.737 241.141 226.189 241.141 215.754C241.141 205.32 232.557 196.771 222.079 196.771Z" fill="#F3F3F3"/>
<circle cx="92" cy="216" r="19" fill="#F3F3F3"/>
</svg>
