<svg width="110" height="110" viewBox="0 0 110 110" fill="none" xmlns="http://www.w3.org/2000/svg">
<circle cx="55" cy="55" r="55" fill="#29B179"/>
<path d="M83.8281 79.6562H27.3438V23.1719C27.3438 22.5246 26.8191 22 26.1719 22C25.5246 22 25 22.5246 25 23.1719V80.8281C25 81.4752 25.5246 82 26.1719 82H83.8281C84.4752 82 85 81.4752 85 80.8281C85 80.181 84.4752 79.6562 83.8281 79.6562Z" fill="white"/>
<path d="M33.2031 74.9688H40.2344C40.8816 74.9688 41.4062 74.4441 41.4062 73.7969V51.2969C41.4062 50.6496 40.8816 50.125 40.2344 50.125H33.2031C32.5559 50.125 32.0312 50.6496 32.0312 51.2969V73.7969C32.0312 74.4441 32.5559 74.9688 33.2031 74.9688ZM34.375 52.4688H39.0625V72.625H34.375V52.4688Z" fill="white"/>
<path d="M47.6172 57.1562C46.97 57.1562 46.4453 57.6809 46.4453 58.3281V73.7969C46.4453 74.4441 46.97 74.9688 47.6172 74.9688H55C55.6471 74.9688 56.1719 74.4441 56.1719 73.7969V58.3281C56.1719 57.6809 55.6471 57.1562 55 57.1562H47.6172ZM53.8281 72.625H48.7891V59.5H53.8281V72.625Z" fill="white"/>
<path d="M62.3828 50.125C61.7357 50.125 61.2109 50.6496 61.2109 51.2969V73.7969C61.2109 74.4441 61.7357 74.9688 62.3828 74.9688H69.4141C70.0612 74.9688 70.5859 74.4441 70.5859 73.7969V51.2969C70.5859 50.6496 70.0612 50.125 69.4141 50.125H62.3828ZM68.2422 72.625H63.5547V52.4688H68.2422V72.625Z" fill="white"/>
<path d="M83.8281 36.0625H76.4453C75.7982 36.0625 75.2734 36.5871 75.2734 37.2344V73.7969C75.2734 74.4441 75.7982 74.9688 76.4453 74.9688H83.8281C84.4752 74.9688 85 74.4441 85 73.7969V37.2344C85 36.5871 84.4752 36.0625 83.8281 36.0625ZM82.6562 72.625H77.6172V38.4062H82.6562V72.625Z" fill="white"/>
<path d="M36.7177 45.4375C38.1323 45.4375 39.4017 44.8067 40.2619 43.8126L46.5442 46.8179C46.479 47.1289 46.4442 47.451 46.4442 47.7812C46.4442 50.3659 48.547 52.4688 51.1317 52.4688C53.7164 52.4688 55.8192 50.3659 55.8192 47.7812C55.8192 47.4571 55.786 47.1405 55.7231 46.8347L62.3421 43.7998C63.2024 44.8013 64.4765 45.4375 65.8973 45.4375C68.482 45.4375 70.5848 43.3347 70.5848 40.75C70.5848 39.8891 70.3504 39.0823 69.9438 38.3883L77.9149 30.7141C78.6167 31.1332 79.4362 31.375 80.3114 31.375C82.8961 31.375 84.9989 29.2722 84.9989 26.6875C84.9989 24.1028 82.8961 22 80.3114 22C77.7267 22 75.6239 24.1028 75.6239 26.6875C75.6239 27.5484 75.8583 28.3552 76.2649 29.0492L68.2938 36.7234C67.592 36.3043 66.7725 36.0625 65.8973 36.0625C63.3126 36.0625 61.2098 38.1653 61.2098 40.75C61.2098 41.0741 61.243 41.3908 61.3059 41.6965L54.6869 44.7314C53.8267 43.73 52.5525 43.0938 51.1317 43.0938C49.717 43.0938 48.4476 43.7246 47.5875 44.7187L41.3052 41.7134C41.3705 41.4023 41.4053 41.0801 41.4053 40.7499C41.4053 38.1652 39.3025 36.0624 36.7178 36.0624C34.1331 36.0624 32.0303 38.1652 32.0303 40.7499C32.0303 43.3346 34.133 45.4375 36.7177 45.4375ZM65.8973 38.4062C67.1897 38.4062 68.2411 39.4577 68.2411 40.75C68.2411 42.0423 67.1897 43.0938 65.8973 43.0938C64.605 43.0938 63.5536 42.0423 63.5536 40.75C63.5536 39.4577 64.605 38.4062 65.8973 38.4062ZM36.7177 38.4062C38.01 38.4062 39.0614 39.4577 39.0614 40.75C39.0614 42.0423 38.01 43.0938 36.7177 43.0938C35.4253 43.0938 34.3739 42.0423 34.3739 40.75C34.3739 39.4577 35.4253 38.4062 36.7177 38.4062Z" fill="white"/>
</svg>
