<svg width="110" height="110" viewBox="0 0 110 110" fill="none" xmlns="http://www.w3.org/2000/svg">
<circle cx="55" cy="55" r="55" fill="#29B179"/>
<g clip-path="url(#clip0)">
<path d="M84.9108 32.7543C84.7294 32.3164 84.302 32.0308 83.8281 32.0308H79.6261L81.1413 30.5157C81.5989 30.0581 81.5989 29.316 81.1413 28.8583C80.6836 28.4008 79.9416 28.4008 79.4839 28.8583L77.9688 30.3735V26.1714C77.9688 25.6975 77.6833 25.2701 77.2453 25.0887C76.8075 24.9073 76.3035 25.0076 75.9682 25.3428L66.5932 34.7178C66.3735 34.9375 66.25 35.2356 66.25 35.5464V42.0922L64.0804 44.2618C60.5116 41.0566 55.8776 39.0153 50.7812 38.7425V36.9527C50.7812 36.3054 50.2566 35.7808 49.6094 35.7808C48.9621 35.7808 48.4375 36.3054 48.4375 36.9527V38.7425C37.4143 39.3325 28.5517 48.195 27.9617 59.2183H26.1719C25.5246 59.2183 25 59.7429 25 60.3902C25 61.0374 25.5246 61.562 26.1719 61.562H27.9617C28.5517 72.5854 37.4143 81.4478 48.4375 82.038V83.8277C48.4375 84.4749 48.9621 84.9995 49.6094 84.9995C50.2566 84.9995 50.7812 84.4749 50.7812 83.8277V82.0379C61.8045 81.4478 70.667 72.5853 71.2571 61.562H73.0469C73.6941 61.562 74.2188 61.0374 74.2188 60.3902C74.2188 59.7429 73.6941 59.2183 73.0469 59.2183H71.2571C70.9843 54.1219 68.943 49.488 65.7377 45.9192L67.9074 43.7495H74.4531C74.7639 43.7495 75.062 43.626 75.2818 43.4063L84.6568 34.0313C84.9919 33.6961 85.0922 33.1921 84.9108 32.7543ZM75.625 32.7173L73.2812 35.061V31.3443L75.625 29.0006V32.7173ZM68.5938 36.0318L70.9375 33.6881V37.4047L68.5938 39.7484V36.0318ZM68.9453 60.3902C68.9453 71.052 60.2712 79.7261 49.6094 79.7261C38.9475 79.7261 30.2734 71.0521 30.2734 60.3902C30.2734 49.7282 38.9475 41.0542 49.6094 41.0542C54.5195 41.0542 59.0071 42.8949 62.421 45.9213L59.9314 48.4109C57.1588 46.0185 53.5502 44.5699 49.6094 44.5699C40.8859 44.5699 33.7891 51.6668 33.7891 60.3902C33.7891 69.1135 40.8859 76.2105 49.6094 76.2105C58.3328 76.2105 65.4297 69.1136 65.4297 60.3902C65.4297 56.4494 63.981 52.8407 61.5887 50.0682L64.0784 47.5785C67.1046 50.9924 68.9453 55.48 68.9453 60.3902ZM57.2266 60.3902C57.2266 64.5903 53.8095 68.0074 49.6094 68.0074C45.4093 68.0074 41.9922 64.5903 41.9922 60.3902C41.9922 56.1901 45.4093 52.773 49.6094 52.773C51.2875 52.773 52.8396 53.3195 54.0998 54.2425L51.125 57.2173C50.6659 56.9977 50.1521 56.8745 49.6094 56.8745C47.6677 56.8745 46.0938 58.4485 46.0938 60.3902C46.0938 62.3318 47.6677 63.9058 49.6094 63.9058C51.5509 63.9058 53.125 62.3318 53.125 60.3902C53.125 59.8475 53.0018 59.3336 52.7822 58.8747L55.757 55.8999C56.68 57.1599 57.2266 58.7122 57.2266 60.3902ZM55.7704 52.5719C54.0736 51.232 51.9341 50.4292 49.6094 50.4292C44.1169 50.4292 39.6484 54.8977 39.6484 60.3902C39.6484 65.8826 44.1169 70.3511 49.6094 70.3511C55.1018 70.3511 59.5703 65.8826 59.5703 60.3902C59.5703 58.0654 58.7676 55.9259 57.4277 54.2292L59.9264 51.7304C61.8968 54.0741 63.0858 57.0957 63.0858 60.3902C63.0858 67.8211 57.0402 73.8667 49.6093 73.8667C42.1783 73.8667 36.1328 67.8211 36.1328 60.3902C36.1328 52.9592 42.1784 46.9136 49.6094 46.9136C52.9039 46.9136 55.9254 48.1026 58.2692 50.073L55.7704 52.5719ZM73.9677 41.4058H70.2511L72.5949 39.062H76.3115L73.9677 41.4058ZM78.6552 36.7183H74.9386L77.2824 34.3745H80.999L78.6552 36.7183Z" fill="white"/>
</g>
<defs>
<clipPath id="clip0">
<rect width="60" height="60" fill="white" transform="translate(25 25)"/>
</clipPath>
</defs>
</svg>
