<svg width="110" height="110" viewBox="0 0 110 110" fill="none" xmlns="http://www.w3.org/2000/svg">
<circle cx="55" cy="55" r="55" fill="#29B179"/>
<path d="M54.9996 31.1187C41.8313 31.1187 31.1182 41.8319 31.1182 55C31.1182 68.1681 41.8313 78.8813 54.9996 78.8813C68.1678 78.8813 78.881 68.1681 78.881 55C78.881 41.8319 68.1678 31.1187 54.9996 31.1187ZM54.9996 76.5375C43.1237 76.5375 33.4619 66.8759 33.4619 55C33.4619 43.1241 43.1237 33.4624 54.9996 33.4624C66.8755 33.4624 76.5372 43.1241 76.5372 55C76.5372 66.8759 66.8755 76.5375 54.9996 76.5375Z" fill="white"/>
<path d="M76.2132 33.7867C70.5469 28.1206 63.0133 25 55 25C46.9867 25 39.4531 28.1206 33.7868 33.7867C28.1205 39.4531 25 46.9867 25 55C25 63.0133 28.1205 70.5469 33.7868 76.2133C39.4531 81.8794 46.9867 85 55 85C63.0133 85 70.5469 81.8794 76.2132 76.2133C81.8795 70.5469 85 63.0133 85 55C85 46.9867 81.8795 39.4531 76.2132 33.7867ZM55 82.6562C39.7503 82.6562 27.3438 70.2497 27.3438 55C27.3438 39.7503 39.7503 27.3438 55 27.3438C70.2497 27.3438 82.6562 39.7503 82.6562 55C82.6562 70.2497 70.2497 82.6562 55 82.6562Z" fill="white"/>
<path d="M72.0728 55C72.0728 45.5708 64.429 37.927 54.9999 37.927L55.0007 55.0009L37.9287 55.0018C37.9287 64.4304 45.5716 72.0738 54.9999 72.0748H55.0008C55.0008 72.0748 55.0014 72.0748 55.0016 72.0748C64.43 72.0738 72.0728 64.4304 72.0728 55.0018H72.0588L72.0728 55Z" fill="white"/>
</svg>
