<svg width="110" height="110" viewBox="0 0 110 110" fill="none" xmlns="http://www.w3.org/2000/svg">
<circle cx="55" cy="55" r="55" fill="#29B179"/>
<path d="M26.1719 82H69.7656C70.4127 82 70.9375 81.4754 70.9375 80.8281L70.9376 59.0312C70.9376 58.7205 70.8141 58.4223 70.5944 58.2026C70.3745 57.9829 70.0765 57.8594 69.7657 57.8594H63.5547V55.5156C63.5547 52.9309 61.4519 50.8281 58.8672 50.8281C56.2825 50.8281 54.1797 52.9309 54.1797 55.5156V57.8594H49.1406V51.6484C49.1406 51.0012 48.6159 50.4766 47.9688 50.4766H44.1016C42.8092 50.4766 41.7578 49.4252 41.7578 48.1328C41.7578 46.8405 42.8092 45.7891 44.1016 45.7891H47.9688C48.6159 45.7891 49.1406 45.2644 49.1406 44.6172V37.2344C49.1406 36.5871 48.6159 36.0625 47.9688 36.0625H41.7578V33.7188C41.7578 31.1341 39.655 29.0312 37.0703 29.0312C34.4856 29.0312 32.3828 31.1341 32.3828 33.7188V36.0625H26.1719C25.5248 36.0625 25 36.5871 25 37.2344V80.8281C25 81.4754 25.5248 82 26.1719 82ZM49.1406 60.2031H55.3516C55.9987 60.2031 56.5234 59.6785 56.5234 59.0312V55.5156C56.5234 54.2233 57.5748 53.1719 58.8672 53.1719C60.1595 53.1719 61.2109 54.2233 61.2109 55.5156V59.0312C61.2109 59.6785 61.7357 60.2031 62.3828 60.2031H68.5939L68.5938 79.6562H49.1406V74.6172H51.8359C54.4206 74.6172 56.5234 72.5144 56.5234 69.9297C56.5234 67.345 54.4206 65.2422 51.8359 65.2422H49.1406V60.2031ZM27.3438 38.4062H33.5547C34.2018 38.4062 34.7266 37.8816 34.7266 37.2344V33.7188C34.7266 32.4264 35.778 31.375 37.0703 31.375C38.3627 31.375 39.4141 32.4264 39.4141 33.7188V37.2344C39.4141 37.8816 39.9388 38.4062 40.5859 38.4062H46.7969V43.4453H44.1016C41.5169 43.4453 39.4141 45.5481 39.4141 48.1328C39.4141 50.7175 41.5169 52.8203 44.1016 52.8203H46.7969V57.8594H27.3438V38.4062ZM27.3438 60.2031H46.7969V66.4141C46.7969 67.0613 47.3216 67.5859 47.9688 67.5859H51.8359C53.1283 67.5859 54.1797 68.6373 54.1797 69.9297C54.1797 71.222 53.1283 72.2734 51.8359 72.2734H47.9688C47.3216 72.2734 46.7969 72.7981 46.7969 73.4453V79.6562H27.3438V60.2031Z" fill="white"/>
<path d="M83.8281 22H62.0312C61.3841 22 60.8594 22.5246 60.8594 23.1719V29.3828H58.5156C55.9309 29.3828 53.8281 31.4856 53.8281 34.0703C53.8281 36.655 55.9309 38.7578 58.5156 38.7578H60.8594V44.9688C60.8594 45.616 61.3841 46.1406 62.0312 46.1406H69.4141C70.0612 46.1406 70.5859 45.616 70.5859 44.9688V41.1016C70.5859 39.8092 71.6373 38.7578 72.9297 38.7578C74.222 38.7578 75.2734 39.8092 75.2734 41.1016V44.9688C75.2734 45.616 75.7982 46.1406 76.4453 46.1406H83.8281C84.4752 46.1406 85 45.616 85 44.9688V23.1719C85 22.5246 84.4752 22 83.8281 22Z" fill="white"/>
</svg>
