<svg width="110" height="110" viewBox="0 0 110 110" fill="none" xmlns="http://www.w3.org/2000/svg">
<circle cx="55" cy="55" r="55" fill="#29B179"/>
<g clip-path="url(#clip0)">
<path d="M82.4219 52.4219C82.4219 45.0972 79.5695 38.2109 74.3902 33.0317C69.211 27.8523 62.3247 25 55 25C47.6753 25 40.789 27.8523 35.6098 33.0317C30.4305 38.2109 27.5781 45.0972 27.5781 52.4219C27.5781 59.024 29.8964 65.2694 34.1465 70.2302V80.3155C34.1465 82.8986 36.248 85.0001 38.8312 85.0001H71.1689C73.7521 85.0001 75.8536 82.8986 75.8536 80.3155V70.2302C80.1036 65.2694 82.4219 59.024 82.4219 52.4219ZM55 27.3438C68.8281 27.3438 80.0781 38.5938 80.0781 52.4219C80.0781 66.25 68.8281 77.5 55 77.5C41.1719 77.5 29.9219 66.25 29.9219 52.4219C29.9219 38.5938 41.1719 27.3438 55 27.3438ZM71.1689 82.6562H38.8311C37.5402 82.6562 36.4901 81.6061 36.4901 80.3154V72.6531C41.5571 77.2987 48.0827 79.8438 55 79.8438C61.9173 79.8438 68.4429 77.2987 73.5098 72.6532V80.3155C73.5098 81.6061 72.4596 82.6562 71.1689 82.6562Z" fill="white"/>
<path d="M72.96 52.4219C72.96 53.069 73.4847 53.5938 74.1318 53.5938H75.9467C76.5938 53.5938 77.1186 53.069 77.1186 52.4219C77.1186 51.7748 76.5938 51.25 75.9467 51.25H74.1318C73.4846 51.25 72.96 51.7748 72.96 52.4219Z" fill="white"/>
<path d="M37.0395 52.4219C37.0395 51.7748 36.5147 51.25 35.8676 51.25H34.0527C33.4056 51.25 32.8809 51.7748 32.8809 52.4219C32.8809 53.069 33.4056 53.5938 34.0527 53.5938H35.8676C36.5148 53.5938 37.0395 53.069 37.0395 52.4219Z" fill="white"/>
<path d="M55 70.3826C54.3529 70.3826 53.8281 70.9074 53.8281 71.5545V73.3695C53.8281 74.0166 54.3529 74.5414 55 74.5414C55.6471 74.5414 56.1719 74.0166 56.1719 73.3695V71.5545C56.1719 70.9073 55.6471 70.3826 55 70.3826Z" fill="white"/>
<path d="M55 34.5104C55.6471 34.5104 56.1719 33.9856 56.1719 33.3385V31.5235C56.1719 30.8764 55.6471 30.3516 55 30.3516C54.3529 30.3516 53.8281 30.8764 53.8281 31.5235V33.3385C53.8281 33.9857 54.3529 34.5104 55 34.5104Z" fill="white"/>
<path d="M71.557 44.0313C71.7558 44.0313 71.9574 43.9806 72.1418 43.874L73.7136 42.9665C74.2742 42.6429 74.4662 41.9263 74.1425 41.3658C73.8189 40.8055 73.1023 40.6133 72.5418 40.9369L70.9699 41.8444C70.4094 42.168 70.2174 42.8846 70.541 43.4451C70.7582 43.8211 71.1519 44.0313 71.557 44.0313Z" fill="white"/>
<path d="M39.0047 63.006C39.5652 62.6823 39.7572 61.9657 39.4336 61.4052C39.1099 60.8449 38.3934 60.6526 37.8328 60.9763L36.2609 61.8838C35.7004 62.2075 35.5084 62.9241 35.832 63.4846C36.0492 63.8605 36.4429 64.0707 36.8481 64.0707C37.0468 64.0707 37.2484 64.02 37.4328 63.9135L39.0047 63.006Z" fill="white"/>
<path d="M65.5697 68.4087C65.2461 67.8485 64.5295 67.6561 63.969 67.9798C63.4084 68.3035 63.2164 69.0201 63.54 69.5806L64.4475 71.1524C64.6647 71.5284 65.0584 71.7386 65.4636 71.7386C65.6623 71.7386 65.8639 71.6879 66.0483 71.5813C66.6088 71.2577 66.8009 70.5411 66.4772 69.9806L65.5697 68.4087Z" fill="white"/>
<path d="M44.4319 36.4845C44.6491 36.8604 45.0428 37.0707 45.4479 37.0707C45.6467 37.0707 45.8483 37.0199 46.0327 36.9134C46.5932 36.5897 46.7853 35.8731 46.4616 35.3126L45.5541 33.7408C45.2306 33.1804 44.5138 32.9883 43.9533 33.3119C43.3928 33.6356 43.2008 34.3522 43.5244 34.9127L44.4319 36.4845Z" fill="white"/>
<path d="M63.9572 36.8741C64.1418 36.9806 64.3433 37.0314 64.542 37.0314C64.947 37.0314 65.341 36.8212 65.558 36.4452L66.4654 34.8734C66.7891 34.3129 66.5969 33.5962 66.0365 33.2726C65.4759 32.949 64.7592 33.141 64.4357 33.7015L63.5283 35.2733C63.2047 35.8339 63.3967 36.5506 63.9572 36.8741Z" fill="white"/>
<path d="M43.9182 71.5836C44.1028 71.6901 44.3042 71.7408 44.503 71.7408C44.908 71.7408 45.3018 71.5306 45.519 71.1547L46.4265 69.5828C46.7501 69.0223 46.5581 68.3057 45.9976 67.982C45.4368 67.6584 44.7205 67.8506 44.3968 68.4109L43.4893 69.9828C43.1656 70.5433 43.3576 71.2599 43.9182 71.5836Z" fill="white"/>
<path d="M70.9611 63.0093L72.533 63.9168C72.7175 64.0233 72.919 64.0741 73.1177 64.0741C73.5227 64.0741 73.9166 63.8638 74.1338 63.4879C74.4574 62.9274 74.2654 62.2108 73.7049 61.8871L72.133 60.9796C71.5723 60.656 70.8559 60.848 70.5322 61.4085C70.2086 61.969 70.4006 62.6856 70.9611 63.0093Z" fill="white"/>
<path d="M36.2922 42.9938L37.8639 43.9011C38.0485 44.0077 38.2499 44.0584 38.4487 44.0584C38.8537 44.0584 39.2477 43.8482 39.4647 43.4722C39.7884 42.9117 39.5963 42.195 39.0358 41.8715L37.4641 40.9641C36.9033 40.6405 36.1868 40.8325 35.8633 41.393C35.5396 41.9535 35.7317 42.6702 36.2922 42.9938Z" fill="white"/>
<path d="M58.7666 43.03C57.3021 41.5655 56.4811 40.7445 55.0166 39.28C53.5521 40.7445 52.7311 41.5655 51.2666 43.03V46.0938H58.7666V43.03Z" fill="white"/>
<path d="M55.0166 65.53C57.0877 65.53 58.7666 63.8511 58.7666 61.78V49.8438H51.2666V61.78C51.2666 63.8511 52.9456 65.53 55.0166 65.53Z" fill="white"/>
</g>
<defs>
<clipPath id="clip0">
<rect width="60" height="60" fill="white" transform="translate(25 25)"/>
</clipPath>
</defs>
</svg>
