<svg width="104" height="104" viewBox="0 0 104 104" fill="none" xmlns="http://www.w3.org/2000/svg">
<circle cx="52" cy="52" r="52" fill="#29B179"/>
<g clip-path="url(#clip0)">
<path d="M71.4104 39.1067H38.5911C37.9438 39.1067 37.4189 39.6314 37.4189 40.2788V63.7212C37.4189 64.3685 37.9438 64.8933 38.5911 64.8933H71.4104C72.0576 64.8933 72.5825 64.3685 72.5825 63.7212V40.2788C72.5825 39.6314 72.0577 39.1067 71.4104 39.1067ZM39.7632 41.4509H70.2382V62.549H69.5517L58.1739 51.1712C57.716 50.7135 56.9741 50.7135 56.5161 51.1712L52.6565 55.0308L51.141 53.5154C50.6832 53.0577 49.9413 53.0577 49.4833 53.5154L40.4497 62.549H39.7632V41.4509ZM66.2364 62.549H43.7651L50.3122 56.0018L51.8277 57.5173C52.2855 57.975 53.0275 57.975 53.4854 57.5173L57.3451 53.6576L66.2364 62.549Z" fill="white"/>
<path d="M50 54.5L41.5 63.5L69.5 64L57.5 52.5L53 56.5L50 54.5Z" fill="white"/>
<path d="M63.2046 49.6558C64.4993 49.6558 65.5488 48.6063 65.5488 47.3116C65.4254 44.202 60.9833 44.2029 60.8604 47.3116C60.8604 48.6063 61.91 49.6558 63.2046 49.6558Z" fill="white"/>
<path d="M83.8341 67.2376H77.2703V36.7625H83.8341C85.3893 36.7005 85.3881 34.4797 83.8341 34.4183H77.2703V27.8544C77.2083 26.2992 74.9874 26.3004 74.926 27.8544V34.4183H35.074V27.8544C35.0121 26.2992 32.7912 26.3004 32.7298 27.8544V34.4183H26.1659C24.6108 34.4803 24.6119 36.7011 26.1659 36.7625H32.7298V67.2376H26.1659C24.6108 67.2996 24.6119 69.5204 26.1659 69.5818H32.7298V76.1457C32.7917 77.7008 35.0126 77.6996 35.074 76.1457V69.5818H74.926V76.1457C74.9879 77.7008 77.2088 77.6996 77.2703 76.1457V69.5818H83.8341C85.3893 69.5199 85.3881 67.299 83.8341 67.2376ZM35.074 67.2376V36.7625H74.926V67.2376H35.074Z" fill="white"/>
</g>
<defs>
<clipPath id="clip0">
<rect width="60" height="60" fill="white" transform="translate(25 22)"/>
</clipPath>
</defs>
</svg>
