<svg width="104" height="104" viewBox="0 0 104 104" fill="none" xmlns="http://www.w3.org/2000/svg">
<circle cx="52" cy="52" r="52" fill="#29B179"/>
<path d="M73.094 21H30.906C28.9675 21 27.3904 22.5771 27.3904 24.5156V77.4844C27.3904 79.4229 28.9675 81 30.906 81H73.094C75.0325 81 76.6096 79.4229 76.6096 77.4844V24.5156C76.6096 22.5771 75.0325 21 73.094 21ZM58.3068 23.3438L57.9829 23.9917C57.9374 24.0826 57.8925 24.1737 57.848 24.2645C57.3137 25.3496 57.0841 25.6875 56.6873 25.6875H47.3126C46.9159 25.6875 46.6861 25.3496 46.1521 24.2646C46.1075 24.1738 46.0625 24.0826 46.0171 23.9916L45.6931 23.3438H58.3068ZM29.7341 24.5156C29.7341 23.8695 30.2598 23.3438 30.906 23.3438H43.0726L43.9206 25.0398C43.9639 25.1264 44.0065 25.2131 44.0492 25.2996C44.6167 26.4524 45.3938 28.0312 47.3126 28.0312H56.6873C58.6063 28.0312 59.3834 26.4523 59.9508 25.2993C59.9934 25.2129 60.036 25.1261 60.0793 25.0397L60.9272 23.3438H73.094C73.7402 23.3438 74.2659 23.8695 74.2659 24.5156V73.9688H29.7341V24.5156ZM74.2659 77.4844C74.2659 78.1305 73.7402 78.6562 73.094 78.6562H30.906C30.2598 78.6562 29.7341 78.1305 29.7341 77.4844V76.3125H74.2659V77.4844Z" fill="white"/>
<path d="M44.266 33.7455C37.8042 33.7455 32.5471 39.0025 32.5471 45.4642C32.5471 51.9259 37.8042 57.1829 44.266 57.1829C50.7278 57.1829 55.9847 51.9259 55.9847 45.4642C55.9847 39.0025 50.7277 33.7455 44.266 33.7455ZM53.5607 44.2583L45.4376 44.288V36.165C49.6601 36.6942 53.0164 40.0406 53.5607 44.2583ZM43.094 36.1651V44.7877L35.6249 49.1001C35.1524 47.9814 34.8909 46.7528 34.8909 45.4642C34.8909 40.692 38.4761 36.7439 43.094 36.1651ZM44.266 54.8392C41.2229 54.8392 38.5148 53.3808 36.801 51.1273L44.5818 46.6349L53.5694 46.6021C53.0058 51.2365 49.0499 54.8392 44.266 54.8392Z" fill="white"/>
<path d="M70.2812 39.6047H59.5005C58.8534 39.6047 58.3286 40.1293 58.3286 40.7766C58.3286 41.4238 58.8534 41.9484 59.5005 41.9484H70.2812C70.9283 41.9484 71.453 41.4238 71.453 40.7766C71.453 40.1293 70.9283 39.6047 70.2812 39.6047Z" fill="white"/>
<path d="M70.2812 44.2923H59.5005C58.8534 44.2923 58.3286 44.817 58.3286 45.4642C58.3286 46.1114 58.8534 46.6361 59.5005 46.6361H70.2812C70.9283 46.6361 71.453 46.1114 71.453 45.4642C71.453 44.817 70.9283 44.2923 70.2812 44.2923Z" fill="white"/>
<path d="M59.5005 51.3239H64.8908C65.5379 51.3239 66.0626 50.7992 66.0626 50.152C66.0626 49.5048 65.5379 48.9801 64.8908 48.9801H59.5005C58.8534 48.9801 58.3286 49.5048 58.3286 50.152C58.3286 50.7992 58.8533 51.3239 59.5005 51.3239Z" fill="white"/>
<path d="M36.0627 66.2347H52.469C53.7635 66.2347 54.8128 65.1854 54.8128 63.8909C54.8128 62.5965 53.7635 61.5472 52.469 61.5472H36.0627C34.7683 61.5472 33.719 62.5965 33.719 63.8909C33.719 65.1853 34.7683 66.2347 36.0627 66.2347Z" fill="white"/>
<path d="M70.2812 56.8594H59.5005C58.8534 56.8594 58.3286 57.384 58.3286 58.0312C58.3286 58.6785 58.8534 59.2031 59.5005 59.2031H70.2812C70.9283 59.2031 71.453 58.6785 71.453 58.0312C71.453 57.384 70.9283 56.8594 70.2812 56.8594Z" fill="white"/>
<path d="M70.2812 61.5469H59.5005C58.8534 61.5469 58.3286 62.0715 58.3286 62.7188C58.3286 63.366 58.8534 63.8906 59.5005 63.8906H70.2812C70.9283 63.8906 71.453 63.366 71.453 62.7188C71.453 62.0715 70.9283 61.5469 70.2812 61.5469Z" fill="white"/>
<path d="M64.8908 66.2347H59.5005C58.8534 66.2347 58.3286 66.7593 58.3286 67.4066C58.3286 68.0538 58.8534 68.5784 59.5005 68.5784H64.8908C65.5379 68.5784 66.0626 68.0538 66.0626 67.4066C66.0626 66.7593 65.5379 66.2347 64.8908 66.2347Z" fill="white"/>
</svg>
