<svg width="104" height="104" viewBox="0 0 104 104" fill="none" xmlns="http://www.w3.org/2000/svg">
<circle cx="52" cy="52" r="52" fill="#29B179"/>
<path d="M75.4375 41.75H67.2344V35.8906C67.2344 35.2434 66.7096 34.7188 66.0625 34.7188H52C51.3529 34.7188 50.8281 35.2434 50.8281 35.8906V41.75H28.5625C27.9154 41.75 27.3906 42.2746 27.3906 42.9219V49.9531C27.3906 50.6004 27.9154 51.125 28.5625 51.125H30.4728L46.1406 64.5542V81.8281C46.1406 82.272 46.3914 82.6777 46.7884 82.8763C46.9543 82.9592 47.1337 83 47.3124 83C47.5614 83 47.8088 82.9207 48.0156 82.7656L57.3906 75.7344C57.6858 75.513 57.8594 75.1657 57.8594 74.7969V64.5543L73.5272 51.125H75.4375C76.0846 51.125 76.6094 50.6004 76.6094 49.9531V42.9219C76.6094 42.2746 76.0846 41.75 75.4375 41.75ZM53.1719 37.0625H64.8906V41.75H53.1719V37.0625ZM55.9248 63.1256C55.665 63.3482 55.5156 63.6732 55.5156 64.0154V74.2109L48.4844 79.4844V64.0153C48.4844 63.6732 48.335 63.3481 48.0752 63.1255L34.0742 51.125H69.9258L55.9248 63.1256ZM74.2656 48.7812H29.7344V44.0938H74.2656V48.7812Z" fill="white"/>
<path d="M37.9375 37.0625H44.9688C45.6159 37.0625 46.1406 36.5379 46.1406 35.8906V28.8594C46.1406 28.2121 45.6159 27.6875 44.9688 27.6875H37.9375C37.2904 27.6875 36.7656 28.2121 36.7656 28.8594V35.8906C36.7656 36.5379 37.2904 37.0625 37.9375 37.0625Z" fill="white"/>
<path d="M52 30.0312H59.0312C59.6784 30.0312 60.2031 29.5066 60.2031 28.8594V24.1719C60.2031 23.5246 59.6784 23 59.0312 23H52C51.3529 23 50.8281 23.5246 50.8281 24.1719V28.8594C50.8281 29.5066 51.3529 30.0312 52 30.0312Z" fill="white"/>
</svg>
