<svg width="104" height="104" viewBox="0 0 104 104" fill="none" xmlns="http://www.w3.org/2000/svg">
<circle cx="52" cy="52" r="52" fill="#29B179"/>
<path d="M80.8281 41.4531C81.4752 41.4531 82 40.9285 82 40.2812V30.9062C82 30.259 81.4752 29.7344 80.8281 29.7344H71.4531C70.806 29.7344 70.2812 30.259 70.2812 30.9062V34.4219H41.9219C40.367 34.4837 40.3682 36.7043 41.9219 36.7656H70.2812V40.2812C70.2812 40.9285 70.806 41.4531 71.4531 41.4531H74.9688V62.5469H71.4531C70.806 62.5469 70.2812 63.0715 70.2812 63.7188V67.2344H33.7188V63.7188C33.7188 63.0715 33.1941 62.5469 32.5469 62.5469H29.0312V49.6562C28.9694 48.1014 26.7488 48.1026 26.6875 49.6562V62.5469H23.1719C22.5246 62.5469 22 63.0715 22 63.7188V73.0938C22 73.741 22.5246 74.2656 23.1719 74.2656H32.5469C33.1941 74.2656 33.7188 73.741 33.7188 73.0938V69.5781H70.2812V73.0938C70.2812 73.741 70.806 74.2656 71.4531 74.2656H80.8281C81.4752 74.2656 82 73.741 82 73.0938V63.7188C82 63.0715 81.4752 62.5469 80.8281 62.5469H77.3125V41.4531H80.8281ZM31.375 71.9219H24.3438V64.8906H31.375V71.9219ZM79.6562 71.9219H72.625V64.8906H79.6562V71.9219ZM72.625 32.0781H79.6562V39.1094H72.625V32.0781Z" fill="white"/>
<path d="M70.75 43.7969H52C50.4452 43.8588 50.4464 46.0793 52 46.1406H70.75C72.3049 46.0786 72.3037 43.8583 70.75 43.7969Z" fill="white"/>
<path d="M70.75 48.4844H59.0313C57.4765 48.5464 57.4776 50.7667 59.0313 50.8281H70.75C72.3049 50.7661 72.3037 48.5458 70.75 48.4844Z" fill="white"/>
<path d="M52 55.5156H70.75C72.3049 55.4536 72.3037 53.2333 70.75 53.1719H52C50.4452 53.2338 50.4464 55.4543 52 55.5156Z" fill="white"/>
<path d="M23.1719 34.4219C23.8191 34.4219 24.3438 33.8972 24.3438 33.25V32.0781H26.6875V43.7969H25.5156C23.9608 43.8588 23.962 46.0793 25.5156 46.1406H34.8906C36.4455 46.0788 36.4443 43.8582 34.8906 43.7969H33.7188V32.0781H36.0625V33.25C36.1244 34.8048 38.345 34.8037 38.4062 33.25V30.9062C38.4062 30.259 37.8816 29.7344 37.2344 29.7344H23.1719C22.5246 29.7344 22 30.259 22 30.9062V33.25C22 33.8972 22.5246 34.4219 23.1719 34.4219ZM31.375 43.7969H29.0312V32.0781H31.375V43.7969Z" fill="white"/>
<rect x="72" y="63" width="8" height="11" fill="white"/>
</svg>
