<svg width="104" height="104" viewBox="0 0 104 104" fill="none" xmlns="http://www.w3.org/2000/svg">
<circle cx="52" cy="52" r="52" fill="#29B179"/>
<path d="M28.5625 65.8906H32.7812C33.4284 65.8906 33.9531 65.366 33.9531 64.7188C33.9531 64.0715 33.4284 63.5469 32.7812 63.5469H28.5625C27.9154 63.5469 27.3906 64.0715 27.3906 64.7188C27.3906 65.366 27.9154 65.8906 28.5625 65.8906Z" fill="white"/>
<path d="M36.7656 68.2344H28.5625C27.9154 68.2344 27.3906 68.759 27.3906 69.4062C27.3906 70.0535 27.9154 70.5781 28.5625 70.5781H36.7656C37.4129 70.5781 37.9375 70.0535 37.9375 69.4062C37.9375 68.759 37.4129 68.2344 36.7656 68.2344Z" fill="white"/>
<path d="M75.4375 49.4844H71.2188C70.5716 49.4844 70.0469 50.009 70.0469 50.6562C70.0469 51.3035 70.5716 51.8281 71.2188 51.8281H75.4375C76.0846 51.8281 76.6094 51.3035 76.6094 50.6562C76.6094 50.009 76.0846 49.4844 75.4375 49.4844Z" fill="white"/>
<path d="M75.4375 44.7969H67.2344C66.5873 44.7969 66.0625 45.3215 66.0625 45.9688C66.0625 46.616 66.5873 47.1406 67.2344 47.1406H75.4375C76.0846 47.1406 76.6094 46.616 76.6094 45.9688C76.6094 45.3215 76.0846 44.7969 75.4375 44.7969Z" fill="white"/>
<path d="M80.8281 29.5625H23.1719C22.5246 29.5625 22 30.0871 22 30.7344V75.2656C22 75.9129 22.5246 76.4375 23.1719 76.4375H80.8281C81.4752 76.4375 82 75.9129 82 75.2656V30.7344C82 30.0871 81.4752 29.5625 80.8281 29.5625ZM79.6562 31.9062V38.9375H24.3438V31.9062H79.6562ZM24.3438 74.0938V41.2812H79.6562V74.0938H24.3438Z" fill="white"/>
<path d="M53.1719 36.5938H74.2656C74.9127 36.5938 75.4375 36.0691 75.4375 35.4219C75.4375 34.7746 74.9127 34.25 74.2656 34.25H53.1719C52.5248 34.25 52 34.7746 52 35.4219C52 36.0691 52.5248 36.5938 53.1719 36.5938Z" fill="white"/>
<path d="M29.0312 36.5938C29.6785 36.5938 30.2031 36.0691 30.2031 35.4219C30.2031 34.7747 29.6785 34.25 29.0312 34.25C28.384 34.25 27.8594 34.7747 27.8594 35.4219C27.8594 36.0691 28.384 36.5938 29.0312 36.5938Z" fill="white"/>
<path d="M33.7188 36.5938C34.366 36.5938 34.8906 36.0691 34.8906 35.4219C34.8906 34.7747 34.366 34.25 33.7188 34.25C33.0715 34.25 32.5469 34.7747 32.5469 35.4219C32.5469 36.0691 33.0715 36.5938 33.7188 36.5938Z" fill="white"/>
<path d="M38.4062 36.5938C39.0535 36.5938 39.5781 36.0691 39.5781 35.4219C39.5781 34.7747 39.0535 34.25 38.4062 34.25C37.759 34.25 37.2344 34.7747 37.2344 35.4219C37.2344 36.0691 37.759 36.5938 38.4062 36.5938Z" fill="white"/>
<path d="M52 43.625C44.2459 43.625 37.9375 49.9334 37.9375 57.6875C37.9375 61.5163 39.4763 64.9919 41.967 67.5303C41.9946 67.5651 42.0239 67.599 42.0562 67.6312C42.0883 67.6633 42.1223 67.6927 42.157 67.7203C44.6955 70.2112 48.1711 71.75 52 71.75C59.7541 71.75 66.0625 65.4416 66.0625 57.6875C66.0625 49.9334 59.7541 43.625 52 43.625ZM63.6603 56.5156H60.118C59.6025 52.9286 56.7588 50.085 53.1719 49.5695V46.0272C58.7 46.5786 63.1089 50.9875 63.6603 56.5156ZM46.1406 57.6875C46.1406 54.4566 48.7691 51.8281 52 51.8281C55.2309 51.8281 57.8594 54.4566 57.8594 57.6875C57.8594 60.9184 55.2309 63.5469 52 63.5469C48.7691 63.5469 46.1406 60.9184 46.1406 57.6875ZM50.8281 46.0272V49.5695C46.8583 50.1399 43.7969 53.5623 43.7969 57.6875C43.7969 59.5273 44.4059 61.2276 45.4326 62.5974L42.9302 65.0997C41.2756 63.0788 40.2812 60.4972 40.2812 57.6875C40.2812 51.6213 44.9145 46.617 50.8281 46.0272ZM52 69.4062C49.1902 69.4062 46.6086 68.4119 44.5877 66.7572L47.0901 64.2548C48.4599 65.2816 50.1602 65.8906 52 65.8906C56.1252 65.8906 59.5476 62.8292 60.118 58.8594H63.6603C63.0705 64.7729 58.0663 69.4062 52 69.4062Z" fill="white"/>
<path d="M40.0003 51.5C42.2903 47.1362 51.5 44.5 51.5 44.5V50.5L49.0004 51C47.8337 52 45.5004 54.1 45.5004 54.5C45.5004 54.9 45.167 57.3333 45.0004 58.5L47.0004 63L42.5 66C42.5 66 37.355 56.5409 40.0003 51.5Z" fill="white"/>
</svg>
