<svg width="104" height="104" viewBox="0 0 104 104" fill="none" xmlns="http://www.w3.org/2000/svg">
<circle cx="52" cy="52" r="52" fill="#29B179"/>
<g clip-path="url(#clip0)">
<path d="M73.4847 28.3932H31.3014C29.3631 28.3932 27.7861 29.9701 27.7861 31.9085V35.2572C25.2283 33.0635 20.1592 29.1444 17.6972 31.4278C16.6405 32.4846 16.7856 34.2848 18.1284 36.7785C19.2194 38.8047 21.0188 41.1192 23.1952 43.2956C24.7065 44.8068 26.2844 46.1364 27.7861 47.1732V62.3741C27.7861 64.3124 29.3631 65.8893 31.3014 65.8893H46.5343V70.5764H43.019C42.3718 70.5764 41.8472 71.1011 41.8472 71.7481V76.4352C41.8472 77.0822 42.3718 77.6069 43.019 77.6069H61.7671C62.4143 77.6069 62.9389 77.0822 62.9389 76.4352V71.7481C62.9389 71.1011 62.4143 70.5764 61.7671 70.5764H58.2519V65.8893H73.4847C75.423 65.8893 77 64.3124 77 62.3741V31.9083C77 29.9701 75.423 28.3932 73.4847 28.3932ZM31.3014 30.7367H73.4847C74.1308 30.7367 74.6565 31.2624 74.6565 31.9085V57.6871H30.1297V48.5793C31.5366 49.257 32.5048 49.563 33.6173 49.4698C33.1746 50.71 33.4489 52.1511 34.4402 53.1424C35.4509 54.1529 39.8602 55.9184 41.1875 56.4355C41.6163 56.6031 42.1118 56.5025 42.4414 56.1722C42.7702 55.8434 42.8735 55.3515 42.7047 54.9183C42.1878 53.5909 40.4223 49.1815 39.4115 48.1708C38.4202 47.1796 36.9793 46.9053 35.7391 47.348C35.8556 46.3357 35.4861 45.0298 34.6317 43.443C33.6366 41.5949 32.0521 39.5068 30.1297 37.5026V31.9085C30.1297 31.2624 30.6553 30.7367 31.3014 30.7367ZM51.2213 60.7337C51.2213 60.0866 51.7459 59.562 52.3931 59.562C53.9474 59.6237 53.9469 61.844 52.3931 61.9055C51.7459 61.9055 51.2213 61.3809 51.2213 60.7337ZM36.0973 49.8279C36.5541 49.3711 37.2975 49.3709 37.7539 49.8273C38.0532 50.1359 38.7428 51.5461 39.4565 53.1871C37.816 52.4736 36.4063 51.7843 36.0971 51.4848C35.6404 51.0279 35.6406 50.2848 36.0973 49.8279ZM20.3776 36.0019C19.3664 34.2353 19.2993 33.3327 19.363 33.0936C19.602 33.0301 20.5047 33.0971 22.2714 34.1083C25.4334 35.8813 29.5395 39.8629 31.6483 43.045L29.3145 45.3788C26.1324 43.2702 22.1503 39.1636 20.3776 36.0019ZM60.5954 75.2635H44.1908V72.92H60.5954V75.2635ZM55.9083 70.5765H48.8778V65.8895H55.9083V70.5765Z" fill="white"/>
<path d="M35.9882 34.252H68.7974V38.939H35.9882V34.252Z" fill="white"/>
<path d="M67.6263 41.2825H53.5652C52.918 41.2825 52.3934 41.8072 52.3934 42.4542V54.1718C52.3934 54.8189 52.918 55.3436 53.5652 55.3436H67.6263C68.2735 55.3436 68.798 54.8189 68.798 54.1718V42.4542C68.798 41.8071 68.2735 41.2825 67.6263 41.2825ZM64.3899 43.626L54.7371 51.67V43.626H64.3899ZM56.8017 53.0001L66.4545 44.9561V53.0001H56.8017Z" fill="white"/>
<path d="M37.16 43.626H48.8775C50.4322 43.5641 50.4311 41.3439 48.8775 41.2825H37.16C35.6053 41.3443 35.6064 43.5646 37.16 43.626Z" fill="white"/>
<path d="M48.8774 45.9696H41.8469C40.2922 46.0315 40.2933 48.2517 41.8469 48.3131H48.8774C50.4321 48.2511 50.4309 46.0309 48.8774 45.9696Z" fill="white"/>
<path d="M48.8774 50.6566H45.3621C43.8074 50.7185 43.8086 52.9387 45.3621 53.0001H48.8774C50.4321 52.9381 50.4309 50.7179 48.8774 50.6566Z" fill="white"/>
</g>
<defs>
<clipPath id="clip0">
<rect width="60" height="60" fill="white" transform="translate(17 23)"/>
</clipPath>
</defs>
</svg>
