<svg width="104" height="104" viewBox="0 0 104 104" fill="none" xmlns="http://www.w3.org/2000/svg">
<circle cx="52" cy="52" r="52" fill="#29B179"/>
<g clip-path="url(#clip0)">
<path d="M78.828 30.7344H58.9563L58.1955 24.0396C58.1283 23.4473 57.6272 23 57.0312 23H42.9687C42.3727 23 41.8716 23.4473 41.8043 24.0396L41.0436 30.7344H21.1719C20.5248 30.7344 20 31.2591 20 31.9062V67.0624C20 67.7095 20.5246 68.2343 21.1719 68.2343H36.3757L34.7739 81.6895C34.6974 82.332 35.1564 82.9152 35.7991 82.9916C36.4417 83.0681 37.0247 82.6092 37.1013 81.9664L38.7359 68.2343H48.8281V74.7968C48.8281 75.4439 49.3527 75.9686 49.9999 75.9686C50.6472 75.9686 51.1718 75.4439 51.1718 74.7968V68.2343H61.264L62.8987 81.9665C62.9753 82.6092 63.5583 83.0683 64.2009 82.9917C64.8436 82.9153 65.3025 82.3321 65.2261 81.6896L63.6242 68.2343H78.828C79.4752 68.2343 79.9999 67.7095 79.9999 67.0624V31.9062C79.9999 31.2591 79.4752 30.7344 78.828 30.7344ZM44.0151 25.3437H55.985L56.5976 30.7344H43.4024L44.0151 25.3437ZM77.6561 65.8905H22.3437V33.0781H77.6561V65.8905Z" fill="white"/>
<path d="M39.4531 37.7656C32.9914 37.7656 27.7344 43.0225 27.7344 49.4844C27.7344 55.9462 32.9914 61.2031 39.4531 61.2031C45.9148 61.2031 51.1719 55.9462 51.1719 49.4844C51.1719 43.0225 45.915 37.7656 39.4531 37.7656ZM39.4531 58.8594C34.2838 58.8594 30.0781 54.6537 30.0781 49.4844C30.0781 44.712 33.6632 40.764 38.2812 40.1852V49.4844C38.2812 50.1315 38.8059 50.6563 39.4531 50.6551H48.7523C48.1735 55.2741 44.2255 58.8594 39.4531 58.8594Z" fill="white"/>
<path d="M57.0312 37.7656C56.384 37.7656 55.8594 38.2904 55.8594 38.9375C55.8594 39.5846 56.384 40.1094 57.0312 40.1094H71.0938C71.741 40.1094 72.2656 39.5846 72.2656 38.9375C72.2656 38.2904 71.741 37.7656 71.0938 37.7656H57.0312Z" fill="white"/>
<path d="M71.0938 44.7969H57.0312C56.384 44.7969 55.8594 45.3216 55.8594 45.9688C55.8594 46.6159 56.384 47.1406 57.0312 47.1406H71.0938C71.741 47.1406 72.2656 46.6159 72.2656 45.9688C72.2656 45.3216 71.741 44.7969 71.0938 44.7969Z" fill="white"/>
<path d="M71.0938 51.8281H57.0312C56.384 51.8281 55.8594 52.3529 55.8594 53C55.8594 53.6471 56.384 54.1719 57.0312 54.1719H71.0938C71.741 54.1719 72.2656 53.6471 72.2656 53C72.2656 52.3529 71.741 51.8281 71.0938 51.8281Z" fill="white"/>
<path d="M71.0938 58.8594H57.0312C56.384 58.8594 55.8594 59.3841 55.8594 60.0312C55.8594 60.6784 56.384 61.2031 57.0312 61.2031H71.0938C71.741 61.2031 72.2656 60.6784 72.2656 60.0312C72.2656 59.3841 71.741 58.8594 71.0938 58.8594Z" fill="white"/>
</g>
<defs>
<clipPath id="clip0">
<rect width="60" height="60" fill="white" transform="translate(20 23)"/>
</clipPath>
</defs>
</svg>
