<svg width="104" height="104" viewBox="0 0 104 104" fill="none" xmlns="http://www.w3.org/2000/svg">
<circle cx="52" cy="52" r="52" fill="#29B179"/>
<g clip-path="url(#clip0)">
<path d="M78.8283 66.0628H75.3126V40.2809C75.3126 38.3423 73.7354 36.7651 71.7969 36.7651H47.214C45.7628 32.6728 41.8536 29.7337 37.2701 29.7337C31.4544 29.7337 26.723 34.4652 26.723 40.2809C26.723 41.9071 27.0932 43.4485 27.7534 44.8255L21.0283 51.5506C19.6575 52.9214 19.6575 55.1518 21.0283 56.5227C21.7138 57.208 22.614 57.5507 23.5143 57.5507C24.4146 57.5507 25.3149 57.208 26.0003 56.5227L30.7801 51.7429V66.0628H27.2644C26.6172 66.0628 26.0925 66.5875 26.0925 67.2347V73.0943C26.0925 73.7415 26.6172 74.2662 27.2644 74.2662H78.8283C79.4756 74.2662 80.0002 73.7415 80.0002 73.0943V67.2347C80.0002 66.5875 79.4756 66.0628 78.8283 66.0628ZM37.2701 32.0775C41.7935 32.0775 45.4735 35.7575 45.4735 40.2809C45.4735 44.8042 41.7935 48.4842 37.2701 48.4842C32.7468 48.4842 29.0668 44.8042 29.0668 40.2809C29.0668 35.7575 32.7468 32.0775 37.2701 32.0775ZM24.343 54.8654C23.8861 55.3223 23.1426 55.3223 22.6856 54.8654C22.2287 54.4084 22.2287 53.665 22.6856 53.2081L29.0333 46.8604C29.5229 47.472 30.079 48.0281 30.6906 48.5177L24.343 54.8654ZM33.1239 49.9783C34.3973 50.5249 35.7989 50.828 37.2701 50.828C43.0858 50.828 47.8173 46.0966 47.8173 40.2809C47.8173 39.8848 47.7946 39.4939 47.7518 39.109H71.7969C72.4431 39.109 72.9688 39.6347 72.9688 40.2809V66.0628H33.1239V49.9783ZM77.6564 71.9224H28.4363V68.4066H77.6564V71.9224Z" fill="white"/>
<path d="M37.2698 44.7927C39.6969 44.7927 41.6644 42.8251 41.6644 40.398C41.6644 37.9709 39.6969 36.0034 37.2698 36.0034C34.8427 36.0034 32.8751 37.9709 32.8751 40.398C32.8751 42.8251 34.8427 44.7927 37.2698 44.7927Z" fill="white"/>
<path d="M46.015 62.5471C47.3094 62.5471 48.3588 61.4977 48.3588 60.2032V55.5156C48.3588 54.2211 47.3094 53.1718 46.015 53.1718C44.7205 53.1718 43.6711 54.2211 43.6711 55.5156V60.2032C43.6711 61.4977 44.7205 62.5471 46.015 62.5471Z" fill="white"/>
<path d="M53.0461 62.5471C54.3406 62.5471 55.3899 61.4978 55.3899 60.2033V50.828C55.3899 49.5335 54.3406 48.4842 53.0461 48.4842C51.7516 48.4842 50.7023 49.5335 50.7023 50.828V60.2033C50.7023 61.4978 51.7516 62.5471 53.0461 62.5471Z" fill="white"/>
<path d="M60.0782 62.5471C61.3727 62.5471 62.422 61.4978 62.422 60.2033V57.8595C62.422 56.565 61.3727 55.5157 60.0782 55.5157C58.7837 55.5157 57.7344 56.565 57.7344 57.8595V60.2033C57.7344 61.4978 58.7837 62.5471 60.0782 62.5471Z" fill="white"/>
<path d="M68.7497 47.3123H64.5308C63.8835 47.3123 63.3589 47.8369 63.3589 48.4842C63.3589 49.1314 63.8835 49.6561 64.5308 49.6561H68.7497C69.3969 49.6561 69.9216 49.1314 69.9216 48.4842C69.9216 47.8369 69.3969 47.3123 68.7497 47.3123Z" fill="white"/>
<path d="M68.7497 42.6246H60.5463C59.8991 42.6246 59.3744 43.1493 59.3744 43.7965C59.3744 44.4438 59.8991 44.9684 60.5463 44.9684H68.7497C69.3969 44.9684 69.9216 44.4438 69.9216 43.7965C69.9216 43.1493 69.3969 42.6246 68.7497 42.6246Z" fill="white"/>
</g>
<defs>
<clipPath id="clip0">
<rect width="60" height="60" fill="white" transform="translate(20 22)"/>
</clipPath>
</defs>
</svg>
