<svg width="90" height="90" viewBox="0 0 90 90" fill="none" xmlns="http://www.w3.org/2000/svg">
<circle cx="45" cy="45" r="45" fill="#1378BA"/>
<g clip-path="url(#clip0)">
<path d="M46.4118 41.4721C51.5129 40.8331 55.5671 36.7789 56.2061 31.6778H69V28.8543H56.2061C54.2345 15.7475 35.7605 15.7572 33.794 28.8543H21V31.6778H33.794C34.4329 36.7788 38.4871 40.8331 43.5882 41.4721V44.2695L40.2187 47.639C33.2296 40.6526 20.9752 45.6865 21.0001 55.6779C21 61.9053 26.0665 66.9718 32.2941 66.9718C40.9817 67.0566 46.5112 57.2207 41.9784 49.8723L45 46.8507L48.0216 49.8723C43.4892 57.2205 49.0182 67.0575 57.706 66.9717C63.9335 66.9718 69 61.9053 69 55.6777C69.0233 45.6857 56.7704 40.6524 49.7813 47.6389L46.4118 44.2694V41.4721ZM43.5882 28.8542C43.5882 28.0757 44.2216 27.4424 45 27.4424C46.8729 27.52 46.8724 30.1887 45 30.266C44.2216 30.266 43.5882 29.6327 43.5882 28.8542ZM45 33.0895C47.3353 33.0895 49.2353 34.9894 49.2353 37.3248V37.5994C46.7798 39.1001 43.2202 39.1001 40.7647 37.5994V37.3248C40.7647 34.9894 42.6647 33.0895 45 33.0895ZM36.5294 30.266C36.5294 25.5953 40.3293 21.7954 45 21.7954C51.941 21.759 55.9525 29.8763 51.7744 35.3455C51.2592 33.5853 50.076 32.1088 48.5183 31.2093C50.4019 28.4502 48.3645 24.599 45 24.619C41.6358 24.5989 39.5978 28.4509 41.4818 31.2093C39.9241 32.1089 38.7409 33.5853 38.2257 35.3455C37.161 33.9293 36.5294 32.17 36.5294 30.266ZM28.0588 63.0112V62.7365C28.2921 57.1165 36.2983 57.1208 36.5294 62.7365V63.0112C34.0739 64.512 30.5144 64.5119 28.0588 63.0112ZM30.8824 54.266C30.8824 53.4874 31.5157 52.8542 32.2941 52.8542C34.1671 52.9317 34.1665 55.6004 32.2941 55.6777C31.5157 55.6777 30.8824 55.0445 30.8824 54.266ZM39.0684 60.7573C38.5532 58.9971 37.3701 57.5205 35.8123 56.6211C37.6959 53.862 35.6585 50.0108 32.294 50.0308C28.9298 50.0107 26.8919 53.8627 28.7758 56.6211C27.2182 57.5206 26.0349 58.9971 25.5197 60.7573C21.3417 55.2865 25.3534 47.171 32.2942 47.2072C39.2344 47.1708 43.247 55.2878 39.0684 60.7573ZM53.4706 63.0112V62.7365C53.7039 57.1165 61.71 57.1208 61.9412 62.7365V63.0112C59.4856 64.512 55.9261 64.5119 53.4706 63.0112ZM56.2941 54.266C56.2941 53.4874 56.9274 52.8542 57.7059 52.8542C59.5788 52.9317 59.5783 55.6004 57.7059 55.6777C56.9274 55.6777 56.2941 55.0445 56.2941 54.266ZM57.7059 47.2071C64.6482 47.1715 68.6577 55.288 64.4803 60.7573C63.9651 58.9971 62.7819 57.5205 61.2242 56.6211C63.1078 53.862 61.0704 50.0108 57.7059 50.0308C54.3417 50.0107 52.3037 53.8627 54.1877 56.6211C52.63 57.5206 51.4468 58.9971 50.9316 60.7573C46.7527 55.2862 50.7665 47.1707 57.7059 47.2071Z" fill="white"/>
<ellipse cx="45" cy="36.5" rx="5" ry="4.5" fill="white"/>
</g>
<defs>
<clipPath id="clip0">
<rect width="48" height="48" fill="white" transform="translate(21 19)"/>
</clipPath>
</defs>
</svg>
