<svg width="60" height="60" viewBox="0 0 60 60" fill="none" xmlns="http://www.w3.org/2000/svg">
<path d="M51.0938 12.4219H45.2344V8.20312C45.2344 7.89234 45.1109 7.59422 44.8911 7.37449L37.8599 0.343242C37.6402 0.123516 37.342 0 37.0312 0H15.9375C15.2903 0 14.7656 0.524648 14.7656 1.17188V12.4219H8.90625C6.96773 12.4219 5.39062 13.999 5.39062 15.9375V48.75C5.39062 50.6885 6.96773 52.2656 8.90625 52.2656H24.1406V57.6562H20.625C19.9778 57.6562 19.4531 58.1809 19.4531 58.8281C19.4531 59.4754 19.9778 60 20.625 60H39.375C40.0222 60 40.5469 59.4754 40.5469 58.8281C40.5469 58.1809 40.0222 57.6562 39.375 57.6562H35.8594V52.2656H51.0938C53.0323 52.2656 54.6094 50.6885 54.6094 48.75V15.9375C54.6094 13.999 53.0323 12.4219 51.0938 12.4219ZM38.2031 4.00102L41.2334 7.03125H38.2031V4.00102ZM17.1094 2.34375H35.8594V8.20312C35.8594 8.85035 36.384 9.375 37.0312 9.375H42.8906V35.1562H17.1094V2.34375ZM8.90625 14.7656H14.7656V36.3281C14.7656 36.9754 15.2903 37.5 15.9375 37.5H44.0625C44.7097 37.5 45.2344 36.9754 45.2344 36.3281V14.7656H51.0938C51.7399 14.7656 52.2656 15.2913 52.2656 15.9375V40.5469H7.73438V15.9375C7.73438 15.2913 8.26008 14.7656 8.90625 14.7656ZM33.5156 57.6562H26.4844V52.2656H33.5156V57.6562ZM51.0938 49.9219H8.90625C8.26008 49.9219 7.73438 49.3962 7.73438 48.75V42.8906H52.2656V48.75C52.2656 49.3962 51.7399 49.9219 51.0938 49.9219Z" fill="white"/>
<path d="M32.1094 45.2344H27.8906C27.2434 45.2344 26.7188 45.759 26.7188 46.4062C26.7188 47.0535 27.2434 47.5781 27.8906 47.5781H32.1094C32.7566 47.5781 33.2812 47.0535 33.2812 46.4062C33.2812 45.759 32.7566 45.2344 32.1094 45.2344Z" fill="white"/>
<path d="M22.9688 30.4688C24.2632 30.4688 25.3125 29.4195 25.3125 28.125V23.4375C25.3125 22.143 24.2632 21.0938 22.9688 21.0938C21.6743 21.0938 20.625 22.143 20.625 23.4375V28.125C20.625 29.4195 21.6743 30.4688 22.9688 30.4688Z" fill="white"/>
<path d="M30 30.4688C31.2945 30.4688 32.3438 29.4195 32.3438 28.125V18.75C32.3438 17.4555 31.2945 16.4062 30 16.4062C28.7055 16.4062 27.6562 17.4555 27.6562 18.75V28.125C27.6562 29.4195 28.7055 30.4688 30 30.4688Z" fill="white"/>
<path d="M37.0312 23.4375C35.7368 23.4375 34.6875 24.4868 34.6875 25.7812V28.125C34.6875 29.4195 35.7368 30.4688 37.0312 30.4688C38.3257 30.4688 39.375 29.4195 39.375 28.125V25.7812C39.375 24.4868 38.3257 23.4375 37.0312 23.4375Z" fill="white"/>
<path d="M21.0938 8.20312H25.3125C25.9597 8.20312 26.4844 7.67848 26.4844 7.03125C26.4844 6.38402 25.9597 5.85938 25.3125 5.85938H21.0938C20.4465 5.85938 19.9219 6.38402 19.9219 7.03125C19.9219 7.67848 20.4465 8.20312 21.0938 8.20312Z" fill="white"/>
<path d="M21.0938 12.8906H29.2969C29.9441 12.8906 30.4688 12.366 30.4688 11.7188C30.4688 11.0715 29.9441 10.5469 29.2969 10.5469H21.0938C20.4465 10.5469 19.9219 11.0715 19.9219 11.7188C19.9219 12.366 20.4465 12.8906 21.0938 12.8906Z" fill="white"/>
</svg>
