<svg width="90" height="90" viewBox="0 0 90 90" fill="none" xmlns="http://www.w3.org/2000/svg">
<circle cx="45" cy="45" r="45" fill="#1378BA"/>
<path d="M45 27.5625C37.5044 27.5625 31.4062 33.6607 31.4062 41.1562C31.4062 48.6518 37.5044 54.75 45 54.75C52.4956 54.75 58.5938 48.6518 58.5938 41.1562C58.5938 33.6607 52.4956 27.5625 45 27.5625ZM45 51.9375C39.0552 51.9375 34.2188 47.101 34.2188 41.1562C34.2188 35.2115 39.0552 30.375 45 30.375C50.9448 30.375 55.7812 35.2115 55.7812 41.1562C55.7812 47.101 50.9448 51.9375 45 51.9375Z" fill="white"/>
<path d="M48.3299 36.9773L43.725 41.6075L41.6623 39.5656L39.6837 41.5645L43.7406 45.5803L50.3241 38.9605L48.3299 36.9773Z" fill="white"/>
<path d="M65.1562 41.1562C65.1562 39.283 64.3127 37.5412 62.841 36.3741C63.5329 34.6307 63.3925 32.7004 62.4559 31.078C61.5192 29.4557 59.9177 28.369 58.0597 28.0942C57.7871 26.2386 56.7005 24.637 55.0781 23.7004C53.4558 22.7638 51.5254 22.6234 49.779 23.3145C48.6152 21.8436 46.8732 21 45 21C43.1268 21 41.3848 21.8436 40.2178 23.3153C38.4743 22.6234 36.5439 22.7639 34.9219 23.7005C33.2995 24.6371 32.2129 26.2386 31.9381 28.0967C30.0824 28.3691 28.4809 29.4558 27.5442 31.0781C26.6076 32.7005 26.4672 34.6308 27.1583 36.3773C25.6873 37.5412 24.8438 39.283 24.8438 41.1562C24.8438 43.0295 25.6873 44.7713 27.159 45.9384C26.4671 47.6818 26.6075 49.6121 27.5441 51.2345C28.4808 52.8567 30.0822 53.9435 31.9403 54.2183C32.2129 56.074 33.2996 57.6755 34.9219 58.6121C35.2978 58.8292 35.6908 59.0016 36.0938 59.1326V69H38.6812L45 66.7433L51.3188 69H53.9062V59.1326C54.3092 59.0016 54.7022 58.8292 55.0781 58.6121C56.7004 57.6756 57.7871 56.074 58.062 54.2159C59.9177 53.9434 61.5191 52.8566 62.4558 51.2345C63.3924 49.6121 63.5328 47.6818 62.8418 45.9353C64.3127 44.7713 65.1562 43.0295 65.1562 41.1562ZM51.0938 65.9331L45 63.7567L38.9062 65.9331V59.357C39.3507 59.2871 39.7914 59.168 40.221 58.998C41.3848 60.4689 43.1268 61.3125 45 61.3125C46.8732 61.3125 48.6152 60.4689 49.7822 58.9972C50.2105 59.1672 50.6502 59.2864 51.0938 59.3564V65.9331ZM61.0966 43.7297C60.1142 44.5071 59.7646 45.8116 60.2268 46.976C60.5997 47.9153 60.5243 48.9549 60.0202 49.8281C59.516 50.7013 58.6533 51.2864 57.6534 51.4332C56.414 51.6152 55.459 52.5701 55.277 53.8096C55.1302 54.8095 54.5451 55.6722 53.6719 56.1764C52.7988 56.6805 51.7589 56.7559 50.8197 56.3831C49.6553 55.9209 48.3508 56.2705 47.5734 57.2529C46.9463 58.0454 46.0084 58.5 45 58.5C43.9916 58.5 43.0537 58.0454 42.4266 57.2528C41.8779 56.5595 41.0667 56.1814 40.2275 56.1814C39.8777 56.1814 39.5228 56.2471 39.1804 56.383C38.241 56.7559 37.2014 56.6804 36.3281 56.1764C35.4549 55.6723 34.8698 54.8095 34.723 53.8097C34.5411 52.5702 33.586 51.6152 32.3467 51.4332C31.3467 51.2864 30.484 50.7013 29.9798 49.8281C29.4757 48.9549 29.4003 47.9153 29.7732 46.976C30.2354 45.8116 29.8857 44.5071 28.9034 43.7297C28.1108 43.1025 27.6562 42.1645 27.6562 41.1562C27.6562 40.148 28.1108 39.21 28.9034 38.5828C29.8858 37.8054 30.2354 36.5009 29.7732 35.3365C29.4003 34.3972 29.4757 33.3576 29.9798 32.4844C30.484 31.6111 31.3467 31.0261 32.3466 30.8793C33.586 30.6973 34.5411 29.7424 34.723 28.5029C34.8698 27.5029 35.4549 26.6403 36.3281 26.1361C37.2014 25.6319 38.241 25.5567 39.1804 25.9295C40.345 26.3916 41.6494 26.0419 42.4266 25.0596C43.0537 24.2671 43.9916 23.8125 45 23.8125C46.0084 23.8125 46.9463 24.2671 47.5734 25.0597C48.3506 26.0419 49.6552 26.3916 50.8196 25.9295C51.7591 25.5567 52.7985 25.6319 53.6719 26.1361C54.5451 26.6403 55.1302 27.503 55.277 28.5029C55.4588 29.7424 56.414 30.6973 57.6534 30.8793C58.6533 31.0261 59.516 31.6112 60.0202 32.4844C60.5243 33.3576 60.5997 34.3972 60.2268 35.3365C59.7646 36.5009 60.1143 37.8054 61.0966 38.5828C61.8892 39.21 62.3438 40.148 62.3438 41.1562C62.3438 42.1645 61.8892 43.1025 61.0966 43.7297Z" fill="white"/>
<path d="M45.0001 65.5L38.5 68C38.2146 65.4314 37.7582 60.5903 37.8838 59L39.5001 58C40.3335 58.3333 42.1001 59.1 42.5001 59.5C42.9001 59.9 44.6668 59.6667 45.5001 59.5L49.0001 58L51.5001 58.5V68L45.0001 65.5Z" fill="white"/>
<path d="M36 71V59H54V71L45 67L36 71Z" fill="white"/>
</svg>
