<svg width="25" height="25" viewBox="0 0 25 25" fill="none" xmlns="http://www.w3.org/2000/svg">
<path fill-rule="evenodd" clip-rule="evenodd" d="M20.8333 16.1458C19.5312 16.1458 18.2812 15.9375 17.1146 15.5521C17.0104 15.5208 16.8958 15.5 16.7917 15.5C16.5208 15.5 16.2604 15.6042 16.0521 15.8021L13.7604 18.0937C10.8125 16.5937 8.39583 14.1875 6.89583 11.2396L9.1875 8.9375C9.47917 8.65625 9.5625 8.25 9.44792 7.88542C9.0625 6.71875 8.85417 5.46875 8.85417 4.16667C8.85417 3.59375 8.38542 3.125 7.8125 3.125H4.16667C3.59375 3.125 3.125 3.59375 3.125 4.16667C3.125 13.9479 11.0521 21.875 20.8333 21.875C21.4062 21.875 21.875 21.4062 21.875 20.8333V17.1875C21.875 16.6146 21.4062 16.1458 20.8333 16.1458ZM13.5417 9.375H11.4583V11.4583H13.5417V9.375ZM17.7083 9.375H15.625V11.4583H17.7083V9.375ZM6.80207 5.20833H5.23957C5.33332 6.58333 5.60416 7.90625 6.03124 9.16666L7.28124 7.90625C7.03124 7.03125 6.87499 6.125 6.80207 5.20833ZM19.7917 19.7604C18.4167 19.6667 17.0833 19.3958 15.8333 18.9687L17.0833 17.7187C17.9688 17.9687 18.875 18.125 19.7917 18.1875V19.7604ZM21.875 9.375H19.7917V11.4583H21.875V9.375Z" fill="url(#paint0_linear)"/>
<defs>
<linearGradient id="paint0_linear" x1="3.84085" y1="10.6873" x2="22.4452" y2="10.6873" gradientUnits="userSpaceOnUse">
<stop stop-color="#1378BA"/>
<stop offset="1" stop-color="#2BB673"/>
</linearGradient>
</defs>
</svg>
