<svg width="90" height="90" viewBox="0 0 90 90" fill="none" xmlns="http://www.w3.org/2000/svg">
<circle cx="45" cy="45" r="45" fill="#1378BA"/>
<path d="M50.5551 41.8407L66.9893 34.7979C63.0275 33.6093 23.2146 21.6653 21 21.001C21.0034 21.0121 34.3875 65.6255 34.7969 66.9903L41.8407 50.5561L52.734 52.735L50.5551 41.8407ZM58.7586 35.2648L49.1132 39.3984L31.1995 26.9966L58.7586 35.2648ZM35.2638 58.7596L26.9956 31.1996L39.3974 49.1132L35.2638 58.7596ZM41.8303 47.6854L28.6569 28.657L47.6844 41.8304L49.1488 49.1498L41.8303 47.6854Z" fill="white"/>
<path d="M49 41L22.5 23.5L41 49L51 51.5L49 41Z" fill="white"/>
<path d="M54.9121 56.9084L56.9006 54.9199L68.9912 67.0104L67.0026 68.999L54.9121 56.9084Z" fill="white"/>
<path d="M56.9014 46.9656L58.8899 44.977L68.8325 54.9197L66.844 56.9082L56.9014 46.9656Z" fill="white"/>
<path d="M44.9678 58.8958L46.9563 56.9072L56.8989 66.8499L54.9104 68.8384L44.9678 58.8958Z" fill="white"/>
</svg>
