<svg width="90" height="90" viewBox="0 0 90 90" fill="none" xmlns="http://www.w3.org/2000/svg">
<circle cx="45" cy="45" r="45" fill="#1378BA"/>
<path d="M45 21C31.736 21 21 31.7342 21 45C21 58.264 31.7342 69 45 69C58.264 69 69 58.2658 69 45C69 31.736 58.2658 21 45 21ZM66.1283 43.5882H61.8819C61.2007 35.3707 54.6293 28.7993 46.4118 28.1181V23.8717C56.9659 24.5699 65.4301 33.0341 66.1283 43.5882ZM45 59.1176C37.2155 59.1176 30.8824 52.7845 30.8824 45C30.8824 37.2155 37.2155 30.8824 45 30.8824C52.7845 30.8824 59.1176 37.2155 59.1176 45C59.1176 52.7845 52.7845 59.1176 45 59.1176ZM43.5882 23.8717V28.1181C35.3707 28.7993 28.7993 35.3707 28.1181 43.5882H23.8717C24.5699 33.0341 33.0341 24.5699 43.5882 23.8717ZM23.8717 46.4118H28.1181C28.7993 54.6294 35.3707 61.2007 43.5882 61.8819V66.1283C33.0341 65.4301 24.5699 56.9659 23.8717 46.4118ZM46.4118 66.1283V61.8819C54.6293 61.2007 61.2007 54.6293 61.8819 46.4118H66.1283C65.4301 56.9659 56.9659 65.4301 46.4118 66.1283Z" fill="white"/>
<path d="M52.0591 39.3531H46.412V36.5295H37.9414V46.4119H35.1179V49.2354H54.8826V46.4119H52.0591V39.3531ZM40.765 46.4119V39.3531H43.5885V46.4119H40.765ZM46.412 46.4119V42.1766H49.2356V46.4119H46.412Z" fill="white"/>
<path d="M40.7642 52.0588H49.2348V54.8824H40.7642V52.0588Z" fill="white"/>
</svg>
