<svg width="90" height="90" viewBox="0 0 90 90" fill="none" xmlns="http://www.w3.org/2000/svg">
<circle cx="45" cy="45" r="45" fill="#1378BA"/>
<path d="M45.0003 21C35.9184 21 28.5297 28.3887 28.5297 37.4706C28.5297 43.4477 31.7203 48.592 36.5297 51.4707V54.8824H33.7061V57.7059H36.5297V63.3529H39.3532V69H50.6473V63.3529H53.4708V57.7059H56.2944V54.8824H53.4708V51.4707C58.2841 48.5897 61.4708 43.4431 61.4708 37.4706C61.4708 28.3887 54.0821 21 45.0003 21V21ZM47.8238 66.1765H42.1767V63.3529H47.8238V66.1765ZM50.6473 60.5294H39.3532V57.7059H50.6473V60.5294ZM39.3532 54.8824V52.0588H50.6473V54.8824H39.3532ZM40.9354 36.8116L43.5885 33.4952V37.9412H46.412V33.4952L49.0652 36.8116L46.8063 43.5882H43.1943L40.9354 36.8116ZM43.5885 46.4118H46.412V49.2353H43.5885V46.4118ZM51.6949 49.2353H49.2355V45.2292L52.2294 36.2472L45.0003 27.2106L37.771 36.2472L40.765 45.2292V49.2353H38.3056C34.0089 46.8152 31.3532 42.339 31.3532 37.4706C31.3532 29.9456 37.4753 23.8235 45.0003 23.8235C52.5252 23.8235 58.6473 29.9456 58.6473 37.4706C58.6473 42.339 55.9916 46.8152 51.6949 49.2353Z" fill="white"/>
<path d="M59.3556 24.241L62.3499 21.2466L64.3462 23.2428L61.3518 26.2372L59.3556 24.241Z" fill="white"/>
<path d="M25.645 52.6409L28.6393 49.6466L30.6355 51.6428L27.6413 54.6371L25.645 52.6409Z" fill="white"/>
<path d="M64.7642 36.5295H68.9995V39.3531H64.7642V36.5295Z" fill="white"/>
<path d="M21 36.5295H25.2353V39.3531H21V36.5295Z" fill="white"/>
<path d="M59.3523 51.6462L61.3485 49.65L64.3428 52.6443L62.3466 54.6405L59.3523 51.6462Z" fill="white"/>
<path d="M25.6481 23.2393L27.6443 21.243L30.6387 24.2374L28.6424 26.2336L25.6481 23.2393Z" fill="white"/>
<rect x="39" y="52" width="12" height="17" fill="white"/>
</svg>
