<svg width="90" height="90" viewBox="0 0 90 90" fill="none" xmlns="http://www.w3.org/2000/svg">
<circle cx="45" cy="45" r="45" fill="#1378BA"/>
<g clip-path="url(#clip0)">
<path d="M50.6547 20.0354C40.5391 20.0354 32.3094 28.2651 32.3094 38.3807C32.3094 42.9136 33.9629 47.067 36.6971 50.2717L34.4065 52.5623L32.4108 50.5666L21 61.9774L26.9871 67.9646L38.3979 56.5538L36.4022 54.5581L38.6869 52.2734C41.9019 55.0468 46.0858 56.7261 50.6548 56.7261C60.7704 56.7261 69.0001 48.4964 69.0001 38.3808C69.0001 28.2652 60.7704 20.0354 50.6547 20.0354ZM26.9871 63.9731L24.9915 61.9774L32.4108 54.5581L34.4065 56.5538L26.9871 63.9731ZM50.6547 53.9036C42.0954 53.9036 35.1318 46.94 35.1318 38.3807C35.1318 29.8212 42.0954 22.8578 50.6547 22.8578C59.2141 22.8578 66.1777 29.8213 66.1777 38.3807C66.1777 46.94 59.2142 53.9036 50.6547 53.9036Z" fill="white"/>
<path d="M54.8884 28.5024H46.4213V35.5583H40.7766V45.4365H60.5331V32.736H54.8884V28.5024ZM46.4213 42.6142H43.599V38.3807H46.4213V42.6142ZM52.066 42.6142H49.2437V35.5583V31.3248H52.066V32.736V42.6142ZM57.7107 35.5583V42.6142H54.8884V35.5583H57.7107Z" fill="white"/>
</g>
<defs>
<clipPath id="clip0">
<rect width="48" height="48" fill="white" transform="translate(21 20)"/>
</clipPath>
</defs>
</svg>
