<svg width="60" height="60" viewBox="0 0 60 60" fill="none" xmlns="http://www.w3.org/2000/svg">
<g clip-path="url(#clip0)">
<path d="M58.8281 0H1.17188C0.524766 0 0 0.524766 0 1.17188V44.0625C0 44.7096 0.524766 45.2344 1.17188 45.2344H21.2348C22.0044 46.3819 22.9931 47.3706 24.1406 48.1402V58.8281C24.1406 59.2343 24.351 59.6115 24.6964 59.825C25.0419 60.0384 25.4734 60.058 25.8366 59.8764L30 57.7946L34.1634 59.8764C34.5258 60.0577 34.9575 60.0389 35.3036 59.825C35.649 59.6115 35.8594 59.2343 35.8594 58.8281V48.1402C37.0069 47.3706 37.9956 46.3819 38.7652 45.2344H58.8281C59.4752 45.2344 60 44.7096 60 44.0625V1.17188C60 0.524766 59.4754 0 58.8281 0ZM30 47.5781C25.4768 47.5781 21.7969 43.8982 21.7969 39.375C21.7969 34.8518 25.4768 31.1719 30 31.1719C34.5232 31.1719 38.2031 34.8518 38.2031 39.375C38.2031 43.8982 34.5232 47.5781 30 47.5781ZM30 28.8281C25.4167 28.8281 21.5075 31.7672 20.0564 35.8594H9.375V9.375H50.625V35.8594H39.9436C38.4925 31.7672 34.5833 28.8281 30 28.8281ZM33.5156 56.9319L30.5241 55.4361C30.1943 55.2711 29.8058 55.2711 29.4761 55.4361L26.4844 56.9319V49.3186C27.5845 49.7087 28.7678 49.9219 30 49.9219C31.2322 49.9219 32.4155 49.7087 33.5156 49.3186V56.9319ZM57.6562 42.8906H39.9436C40.3337 41.7905 40.5469 40.6072 40.5469 39.375C40.5469 38.9789 40.5241 38.588 40.4814 38.2031H51.7969C52.444 38.2031 52.9688 37.6784 52.9688 37.0312V8.20312C52.9688 7.55602 52.444 7.03125 51.7969 7.03125H8.20312C7.55602 7.03125 7.03125 7.55602 7.03125 8.20312V37.0312C7.03125 37.6784 7.55602 38.2031 8.20312 38.202H19.5186C19.4759 38.588 19.4531 38.9789 19.4531 39.375C19.4531 40.6072 19.6663 41.7905 20.0564 42.8906H2.34375V2.34375H57.6562V42.8906Z" fill="white"/>
<path d="M30 35.8594C28.0615 35.8594 26.4844 37.4365 26.4844 39.375C26.4844 41.3135 28.0615 42.8906 30 42.8906C31.9385 42.8906 33.5156 41.3135 33.5156 39.375C33.5156 37.4365 31.9385 35.8594 30 35.8594Z" fill="white"/>
<path d="M44.0625 14.0625H15.9375C15.2904 14.0625 14.7656 14.5873 14.7656 15.2344C14.7656 15.8815 15.2904 16.4062 15.9375 16.4062H44.0625C44.7096 16.4062 45.2344 15.8815 45.2344 15.2344C45.2344 14.5873 44.7097 14.0625 44.0625 14.0625Z" fill="white"/>
<path d="M37.0312 21.0938H22.9688C22.3216 21.0938 21.7969 21.6185 21.7969 22.2656C21.7969 22.9127 22.3216 23.4375 22.9688 23.4375H37.0312C37.6784 23.4375 38.2031 22.9127 38.2031 22.2656C38.2031 21.6185 37.6785 21.0938 37.0312 21.0938Z" fill="white"/>
</g>
<defs>
<clipPath id="clip0">
<rect width="60" height="60" fill="white"/>
</clipPath>
</defs>
</svg>
