<svg width="60" height="60" viewBox="0 0 60 60" fill="none" xmlns="http://www.w3.org/2000/svg">
<path d="M44.9258 48.5599C43.2641 47.7668 41.1183 47.1258 38.6421 46.6743C39.3647 45.9259 40.1037 45.1255 40.8443 44.276C43.8026 40.8827 46.1631 37.4157 47.8602 33.9714C50.0059 29.617 51.0938 25.2845 51.0938 21.0938C51.0938 9.46266 41.6311 0 30 0C18.3689 0 8.90625 9.46266 8.90625 21.0938C8.90625 25.2845 9.9941 29.617 12.1398 33.9714C13.8369 37.4157 16.1974 40.8827 19.1557 44.276C19.8963 45.1256 20.6353 45.9259 21.3579 46.6743C18.8817 47.1258 16.7359 47.7669 15.0742 48.5599C11.9134 50.0684 11.25 51.79 11.25 52.9688C11.25 54.4613 12.2823 56.5845 17.1997 58.2237C20.6362 59.3692 25.1821 60 30 60C34.8179 60 39.3638 59.3692 42.8003 58.2237C47.7177 56.5845 48.75 54.4613 48.75 52.9688C48.75 51.79 48.0866 50.0684 44.9258 48.5599ZM11.25 21.0938C11.25 10.7549 19.6611 2.34375 30 2.34375C40.3389 2.34375 48.75 10.7549 48.75 21.0938C48.75 29.7943 43.5089 37.6434 39.1124 42.6959C35.3355 47.036 31.5128 50.1183 30 51.274C28.4868 50.1179 24.6641 47.0357 20.8876 42.6959C16.4911 37.6434 11.25 29.7943 11.25 21.0938ZM42.0589 56.0002C38.8553 57.0681 34.5727 57.6562 30 57.6562C25.4273 57.6562 21.1447 57.0681 17.9411 56.0002C14.7323 54.9306 13.5938 53.6987 13.5938 52.9688C13.5938 51.7514 16.6477 49.6547 23.418 48.7179C24.4207 49.6709 25.3545 50.5004 26.1703 51.1949C24.9272 51.6244 24.1406 52.2594 24.1406 52.9688C24.1406 54.2637 26.7645 55.3125 30 55.3125C33.2355 55.3125 35.8594 54.2637 35.8594 52.9688C35.8594 52.2594 35.0728 51.6244 33.8297 51.1949C34.6455 50.5004 35.5792 49.6709 36.582 48.7179C43.3523 49.6547 46.4062 51.7514 46.4062 52.9688C46.4062 53.6987 45.2677 54.9306 42.0589 56.0002Z" fill="white"/>
<path d="M46.4062 21.0938C46.4062 12.0473 39.0464 4.6875 30 4.6875C20.9536 4.6875 13.5938 12.0473 13.5938 21.0938C13.5938 30.1402 20.9536 37.5 30 37.5C39.0464 37.5 46.4062 30.1402 46.4062 21.0938ZM21.3717 32.1902C22.833 28.7549 26.2287 26.4844 30 26.4844C33.7713 26.4844 37.167 28.7549 38.6283 32.1902C36.2445 34.048 33.2494 35.1562 30 35.1562C26.7506 35.1562 23.7555 34.048 21.3717 32.1902ZM26.4844 20.625C26.4844 18.6865 28.0615 17.1094 30 17.1094C31.9385 17.1094 33.5156 18.6865 33.5156 20.625C33.5156 22.5635 31.9385 24.1406 30 24.1406C28.0615 24.1406 26.4844 22.5635 26.4844 20.625ZM15.9375 21.0938C15.9375 13.3397 22.2459 7.03125 30 7.03125C37.7541 7.03125 44.0625 13.3397 44.0625 21.0938C44.0625 24.7148 42.6865 28.0205 40.4302 30.5157C39.0759 27.8756 36.7754 25.869 34.0411 24.8617C35.16 23.794 35.8594 22.2901 35.8594 20.625C35.8594 17.3941 33.2309 14.7656 30 14.7656C26.7691 14.7656 24.1406 17.3941 24.1406 20.625C24.1406 22.2901 24.84 23.794 25.9589 24.8618C23.2246 25.869 20.9241 27.8757 19.5698 30.5159C17.3136 28.0205 15.9375 24.7148 15.9375 21.0938Z" fill="white"/>
</svg>
