<svg width="90" height="90" viewBox="0 0 90 90" fill="none" xmlns="http://www.w3.org/2000/svg">
<circle cx="45" cy="45" r="45" fill="#1378BA"/>
<g clip-path="url(#clip0)">
<path d="M68.6778 22.4713L68.4983 21.4883L67.5165 21.3186C59.6775 19.9633 51.7542 23.0075 46.839 29.2629L45.4496 31.0313L41.9199 30.9347C39.4595 30.8681 37.0515 31.8268 35.3115 33.5668L30.1097 38.7686C30.1094 38.769 30.1091 38.7692 30.1087 38.7696L28.8263 40.052L30.8266 42.0524L32.109 40.77C33.6886 39.1904 35.9964 38.6173 38.1315 39.2739L38.8093 39.4824L37.4549 41.206L39.6449 43.3959L35.7546 47.2862L42.7995 54.3312L46.6898 50.4409L48.7914 52.5425L50.5161 51.1899L50.7243 51.8667C51.3811 54.0018 50.8079 56.3095 49.2283 57.8892L47.9459 59.1716L49.9462 61.1719L56.4315 54.6867C58.1714 52.9467 59.1308 50.538 59.0635 48.0783L58.9673 44.5623L60.7219 43.1864C66.9969 38.2652 70.0454 30.3277 68.6778 22.4713ZM66.0381 23.9614C66.181 25.1595 66.2065 26.3554 66.1218 27.5351C65.245 27.3239 64.4294 26.8763 63.7756 26.2225C63.1233 25.5702 62.6766 24.7561 62.4651 23.8809C63.6444 23.7953 64.8402 23.8198 66.0381 23.9614ZM38.9633 36.5699C38.2155 36.3398 37.4533 36.2136 36.6946 36.1844L37.312 35.567C38.5049 34.374 40.156 33.7174 41.8425 33.7625L43.2727 33.8016L40.6822 37.0985L38.9633 36.5699ZM42.7995 50.3303L39.7554 47.2861L41.6453 45.3962L44.6895 48.4404L42.7995 50.3303ZM56.2355 48.1556C56.2816 49.842 55.624 51.4933 54.4311 52.6862L53.8138 53.3036C53.7845 52.5449 53.6583 51.7827 53.4283 51.0349L52.9007 49.3199L56.1966 46.7351L56.2355 48.1556ZM58.9761 40.9601L49.0187 48.7689L41.2301 40.9801L49.0635 31.0107C51.7723 27.5633 55.5329 25.2402 59.6605 24.3007C59.9663 25.7677 60.6899 27.1377 61.7752 28.2229C62.8626 29.3103 64.235 30.0341 65.7044 30.339C64.766 34.4762 62.4366 38.2463 58.9761 40.9601Z" fill="white"/>
<path d="M42.5 31.5C40.5 32.5 36.3 34.7 35.5 35.5L35 37C37 37.6667 41.2 38.9 42 38.5C42.8 38.1 44.3333 34.6667 45 33L42.5 31.5Z" fill="white"/>
<path d="M57 45.5C55.5 46.3333 52.2 48.2 51 49L53.5 55.5C54.1667 55 55.7 54 56.5 54C57.3 54 58.1667 50.6667 58.5 49L57 45.5Z" fill="white"/>
<path d="M67 23H61L63.5 27.5L67 29V23Z" fill="white"/>
<path d="M42 52C41 50.8333 38.9 48.4 38.5 48L41 43.5L46.5 49L42 52Z" fill="white"/>
<path d="M52.029 31.7711C50.3203 33.4799 50.3203 36.2603 52.029 37.9692C52.8835 38.8236 54.0057 39.2508 55.128 39.2508C56.2503 39.2508 57.3727 38.8236 58.227 37.9691C59.9357 36.2603 59.9357 33.4799 58.227 31.7711C56.5184 30.0623 53.738 30.0622 52.029 31.7711ZM56.2268 35.9688C55.621 36.5745 54.6353 36.5745 54.0295 35.9688C53.4238 35.363 53.4238 34.3773 54.0295 33.7716C54.3325 33.4687 54.7303 33.3172 55.1282 33.3172C55.526 33.3172 55.924 33.4687 56.2268 33.7715C56.8325 34.3773 56.8325 35.363 56.2268 35.9688Z" fill="white"/>
<path d="M21.1396 58.325L23.1398 56.3249L25.1398 58.3249L23.1397 60.325L21.1396 58.325Z" fill="white"/>
<path d="M25.1492 54.3167L31.6539 47.8119L33.6539 49.812L27.1492 56.3167L25.1492 54.3167Z" fill="white"/>
<path d="M29.6641 66.8513L31.6641 64.8513L33.6641 66.8513L31.6641 68.8514L29.6641 66.8513Z" fill="white"/>
<path d="M33.6735 62.843L40.1782 56.3384L42.1782 58.3384L35.6736 64.8431L33.6735 62.843Z" fill="white"/>
<path d="M20.996 66.9939L32.8627 55.1272L34.8627 57.1273L22.9961 68.9939L20.996 66.9939Z" fill="white"/>
</g>
<defs>
<clipPath id="clip0">
<rect width="48" height="48" fill="white" transform="translate(21 21)"/>
</clipPath>
</defs>
</svg>
