<svg width="90" height="90" viewBox="0 0 90 90" fill="none" xmlns="http://www.w3.org/2000/svg">
<circle cx="45" cy="45" r="45" fill="#1378BA"/>
<path d="M31.4368 32.0608H38.9665V34.8733H31.4368V32.0608Z" fill="white"/>
<path d="M31.4368 37.7798H46.3972V40.5923H31.4368V37.7798Z" fill="white"/>
<path d="M31.4368 43.499H46.3972V46.3115H31.4368V43.499Z" fill="white"/>
<path d="M31.4368 49.218H46.3972V52.0305H31.4368V49.218Z" fill="white"/>
<path d="M66.7269 31.948C66.7269 25.9112 61.8157 21 55.7791 21C52.7461 21 49.9976 22.24 48.013 24.2394H23.2729L23.3987 59.2215C23.3987 64.6134 27.7852 69 33.177 69H57.3711V53.5155L61.2724 55.7342V41.4149C64.5314 39.5164 66.7269 35.984 66.7269 31.948ZM26.3169 60.4195C27.0201 60.7658 27.8005 60.9497 28.6124 60.9497H31.6357V63.7001C31.6357 64.572 31.8489 65.3945 32.2239 66.1208C29.2276 65.7087 26.8343 63.3847 26.3169 60.4195ZM36.9415 66.1875C35.5667 66.1875 34.4482 65.0716 34.4482 63.7V58.1371H28.6124C27.9688 58.1371 27.3702 57.8893 26.9265 57.4394C26.4553 56.9613 26.2013 56.3111 26.2113 55.6083L26.0955 27.0519H45.9892C45.249 28.5261 44.8314 30.1891 44.8314 31.948C44.8314 36.1355 47.1949 39.7807 50.6576 41.6216V55.7336L54.5587 53.5161V66.1875H36.9415ZM58.4599 50.8992L55.9661 49.481L53.4699 50.8999V42.6502C54.2147 42.8108 54.9871 42.8961 55.7792 42.8961C56.7038 42.8961 57.6017 42.7804 58.46 42.5636V50.8992H58.4599ZM55.7791 40.0835C51.2933 40.0835 47.6437 36.4339 47.6437 31.948C47.6437 27.4621 51.2933 23.8125 55.7791 23.8125C60.2649 23.8125 63.9144 27.462 63.9144 31.948C63.9144 36.434 60.2649 40.0835 55.7791 40.0835Z" fill="white"/>
<path d="M55.7792 26.6128C52.8374 26.6128 50.4442 29.0061 50.4442 31.948C50.4442 34.8898 52.8375 37.2831 55.7792 37.2831C58.7209 37.2831 61.1142 34.8898 61.1142 31.948C61.1142 29.0061 58.7209 26.6128 55.7792 26.6128ZM55.7792 34.4706C54.3882 34.4706 53.2566 33.3389 53.2566 31.9479C53.2566 30.5568 54.3882 29.4252 55.7792 29.4252C57.1701 29.4252 58.3018 30.5568 58.3018 31.9479C58.3018 33.3389 57.1702 34.4706 55.7792 34.4706Z" fill="white"/>
<circle cx="56" cy="32" r="10" fill="white"/>
</svg>
