<svg width="60" height="60" viewBox="0 0 60 60" fill="none" xmlns="http://www.w3.org/2000/svg">
<g clip-path="url(#clip0)">
<path d="M56.4844 9.37563H52.0949V8.43837C52.0949 6.16341 51.2 4.02919 49.5751 2.42899C47.9508 0.829149 45.8026 -0.0338203 43.5267 0.00192188C38.9463 0.0717656 35.2199 3.90579 35.2199 8.54876V9.37575H24.7801V8.43848C24.7801 6.16352 23.8853 4.0293 22.2604 2.42911C20.6361 0.829149 18.4918 -0.0338203 16.212 0.00192188C11.6316 0.0717656 7.90512 3.90579 7.90512 8.54876V9.37575H3.51562C1.57711 9.37575 0 10.9529 0 12.8914V56.4851C0 58.4236 1.57711 60.0008 3.51562 60.0008H56.4844C58.4229 60.0008 60 58.4236 60 56.4851V12.8914C60 10.9527 58.4229 9.37563 56.4844 9.37563ZM37.5636 8.54876C37.5636 5.17868 40.2547 2.39583 43.5623 2.34544C43.5942 2.34497 43.626 2.34462 43.6577 2.34462C45.2657 2.34462 46.7797 2.96548 47.9305 4.0988C49.1045 5.25509 49.751 6.79622 49.751 8.43837V9.37563H47.4073V8.50177C47.4073 6.44149 45.8231 4.7677 43.8011 4.69106C42.7747 4.65204 41.7987 5.02399 41.0575 5.73766C40.3158 6.4518 39.9074 7.41087 39.9074 8.43837V12.6569C39.9074 14.0144 40.6455 15.2698 41.8337 15.9331C42.2419 16.1608 42.4856 16.5536 42.4856 16.9837C42.4856 17.4029 42.2695 17.7822 41.9075 17.9986C41.7393 18.0992 41.2932 18.3033 40.7823 18.0286C38.797 16.9608 37.5636 14.9024 37.5636 12.6569V8.54876ZM42.2511 9.37563V8.43837C42.2511 8.05376 42.4046 7.69411 42.6832 7.42587C42.9613 7.15809 43.328 7.01864 43.7126 7.03317C44.4575 7.0613 45.0636 7.72001 45.0636 8.50165V9.37552H42.2511V9.37563ZM10.2489 8.54876C10.2489 5.17868 12.94 2.39583 16.2476 2.34544C16.2795 2.34497 16.3112 2.34462 16.343 2.34462C17.9509 2.34462 19.465 2.96548 20.6157 4.0988C21.7897 5.25509 22.4362 6.79622 22.4362 8.43837V9.37563H20.0925V8.50177C20.0925 6.44149 18.5084 4.7677 16.4863 4.69106C15.4582 4.65204 14.4839 5.02399 13.7427 5.73766C13.001 6.4518 12.5926 7.41087 12.5926 8.43837V12.6569C12.5926 14.0144 13.3308 15.2698 14.5189 15.9331C14.9271 16.1608 15.1709 16.5536 15.1709 16.9837C15.1709 17.4029 14.9548 17.7822 14.5928 17.9986C14.4245 18.0992 13.9784 18.3033 13.4675 18.0286C11.4823 16.9608 10.2489 14.9024 10.2489 12.6569V8.54876ZM14.9364 9.37563V8.43837C14.9364 8.05376 15.0899 7.69411 15.3684 7.42587C15.6466 7.15809 16.0123 7.01864 16.3978 7.03317C17.1428 7.0613 17.7489 7.72001 17.7489 8.50165V9.37552H14.9364V9.37563ZM3.51562 11.7194H7.90512V12.6569C7.90512 15.7665 9.61113 18.6157 12.3574 20.0928C12.8761 20.3717 13.4395 20.5106 14.0027 20.5106C14.6205 20.5106 15.2379 20.3433 15.795 20.0103C16.8717 19.3669 17.5145 18.2354 17.5145 16.9836C17.5145 15.7113 16.8043 14.5245 15.6613 13.8864C15.2142 13.6368 14.9364 13.1657 14.9364 12.6568V11.7193H35.2199V12.6568C35.2199 15.7663 36.9259 18.6156 39.6722 20.0927C40.1909 20.3716 40.7543 20.5104 41.3175 20.5104C41.9353 20.5104 42.5527 20.3432 43.1098 20.0102C44.1865 19.3668 44.8293 18.2352 44.8293 16.9834C44.8293 15.7111 44.1191 14.5244 42.9761 13.8863C42.529 13.6367 42.2511 13.1656 42.2511 12.6566V11.7191H56.4844C57.1305 11.7191 57.6562 12.2449 57.6562 12.891V25.0789H2.34375V12.8913C2.34375 12.2452 2.86945 11.7194 3.51562 11.7194ZM2.34375 56.485V27.4226H57.6562V46.5241H48.8672C47.5727 46.5241 46.5234 47.5735 46.5234 48.8678V57.6569H3.51562C2.86945 57.6569 2.34375 57.1312 2.34375 56.485ZM56.4844 57.6569H47.6953L57.6562 47.6959V56.485C57.6562 57.1312 57.1305 57.6569 56.4844 57.6569Z" fill="white"/>
<path d="M37.975 39.5073L33.0112 38.786L30.7913 34.288C30.4675 33.6319 29.5319 33.6319 29.2081 34.288L26.9882 38.786L22.0244 39.5073C21.3004 39.6124 21.0112 40.5023 21.5351 41.013L25.127 44.5142L24.2791 49.458C24.1554 50.1792 24.9123 50.729 25.5599 50.3886L29.9997 48.0544L34.4394 50.3885C35.087 50.7289 35.8439 50.1791 35.7203 49.4579L34.8723 44.5141L38.4642 41.0129C38.9882 40.5022 38.6991 39.6124 37.975 39.5073Z" fill="white"/>
</g>
<defs>
<clipPath id="clip0">
<rect width="60" height="60" fill="white"/>
</clipPath>
</defs>
</svg>
