<svg width="20" height="20" viewBox="0 0 20 20" fill="none" xmlns="http://www.w3.org/2000/svg">
<path fill-rule="evenodd" clip-rule="evenodd" d="M9.99984 1.66675C6.77484 1.66675 4.1665 4.27508 4.1665 7.50008C4.1665 11.8751 9.99984 18.3334 9.99984 18.3334C9.99984 18.3334 15.8332 11.8751 15.8332 7.50008C15.8332 4.27508 13.2248 1.66675 9.99984 1.66675ZM5.83314 7.50005C5.83314 5.20005 7.6998 3.33338 9.9998 3.33338C12.2998 3.33338 14.1665 5.20005 14.1665 7.50005C14.1665 9.90005 11.7665 13.4917 9.9998 15.7334C8.26647 13.5084 5.83314 9.87505 5.83314 7.50005ZM7.9165 7.50008C7.9165 6.34949 8.84924 5.41675 9.99984 5.41675C10.7441 5.41675 11.4319 5.81383 11.8041 6.45841C12.1762 7.103 12.1762 7.89716 11.8041 8.54175C11.4319 9.18633 10.7441 9.58341 9.99984 9.58341C8.84924 9.58341 7.9165 8.65067 7.9165 7.50008Z" fill="url(#paint0_linear)"/>
<defs>
<linearGradient id="paint0_linear" x1="4.61192" y1="8.38882" x2="16.188" y2="8.38882" gradientUnits="userSpaceOnUse">
<stop stop-color="#1378BA"/>
<stop offset="1" stop-color="#2BB673"/>
</linearGradient>
</defs>
</svg>
