<svg width="310" height="72" viewBox="0 0 310 72" fill="none" xmlns="http://www.w3.org/2000/svg">
<path d="M10.2511 0.00878906V13.2647H28.1327H30.6775H40.8568H41.264V13.2985C47.1001 13.5014 51.7147 18.2018 51.7487 23.9167C51.7487 29.6316 47.134 34.2982 41.264 34.5349H40.8568H32.2723C31.3222 34.5349 30.3721 34.5687 29.3881 34.5687H28.1327V34.5349H10.2511V71.0224H23.5859V47.7908H37.5316C40.0764 47.7908 42.3837 47.5879 44.4196 47.1821C46.4894 46.7763 48.4234 46.2014 50.1539 45.4575C51.8844 44.7135 53.5131 43.8343 54.9382 42.786C56.3972 41.7377 57.7544 40.588 58.942 39.3368C60.91 37.3416 62.4369 34.8393 63.4888 31.8635C64.5406 28.8876 65.0835 25.7428 65.0835 22.4288C65.0835 18.3371 64.3371 14.7864 62.878 11.8444C61.419 8.86858 59.3492 6.46764 56.6687 4.6754C54.2596 3.05223 51.5451 1.86867 48.5252 1.15854C45.5732 0.380768 42.0105 0.00878906 37.9048 0.00878906H10.2511ZM5.12748 18.7767C2.3112 18.7767 0.00390625 21.0762 0.00390625 23.8829C0.00390625 26.6896 2.3112 28.9891 5.12748 28.9891C7.94375 28.9891 10.2511 26.6896 10.2511 23.8829C10.2511 21.0762 7.94375 18.7767 5.12748 18.7767ZM22.4662 18.7767C19.6499 18.7767 17.3426 21.0762 17.3426 23.8829C17.3426 26.6896 19.6499 28.9891 22.4662 28.9891C25.2825 28.9891 27.5898 26.6896 27.5898 23.8829C27.5898 21.0762 25.3164 18.7767 22.4662 18.7767ZM39.8389 18.7767C37.0226 18.7767 34.7153 21.0762 34.7153 23.8829C34.7153 26.6896 37.0226 28.9891 39.8389 28.9891C42.6552 28.9891 44.9625 26.6896 44.9625 23.8829C44.9625 21.0762 42.6552 18.7767 39.8389 18.7767Z" fill="url(#paint0_linear)"/>
<path d="M75.6829 19.4293V28.6006H72.6143V4.30005H79.7506C82.5337 4.30005 84.6746 4.90254 86.1733 6.17448C87.6719 7.44641 88.4569 9.25389 88.4569 11.53C88.4569 13.8061 87.6006 15.7474 85.8879 17.2202C84.1752 18.693 81.8915 19.4293 79.0369 19.4293H75.6829ZM75.6829 6.91086V16.8855H78.8943C80.9638 16.8855 82.6051 16.4169 83.6756 15.5466C84.8174 14.6094 85.3169 13.3375 85.3169 11.7308C85.3169 8.5175 83.3188 6.91086 79.2511 6.91086H75.6829Z" fill="black"/>
<path d="M108.01 28.6678H94.2373V4.36719H107.368V6.978H97.2345V15.0782H106.583V17.6221H97.2345V26.1239H107.939V28.6678H108.01Z" fill="black"/>
<path d="M132.488 28.6677H128.849L124.495 21.8395C124.067 21.237 123.71 20.7014 123.354 20.2328C122.997 19.7642 122.569 19.4295 122.212 19.1617C121.855 18.8939 121.427 18.6931 120.927 18.5592C120.499 18.4253 120 18.3584 119.429 18.3584H116.931V28.7347H113.862V4.43408H121.57C122.711 4.43408 123.71 4.56797 124.71 4.83575C125.709 5.10352 126.494 5.50518 127.207 6.04073C127.921 6.57628 128.492 7.24572 128.849 8.04904C129.277 8.85237 129.42 9.78959 129.42 10.8607C129.42 11.731 129.277 12.4673 128.991 13.2037C128.706 13.8732 128.349 14.5426 127.85 15.0781C127.35 15.6137 126.779 16.0823 126.065 16.484C125.352 16.8856 124.567 17.1534 123.71 17.3542V17.4212C124.139 17.622 124.495 17.8228 124.852 18.0237C125.209 18.2245 125.495 18.4923 125.78 18.827C126.065 19.1617 126.351 19.4964 126.636 19.8981C126.922 20.2998 127.279 20.7684 127.564 21.3039L132.488 28.6677ZM116.931 6.91101V15.7476H121.07C121.855 15.7476 122.497 15.6137 123.14 15.4129C123.782 15.212 124.353 14.8773 124.852 14.4756C125.352 14.074 125.709 13.6054 125.923 13.0029C126.208 12.4004 126.351 11.7309 126.351 11.0615C126.351 9.78958 125.923 8.71848 124.995 8.04904C124.139 7.31266 122.783 6.97796 121.141 6.97796H116.931V6.91101Z" fill="black"/>
<path d="M150.043 6.91105H139.91V15.346H149.258V17.8898H139.91V28.6678H136.841V4.36719H149.972L150.043 6.91105Z" fill="black"/>
<path d="M166.243 29.0693C162.532 29.0693 159.606 27.9312 157.394 25.6551C155.182 23.379 154.111 20.4335 154.111 16.8185C154.111 12.9358 155.253 9.78944 157.465 7.44641C159.749 5.10337 162.818 3.96533 166.671 3.96533C170.239 3.96533 173.165 5.10337 175.306 7.37946C177.518 9.65554 178.589 12.6011 178.589 16.216C178.589 20.1657 177.447 23.3121 175.235 25.6551C173.023 27.8643 170.025 29.0693 166.243 29.0693ZM166.457 6.5092C163.745 6.5092 161.533 7.44641 159.82 9.25389C158.108 11.1283 157.251 13.5383 157.251 16.4838C157.251 19.4293 158.108 21.9063 159.749 23.7137C161.39 25.5212 163.603 26.4584 166.243 26.4584C169.098 26.4584 171.31 25.5882 172.951 23.8476C174.593 22.1071 175.378 19.6971 175.378 16.5508C175.378 13.3375 174.593 10.8605 173.023 9.12C171.453 7.37946 169.312 6.5092 166.457 6.5092Z" fill="black"/>
<path d="M211.059 28.6676H208.062V12.3333C208.062 11.0614 208.133 9.45473 208.347 7.5803H208.276C207.991 8.6514 207.705 9.45473 207.491 9.92333L198.642 28.6006H197.143L188.294 10.0572C188.009 9.52166 187.795 8.6514 187.509 7.5803H187.438C187.509 8.58446 187.581 10.1242 187.581 12.3333V28.6006H184.655V4.30005H188.651L196.572 21.2368C197.215 22.5088 197.572 23.5129 197.786 24.1824H197.928C198.428 22.8435 198.856 21.8393 199.142 21.1699L207.277 4.30005H211.059V28.6676Z" fill="black"/>
<path d="M238.819 28.6678H235.465L232.682 21.8395H221.692L219.123 28.6678H215.769L225.689 4.36719H228.829L238.819 28.6678ZM231.683 19.2287L227.615 8.85242C227.473 8.5177 227.33 7.98215 227.187 7.24577H227.116C226.973 7.91521 226.83 8.45075 226.688 8.85242L222.691 19.2287H231.683Z" fill="black"/>
<path d="M264.368 28.6676H260.657L247.312 9.2539C246.955 8.78529 246.669 8.24973 246.455 7.71418H246.313C246.384 8.24973 246.455 9.32083 246.455 11.0614V28.6006H243.387V4.30005H247.312L260.3 23.379C260.871 24.1824 261.156 24.7179 261.37 24.9857H261.442C261.299 24.3162 261.228 23.1112 261.228 21.4377V4.30005H264.296L264.368 28.6676Z" fill="black"/>
<path d="M289.702 27.5966C287.775 28.5338 285.42 29.0024 282.565 29.0024C278.855 29.0024 275.929 27.8644 273.716 25.6552C271.504 23.4461 270.362 20.5005 270.362 16.8856C270.362 13.0028 271.575 9.85648 274.073 7.4465C276.571 5.03653 279.711 3.83154 283.565 3.83154C285.991 3.83154 288.06 4.16626 289.702 4.8357V7.84817C287.846 6.84401 285.777 6.3754 283.565 6.3754C280.567 6.3754 278.141 7.31262 276.285 9.18705C274.43 11.0615 273.502 13.5384 273.502 16.6848C273.502 19.6303 274.359 22.0402 276.071 23.7808C277.784 25.5213 280.068 26.3916 282.922 26.3916C285.491 26.3916 287.775 25.856 289.702 24.7849V27.5966Z" fill="black"/>
<path d="M309.541 28.6678H295.839V4.36719H308.97V6.978H298.836V15.0782H308.185V17.6221H298.836V26.1239H309.541V28.6678Z" fill="black"/>
<path d="M93.7379 65.0182C91.1688 66.424 88.2429 67.0934 85.0315 67.0934C81.3206 67.0934 78.3234 65.9554 76.0397 63.7462C73.7561 61.5371 72.6143 58.5246 72.6143 54.8427C72.6143 51.0939 73.8988 48.0144 76.3966 45.6045C78.9656 43.1945 82.177 41.9895 86.0306 41.9895C88.8851 41.9895 91.2401 42.3912 93.167 43.2614V46.4078C91.0974 45.1359 88.5997 44.5334 85.7451 44.5334C82.8192 44.5334 80.4642 45.4706 78.6088 47.345C76.7534 49.2194 75.8256 51.6294 75.8256 54.6419C75.8256 57.7213 76.682 60.1313 78.3948 61.8718C80.1075 63.6123 82.4624 64.4826 85.3883 64.4826C87.3865 64.4826 89.1706 64.0809 90.6692 63.3446V56.5163H84.9602V53.9055H93.6665V65.0182H93.7379Z" fill="black"/>
<path d="M119.215 66.6916H115.575L111.222 59.8634C110.794 59.2609 110.437 58.7253 110.08 58.2567C109.723 57.7881 109.295 57.4534 108.938 57.1856C108.582 56.9179 108.153 56.717 107.654 56.5831C107.226 56.4492 106.726 56.3823 106.155 56.3823H103.657V66.7586H100.589V42.458H108.296C109.438 42.458 110.437 42.5919 111.436 42.8597C112.435 43.1274 113.22 43.5291 113.934 44.0647C114.647 44.6002 115.218 45.2696 115.575 46.073C116.003 46.8763 116.146 47.8135 116.146 48.8846C116.146 49.7549 116.003 50.4912 115.718 51.2276C115.432 51.8971 115.076 52.5665 114.576 53.1021C114.077 53.6376 113.506 54.1062 112.792 54.5079C112.078 54.9096 111.293 55.1773 110.437 55.3782V55.4451C110.865 55.6459 111.222 55.8468 111.579 56.0476C111.936 56.2484 112.221 56.5162 112.507 56.8509C112.792 57.1856 113.077 57.5203 113.363 57.922C113.648 58.3237 114.005 58.7923 114.291 59.3278L119.215 66.6916ZM103.657 44.9349V53.7715H107.797C108.582 53.7715 109.224 53.6376 109.866 53.4368C110.508 53.236 111.079 52.9012 111.579 52.4996C112.078 52.0979 112.435 51.6293 112.649 51.0268C112.935 50.4243 113.077 49.7549 113.077 49.0854C113.077 47.8135 112.649 46.7424 111.722 46.073C110.865 45.3366 109.509 45.0019 107.868 45.0019L103.657 44.9349Z" fill="black"/>
<path d="M134.058 67.0934C130.347 67.0934 127.421 65.9554 125.209 63.6793C122.997 61.4032 121.926 58.4577 121.926 54.8427C121.926 50.96 123.068 47.8136 125.28 45.4706C127.564 43.1276 130.633 41.9895 134.486 41.9895C138.054 41.9895 140.98 43.1275 143.121 45.4036C145.333 47.6797 146.404 50.6252 146.404 54.2402C146.404 58.1899 145.262 61.3362 143.05 63.6793C140.838 65.9554 137.84 67.0934 134.058 67.0934ZM134.272 44.5334C131.56 44.5334 129.348 45.4706 127.635 47.2781C125.923 49.0855 125.066 51.5625 125.066 54.508C125.066 57.4535 125.923 59.9304 127.564 61.7379C129.205 63.5454 131.418 64.4826 134.058 64.4826C136.913 64.4826 139.125 63.6123 140.766 61.8718C142.408 60.1313 143.193 57.7213 143.193 54.5749C143.193 51.3616 142.408 48.8847 140.838 47.1442C139.268 45.4036 137.055 44.5334 134.272 44.5334Z" fill="black"/>
<path d="M171.381 56.851C171.381 63.6792 168.098 67.0934 161.533 67.0934C155.253 67.0934 152.113 63.8131 152.113 57.2526V42.3911H155.181V57.0518C155.181 62.0056 157.394 64.5495 161.89 64.5495C166.243 64.5495 168.384 62.1395 168.384 57.3196V42.3911H171.452V56.851H171.381Z" fill="black"/>
<path d="M181.729 57.5204V66.6917H178.66V42.3911H185.796C188.58 42.3911 190.721 42.9936 192.219 44.2655C193.718 45.5375 194.503 47.3449 194.503 49.621C194.503 51.8971 193.646 53.8385 191.934 55.3113C190.221 56.784 187.937 57.5204 185.083 57.5204H181.729ZM181.729 44.935V54.9096H184.94C187.01 54.9096 188.651 54.441 189.721 53.5707C190.863 52.6335 191.363 51.3616 191.363 49.7549C191.363 46.5416 189.365 44.935 185.297 44.935H181.729Z" fill="black"/>
<defs>
<linearGradient id="paint0_linear" x1="2.48856" y1="28.6503" x2="67.0628" y2="28.6503" gradientUnits="userSpaceOnUse">
<stop stop-color="#1378BA"/>
<stop offset="1" stop-color="#2BB673"/>
</linearGradient>
</defs>
</svg>
