<svg width="66" height="72" viewBox="0 0 66 72" fill="none" xmlns="http://www.w3.org/2000/svg">
<path d="M10.2511 0.00878906V13.2647H28.1327H30.6775H40.8568H41.264V13.2985C47.1001 13.5014 51.7147 18.2018 51.7487 23.9167C51.7487 29.6316 47.134 34.2982 41.264 34.5349H40.8568H32.2723C31.3222 34.5349 30.3721 34.5687 29.3881 34.5687H28.1327V34.5349H10.2511V71.0224H23.5859V47.7908H37.5316C40.0764 47.7908 42.3837 47.5879 44.4196 47.1821C46.4894 46.7763 48.4234 46.2014 50.1539 45.4575C51.8844 44.7135 53.5131 43.8343 54.9382 42.786C56.3972 41.7377 57.7544 40.588 58.942 39.3368C60.91 37.3416 62.4369 34.8393 63.4888 31.8635C64.5406 28.8876 65.0835 25.7428 65.0835 22.4288C65.0835 18.3371 64.3371 14.7864 62.878 11.8444C61.419 8.86858 59.3492 6.46764 56.6687 4.6754C54.2596 3.05223 51.5451 1.86867 48.5252 1.15854C45.5732 0.380768 42.0105 0.00878906 37.9048 0.00878906H10.2511ZM5.12748 18.7767C2.3112 18.7767 0.00390625 21.0762 0.00390625 23.8829C0.00390625 26.6896 2.3112 28.9891 5.12748 28.9891C7.94375 28.9891 10.2511 26.6896 10.2511 23.8829C10.2511 21.0762 7.94375 18.7767 5.12748 18.7767ZM22.4662 18.7767C19.6499 18.7767 17.3426 21.0762 17.3426 23.8829C17.3426 26.6896 19.6499 28.9891 22.4662 28.9891C25.2825 28.9891 27.5898 26.6896 27.5898 23.8829C27.5898 21.0762 25.3164 18.7767 22.4662 18.7767ZM39.8389 18.7767C37.0226 18.7767 34.7153 21.0762 34.7153 23.8829C34.7153 26.6896 37.0226 28.9891 39.8389 28.9891C42.6552 28.9891 44.9625 26.6896 44.9625 23.8829C44.9625 21.0762 42.6552 18.7767 39.8389 18.7767Z" fill="url(#paint0_linear)"/>
<defs>
<linearGradient id="paint0_linear" x1="2.48856" y1="28.6503" x2="67.0628" y2="28.6503" gradientUnits="userSpaceOnUse">
<stop stop-color="#1378BA"/>
<stop offset="1" stop-color="#2BB673"/>
</linearGradient>
</defs>
</svg>
