<svg width="65" height="65" viewBox="0 0 65 65" fill="none" xmlns="http://www.w3.org/2000/svg">
<g clip-path="url(#clip0)">
<path d="M60.3027 7.01606C50.8389 7.01606 41.4332 4.64255 33.1024 0.152089C32.7262 -0.0506555 32.2738 -0.0506555 31.8976 0.152089C23.5668 4.64255 14.1611 7.01606 4.69727 7.01606C3.99623 7.01606 3.42773 7.58443 3.42773 8.28559V25.2335C3.42773 34.0806 6.16561 42.548 11.3454 49.7202C16.5252 56.8924 23.7024 62.1538 32.1007 64.9356C32.2304 64.9785 32.3652 65 32.5 65C32.6348 65 32.7695 64.9785 32.8993 64.9356C41.2976 62.1538 48.4749 56.8925 53.6546 49.7202C58.8343 42.5478 61.5723 34.0806 61.5723 25.2335V8.28559C61.5723 7.58443 61.0039 7.01606 60.3027 7.01606ZM59.0332 25.2335C59.0332 33.5436 56.4615 41.4968 51.5962 48.2337C46.8131 54.8566 40.2168 59.7448 32.5 62.3909C24.7832 59.7449 18.1869 54.8566 13.4038 48.2337C8.53849 41.4968 5.9668 33.5434 5.9668 25.2335V9.54141C15.1922 9.34349 24.3254 6.99258 32.5 2.70727C40.6746 6.99258 49.8078 9.34349 59.0332 9.54141V25.2335Z" fill="url(#paint0_linear)"/>
<path d="M31.9653 8.35021C25.6212 11.2965 18.8764 13.1879 11.9184 13.9721C11.2762 14.0444 10.791 14.5875 10.791 15.2336V25.2335C10.791 32.5228 13.047 39.4996 17.3149 45.4091C21.0557 50.5888 26.1384 54.6146 32.0136 57.0515C32.1694 57.1161 32.3346 57.1483 32.5 57.1483C32.6654 57.1483 32.8306 57.1161 32.9864 57.0515C38.8616 54.6146 43.9443 50.5888 47.6851 45.4091C51.9532 39.4996 54.209 32.5228 54.209 25.2335V15.2336C54.209 14.5875 53.7238 14.0444 53.0816 13.9721C46.1236 13.1879 39.3788 11.2965 33.0347 8.35021C32.6955 8.19279 32.3045 8.19279 31.9653 8.35021ZM51.6699 16.3585V25.2335C51.6699 31.9858 49.5803 38.4484 45.6268 43.9225C42.2652 48.5772 37.7348 52.2256 32.5 54.4997C27.2652 52.2256 22.7348 48.5772 19.3732 43.9226C15.4197 38.4484 13.3301 31.9857 13.3301 25.2335V16.3585C19.9672 15.4979 26.4078 13.6637 32.5 10.8985C38.5922 13.6638 45.0328 15.4979 51.6699 16.3585Z" fill="url(#paint1_linear)"/>
<path d="M32.4973 17.4357C32.0141 17.4359 31.5728 17.7103 31.359 18.1437L27.8343 25.2903L19.949 26.4382C19.4708 26.5078 19.0735 26.8429 18.9244 27.3025C18.7752 27.7622 18.8999 28.2666 19.2459 28.6038L24.9535 34.1645L23.6087 42.0187C23.527 42.4949 23.7229 42.9763 24.1139 43.2601C24.3351 43.4207 24.597 43.5024 24.86 43.5024C25.0623 43.5024 25.2652 43.4541 25.451 43.3564L32.5031 39.6464L39.5572 43.3526C39.985 43.5774 40.5033 43.5398 40.8941 43.2556C41.285 42.9714 41.4806 42.49 41.3989 42.0137L40.0497 34.1603L45.7545 28.5967C46.1004 28.2592 46.2247 27.7547 46.0753 27.2952C45.9258 26.8356 45.5284 26.5008 45.0503 26.4314L37.1643 25.2876L33.6358 18.1429C33.4219 17.7097 32.9807 17.4355 32.4975 17.4355C32.4975 17.4357 32.4974 17.4357 32.4973 17.4357ZM32.5 21.5771V31.6667L35.5717 27.4724C35.7369 27.5932 35.9309 27.6745 36.1393 27.7048L42.0536 28.5627L32.5 31.6667L37.4853 33.3074C37.4175 33.5056 37.3979 33.72 37.4345 33.9325L38.4528 39.86L32.5 31.6667L32.4799 36.944C32.2845 36.9475 32.0898 36.995 31.9117 37.0886L26.5453 39.9116L26.5564 39.847L32.5 31.6667L27.5018 33.2697C27.4371 33.0996 27.3377 32.9423 27.2033 32.8115L22.8602 28.5802L22.9571 28.5661L32.5 31.6667L29.4594 27.4481C29.6072 27.3324 29.7307 27.1852 29.8163 27.0119L32.4984 21.5738L32.5 21.5771Z" fill="url(#paint2_linear)"/>
</g>
<defs>
<linearGradient id="paint0_linear" x1="5.64762" y1="26.2161" x2="63.3406" y2="26.2161" gradientUnits="userSpaceOnUse">
<stop stop-color="#1378BA"/>
<stop offset="1" stop-color="#2BB673"/>
</linearGradient>
<linearGradient id="paint1_linear" x1="12.4487" y1="27.9612" x2="55.5294" y2="27.9612" gradientUnits="userSpaceOnUse">
<stop stop-color="#1378BA"/>
<stop offset="1" stop-color="#2BB673"/>
</linearGradient>
<linearGradient id="paint2_linear" x1="19.9036" y1="27.9489" x2="46.9671" y2="27.9489" gradientUnits="userSpaceOnUse">
<stop stop-color="#1378BA"/>
<stop offset="1" stop-color="#2BB673"/>
</linearGradient>
<clipPath id="clip0">
<rect width="65" height="65" fill="white"/>
</clipPath>
</defs>
</svg>
