<svg width="327" height="377" viewBox="0 0 327 377" fill="none" xmlns="http://www.w3.org/2000/svg">
<path d="M154.5 69.7735C160.688 66.2008 168.312 66.2008 174.5 69.7735L265.784 122.476C271.972 126.049 275.784 132.652 275.784 139.797V245.203C275.784 252.348 271.972 258.951 265.784 262.524L174.5 315.226C168.312 318.799 160.688 318.799 154.5 315.226L63.2157 262.524C57.0277 258.951 53.2157 252.348 53.2157 245.203V139.797C53.2157 132.652 57.0277 126.049 63.2157 122.476L154.5 69.7735Z" fill="#29B179"/>
<mask id="mask0" mask-type="alpha" maskUnits="userSpaceOnUse" x="0" y="195" width="327" height="182">
<rect y="195" width="327" height="182" fill="#C4C4C4"/>
</mask>
<g mask="url(#mask0)">
<g opacity="0.7">
<path d="M174.25 41.2065L290.649 108.41C296.682 111.893 300.399 118.33 300.399 125.297V259.703C300.399 266.67 296.682 273.107 290.649 276.59L174.25 343.793C168.217 347.277 160.783 347.277 154.75 343.793L38.351 276.59C32.3177 273.107 28.601 266.67 28.601 259.703V125.297C28.601 118.33 32.3177 111.893 38.351 108.41L154.75 41.2065C160.783 37.7232 168.217 37.7232 174.25 41.2065Z" stroke="#E5E5E5"/>
<path d="M174.25 41.2065L290.649 108.41C296.682 111.893 300.399 118.33 300.399 125.297V259.703C300.399 266.67 296.682 273.107 290.649 276.59L174.25 343.793C168.217 347.277 160.783 347.277 154.75 343.793L38.351 276.59C32.3177 273.107 28.601 266.67 28.601 259.703V125.297C28.601 118.33 32.3177 111.893 38.351 108.41L154.75 41.2065C160.783 37.7232 168.217 37.7232 174.25 41.2065Z" stroke="#E5E5E5"/>
</g>
<g opacity="0.4">
<path d="M173.25 9.20652L314.764 90.9095C320.797 94.3929 324.514 100.83 324.514 107.797V271.203C324.514 278.17 320.797 284.607 314.764 288.09L173.25 369.793C167.217 373.277 159.783 373.277 153.75 369.793L12.2363 288.09C6.20294 284.607 2.48627 278.17 2.48627 271.203V107.797C2.48627 100.83 6.20295 94.3929 12.2363 90.9095L153.75 9.20651C159.783 5.72317 167.217 5.72318 173.25 9.20652Z" stroke="#E5E5E5"/>
<path d="M173.25 9.20652L314.764 90.9095C320.797 94.3929 324.514 100.83 324.514 107.797V271.203C324.514 278.17 320.797 284.607 314.764 288.09L173.25 369.793C167.217 373.277 159.783 373.277 153.75 369.793L12.2363 288.09C6.20294 284.607 2.48627 278.17 2.48627 271.203V107.797C2.48627 100.83 6.20295 94.3929 12.2363 90.9095L153.75 9.20651C159.783 5.72317 167.217 5.72318 173.25 9.20652Z" stroke="#E5E5E5"/>
</g>
</g>
<g opacity="0.2">
<mask id="mask1" mask-type="alpha" maskUnits="userSpaceOnUse" x="0" y="0" width="327" height="195">
<rect width="327" height="195" transform="matrix(1 0 0 -1 0 195)" fill="#C4C4C4"/>
</mask>
<g mask="url(#mask1)">
<path d="M28.601 114.039L164.5 35.5774L300.399 114.039V270.961L164.5 349.423L28.601 270.961V114.039Z" stroke="#E5E5E5"/>
<path d="M28.601 114.039L164.5 35.5774L300.399 114.039V270.961L164.5 349.423L28.601 270.961V114.039Z" stroke="#E5E5E5"/>
<g opacity="0.4">
<path d="M2.55325 96.7887L164 3.57735L325.447 96.7887V283.211L164 376.423L2.55325 283.211V96.7887Z" stroke="#E5E5E5"/>
<path d="M2.55325 96.7887L164 3.57735L325.447 96.7887V283.211L164 376.423L2.55325 283.211V96.7887Z" stroke="#E5E5E5"/>
</g>
</g>
</g>
<path d="M117.941 161.312V158.608C118.946 158.608 119.7 158.218 120.203 157.438C120.706 156.641 121.096 155.02 121.373 152.576L122.387 143.658H134.165V161H131.123V146.336H125.117L124.389 152.784C124.181 154.569 123.886 156.043 123.505 157.204C123.141 158.365 122.664 159.241 122.075 159.83C121.503 160.402 120.896 160.792 120.255 161C119.631 161.208 118.86 161.312 117.941 161.312ZM143.568 161.312C141.661 161.312 140.084 160.705 138.836 159.492C137.605 158.261 136.99 156.667 136.99 154.708C136.99 152.871 137.588 151.319 138.784 150.054C139.997 148.771 141.523 148.13 143.36 148.13C145.215 148.13 146.705 148.771 147.832 150.054C148.976 151.337 149.548 152.975 149.548 154.968V155.618H139.85C139.954 156.606 140.361 157.429 141.072 158.088C141.783 158.747 142.71 159.076 143.854 159.076C144.495 159.076 145.137 158.955 145.778 158.712C146.437 158.469 146.983 158.131 147.416 157.698L148.664 159.492C147.399 160.705 145.7 161.312 143.568 161.312ZM146.896 153.694C146.861 152.827 146.541 152.056 145.934 151.38C145.345 150.704 144.487 150.366 143.36 150.366C142.285 150.366 141.445 150.704 140.838 151.38C140.231 152.039 139.893 152.81 139.824 153.694H146.896ZM157.911 161.312C155.969 161.312 154.409 160.679 153.231 159.414C152.052 158.131 151.463 156.563 151.463 154.708C151.463 152.853 152.052 151.293 153.231 150.028C154.409 148.763 155.969 148.13 157.911 148.13C159.869 148.13 161.438 148.763 162.617 150.028C163.795 151.293 164.385 152.853 164.385 154.708C164.385 156.58 163.795 158.149 162.617 159.414C161.438 160.679 159.869 161.312 157.911 161.312ZM157.911 158.894C159.037 158.894 159.921 158.495 160.563 157.698C161.221 156.883 161.551 155.887 161.551 154.708C161.551 153.547 161.221 152.567 160.563 151.77C159.921 150.955 159.037 150.548 157.911 150.548C156.801 150.548 155.917 150.955 155.259 151.77C154.617 152.567 154.297 153.547 154.297 154.708C154.297 155.887 154.617 156.883 155.259 157.698C155.917 158.495 156.801 158.894 157.911 158.894ZM169.877 161H167.147V148.442H169.877V153.382H175.649V148.442H178.379V161H175.649V155.774H169.877V161ZM184.55 161H181.924V148.442H184.654V156.892L190.426 148.442H193.156V161H190.426V152.316L184.55 161ZM195.402 164.198V158.738C195.991 158.599 196.433 158.261 196.728 157.724C197.04 157.169 197.291 156.112 197.482 154.552L198.236 148.442H207.934V158.608H209.312V164.198H206.582V161H198.132V164.198H195.402ZM200.654 150.834L200.212 154.864C200.038 156.528 199.484 157.776 198.548 158.608H205.204V150.834H200.654ZM128.071 193H125.029V178.336H116.007V193H112.965V175.658H128.071V193ZM137.344 193.312C135.403 193.312 133.843 192.679 132.664 191.414C131.486 190.131 130.896 188.563 130.896 186.708C130.896 184.853 131.486 183.293 132.664 182.028C133.843 180.763 135.403 180.13 137.344 180.13C139.303 180.13 140.872 180.763 142.05 182.028C143.229 183.293 143.818 184.853 143.818 186.708C143.818 188.58 143.229 190.149 142.05 191.414C140.872 192.679 139.303 193.312 137.344 193.312ZM137.344 190.894C138.471 190.894 139.355 190.495 139.996 189.698C140.655 188.883 140.984 187.887 140.984 186.708C140.984 185.547 140.655 184.567 139.996 183.77C139.355 182.955 138.471 182.548 137.344 182.548C136.235 182.548 135.351 182.955 134.692 183.77C134.051 184.567 133.73 185.547 133.73 186.708C133.73 187.887 134.051 188.883 134.692 189.698C135.351 190.495 136.235 190.894 137.344 190.894ZM156.097 180.442V182.834H149.311V193H146.581V180.442H156.097ZM164.004 193.312C162.063 193.312 160.503 192.679 159.324 191.414C158.146 190.131 157.556 188.563 157.556 186.708C157.556 184.853 158.146 183.293 159.324 182.028C160.503 180.763 162.063 180.13 164.004 180.13C165.963 180.13 167.532 180.763 168.71 182.028C169.889 183.293 170.478 184.853 170.478 186.708C170.478 188.58 169.889 190.149 168.71 191.414C167.532 192.679 165.963 193.312 164.004 193.312ZM164.004 190.894C165.131 190.894 166.015 190.495 166.656 189.698C167.315 188.883 167.644 187.887 167.644 186.708C167.644 185.547 167.315 184.567 166.656 183.77C166.015 182.955 165.131 182.548 164.004 182.548C162.895 182.548 162.011 182.955 161.352 183.77C160.711 184.567 160.39 185.547 160.39 186.708C160.39 187.887 160.711 188.883 161.352 189.698C162.011 190.495 162.895 190.894 164.004 190.894ZM171.941 196.198V190.738C172.53 190.599 172.972 190.261 173.267 189.724C173.579 189.169 173.83 188.112 174.021 186.552L174.775 180.442H184.473V190.608H185.851V196.198H183.121V193H174.671V196.198H171.941ZM177.193 182.834L176.751 186.864C176.577 188.528 176.023 189.776 175.087 190.608H181.743V182.834H177.193ZM190.72 193H188.094V180.442H190.824V188.892L196.596 180.442H199.326V193H196.596V184.316L190.72 193ZM205.602 193H202.872V180.442H205.602V185.382H211.374V180.442H214.104V193H211.374V187.774H205.602V193Z" fill="white"/>
<path d="M87.9933 217.755V218.745H84.0483V225H82.9233V217.755H87.9933ZM92.7265 225.18C91.6465 225.18 90.7615 224.83 90.0715 224.13C89.3815 223.42 89.0365 222.5 89.0365 221.37C89.0365 220.31 89.3765 219.415 90.0565 218.685C90.7365 217.945 91.5865 217.575 92.6065 217.575C93.6765 217.575 94.5215 217.945 95.1415 218.685C95.7715 219.415 96.0865 220.34 96.0865 221.46V221.745H90.2215C90.2715 222.455 90.5315 223.05 91.0015 223.53C91.4715 224.01 92.0815 224.25 92.8315 224.25C93.7315 224.25 94.4765 223.945 95.0665 223.335L95.6065 224.07C94.8665 224.81 93.9065 225.18 92.7265 225.18ZM94.9765 220.92C94.9665 220.3 94.7565 219.745 94.3465 219.255C93.9365 218.755 93.3515 218.505 92.5915 218.505C91.8715 218.505 91.3015 218.75 90.8815 219.24C90.4715 219.73 90.2515 220.29 90.2215 220.92H94.9765ZM99.0337 225H97.9087V217.755H99.0337V220.77H102.814V217.755H103.939V225H102.814V221.76H99.0337V225ZM109.455 225.18C108.375 225.18 107.49 224.83 106.8 224.13C106.11 223.42 105.765 222.5 105.765 221.37C105.765 220.31 106.105 219.415 106.785 218.685C107.465 217.945 108.315 217.575 109.335 217.575C110.405 217.575 111.25 217.945 111.87 218.685C112.5 219.415 112.815 220.34 112.815 221.46V221.745H106.95C107 222.455 107.26 223.05 107.73 223.53C108.2 224.01 108.81 224.25 109.56 224.25C110.46 224.25 111.205 223.945 111.795 223.335L112.335 224.07C111.595 224.81 110.635 225.18 109.455 225.18ZM111.705 220.92C111.695 220.3 111.485 219.745 111.075 219.255C110.665 218.755 110.08 218.505 109.32 218.505C108.6 218.505 108.03 218.75 107.61 219.24C107.2 219.73 106.98 220.29 106.95 220.92H111.705ZM118.207 225.18C117.187 225.18 116.372 224.755 115.762 223.905V227.76H114.637V217.755H115.762V218.835C116.032 218.455 116.382 218.15 116.812 217.92C117.242 217.69 117.707 217.575 118.207 217.575C119.167 217.575 119.942 217.92 120.532 218.61C121.132 219.29 121.432 220.21 121.432 221.37C121.432 222.53 121.132 223.455 120.532 224.145C119.942 224.835 119.167 225.18 118.207 225.18ZM117.922 224.175C118.632 224.175 119.197 223.915 119.617 223.395C120.037 222.865 120.247 222.19 120.247 221.37C120.247 220.55 120.037 219.88 119.617 219.36C119.197 218.84 118.632 218.58 117.922 218.58C117.492 218.58 117.072 218.695 116.662 218.925C116.262 219.145 115.962 219.415 115.762 219.735V223.005C115.962 223.335 116.262 223.615 116.662 223.845C117.072 224.065 117.492 224.175 117.922 224.175ZM128.876 225H127.751V224.175C127.141 224.845 126.341 225.18 125.351 225.18C124.681 225.18 124.091 224.965 123.581 224.535C123.071 224.105 122.816 223.52 122.816 222.78C122.816 222.02 123.066 221.435 123.566 221.025C124.076 220.605 124.671 220.395 125.351 220.395C126.381 220.395 127.181 220.725 127.751 221.385V220.08C127.751 219.6 127.581 219.225 127.241 218.955C126.901 218.685 126.461 218.55 125.921 218.55C125.071 218.55 124.331 218.885 123.701 219.555L123.176 218.775C123.946 217.975 124.911 217.575 126.071 217.575C126.901 217.575 127.576 217.775 128.096 218.175C128.616 218.575 128.876 219.19 128.876 220.02V225ZM125.756 224.37C126.656 224.37 127.321 224.07 127.751 223.47V222.105C127.321 221.505 126.656 221.205 125.756 221.205C125.236 221.205 124.806 221.355 124.466 221.655C124.136 221.945 123.971 222.325 123.971 222.795C123.971 223.255 124.136 223.635 124.466 223.935C124.806 224.225 125.236 224.37 125.756 224.37ZM130.276 225.18V224.25C130.616 224.25 130.896 224.025 131.116 223.575C131.336 223.125 131.516 222.375 131.656 221.325L132.121 217.755H137.161V225H136.036V218.745H133.111L132.781 221.46C132.621 222.79 132.341 223.745 131.941 224.325C131.541 224.895 130.986 225.18 130.276 225.18ZM139.408 217.755H140.533V220.56H143.248C143.968 220.56 144.528 220.775 144.928 221.205C145.328 221.625 145.528 222.15 145.528 222.78C145.528 223.41 145.323 223.94 144.913 224.37C144.513 224.79 143.958 225 143.248 225H139.408V217.755ZM143.128 221.55H140.533V224.01H143.128C143.528 224.01 143.833 223.9 144.043 223.68C144.263 223.45 144.373 223.15 144.373 222.78C144.373 222.41 144.263 222.115 144.043 221.895C143.833 221.665 143.528 221.55 143.128 221.55ZM148.37 225H147.245V217.755H148.37V220.77H152.15V217.755H153.275V225H152.15V221.76H148.37V225ZM155.521 217.755H156.646V220.56H159.361C160.081 220.56 160.641 220.775 161.041 221.205C161.441 221.625 161.641 222.15 161.641 222.78C161.641 223.41 161.436 223.94 161.026 224.37C160.626 224.79 160.071 225 159.361 225H155.521V217.755ZM159.241 221.55H156.646V224.01H159.241C159.641 224.01 159.946 223.9 160.156 223.68C160.376 223.45 160.486 223.15 160.486 222.78C160.486 222.41 160.376 222.115 160.156 221.895C159.946 221.665 159.641 221.55 159.241 221.55ZM163.951 225H162.826V217.755H163.951V225ZM167.28 225H166.2V217.755H167.325V223.29L171.12 217.755H172.23V225H171.105V219.36L167.28 225ZM171.84 215.61C171.19 216.49 170.315 216.93 169.215 216.93C168.125 216.93 167.245 216.49 166.575 215.61L167.13 215.13C167.65 215.85 168.345 216.21 169.215 216.21C170.095 216.21 170.785 215.85 171.285 215.13L171.84 215.61ZM177.488 226.845V224.07C177.858 224 178.148 223.78 178.358 223.41C178.568 223.03 178.738 222.335 178.868 221.325L179.333 217.755H184.373V224.01H185.213V226.845H184.088V225H178.613V226.845H177.488ZM180.323 218.745L179.993 221.46C179.823 222.73 179.473 223.58 178.943 224.01H183.248V218.745H180.323ZM187.831 225H186.751V217.755H187.876V223.29L191.671 217.755H192.781V225H191.656V219.36L187.831 225ZM198.598 225.18C197.578 225.18 196.763 224.755 196.153 223.905V227.76H195.028V217.755H196.153V218.835C196.423 218.455 196.773 218.15 197.203 217.92C197.633 217.69 198.098 217.575 198.598 217.575C199.558 217.575 200.333 217.92 200.923 218.61C201.523 219.29 201.823 220.21 201.823 221.37C201.823 222.53 201.523 223.455 200.923 224.145C200.333 224.835 199.558 225.18 198.598 225.18ZM198.313 224.175C199.023 224.175 199.588 223.915 200.008 223.395C200.428 222.865 200.638 222.19 200.638 221.37C200.638 220.55 200.428 219.88 200.008 219.36C199.588 218.84 199.023 218.58 198.313 218.58C197.883 218.58 197.463 218.695 197.053 218.925C196.653 219.145 196.353 219.415 196.153 219.735V223.005C196.353 223.335 196.653 223.615 197.053 223.845C197.463 224.065 197.883 224.175 198.313 224.175ZM206.882 225.18C205.802 225.18 204.917 224.83 204.227 224.13C203.537 223.42 203.192 222.5 203.192 221.37C203.192 220.31 203.532 219.415 204.212 218.685C204.892 217.945 205.742 217.575 206.762 217.575C207.832 217.575 208.677 217.945 209.297 218.685C209.927 219.415 210.242 220.34 210.242 221.46V221.745H204.377C204.427 222.455 204.687 223.05 205.157 223.53C205.627 224.01 206.237 224.25 206.987 224.25C207.887 224.25 208.632 223.945 209.222 223.335L209.762 224.07C209.022 224.81 208.062 225.18 206.882 225.18ZM209.132 220.92C209.122 220.3 208.912 219.745 208.502 219.255C208.092 218.755 207.507 218.505 206.747 218.505C206.027 218.505 205.457 218.75 205.037 219.24C204.627 219.73 204.407 220.29 204.377 220.92H209.132ZM218.439 225H216.999L214.389 221.745L213.189 222.93V225H212.064V217.755H213.189V221.61L216.999 217.755H218.424L215.214 221.04L218.439 225ZM222.214 225H221.089V218.745H218.989V217.755H224.329V218.745H222.214V225ZM231.564 224.085C230.914 224.815 230.049 225.18 228.969 225.18C227.889 225.18 227.019 224.815 226.359 224.085C225.709 223.355 225.384 222.45 225.384 221.37C225.384 220.29 225.709 219.39 226.359 218.67C227.019 217.94 227.889 217.575 228.969 217.575C230.049 217.575 230.914 217.94 231.564 218.67C232.224 219.39 232.554 220.29 232.554 221.37C232.554 222.45 232.224 223.355 231.564 224.085ZM227.199 223.365C227.639 223.905 228.229 224.175 228.969 224.175C229.709 224.175 230.294 223.905 230.724 223.365C231.154 222.815 231.369 222.15 231.369 221.37C231.369 220.59 231.154 219.93 230.724 219.39C230.294 218.85 229.709 218.58 228.969 218.58C228.229 218.58 227.639 218.855 227.199 219.405C226.769 219.945 226.554 220.6 226.554 221.37C226.554 222.15 226.769 222.815 227.199 223.365ZM237.958 225.18C236.938 225.18 236.123 224.755 235.513 223.905V227.76H234.388V217.755H235.513V218.835C235.783 218.455 236.133 218.15 236.563 217.92C236.993 217.69 237.458 217.575 237.958 217.575C238.918 217.575 239.693 217.92 240.283 218.61C240.883 219.29 241.183 220.21 241.183 221.37C241.183 222.53 240.883 223.455 240.283 224.145C239.693 224.835 238.918 225.18 237.958 225.18ZM237.673 224.175C238.383 224.175 238.948 223.915 239.368 223.395C239.788 222.865 239.998 222.19 239.998 221.37C239.998 220.55 239.788 219.88 239.368 219.36C238.948 218.84 238.383 218.58 237.673 218.58C237.243 218.58 236.823 218.695 236.413 218.925C236.013 219.145 235.713 219.415 235.513 219.735V223.005C235.713 223.335 236.013 223.615 236.413 223.845C236.823 224.065 237.243 224.175 237.673 224.175ZM244.385 224.64C244.385 225.08 244.27 225.5 244.04 225.9C243.81 226.31 243.515 226.645 243.155 226.905L242.6 226.44C242.85 226.28 243.065 226.065 243.245 225.795C243.435 225.535 243.545 225.285 243.575 225.045C243.535 225.065 243.465 225.075 243.365 225.075C243.155 225.075 242.98 225.005 242.84 224.865C242.71 224.715 242.645 224.53 242.645 224.31C242.645 224.09 242.72 223.9 242.87 223.74C243.03 223.58 243.22 223.5 243.44 223.5C243.7 223.5 243.92 223.605 244.1 223.815C244.29 224.015 244.385 224.29 244.385 224.64ZM130.541 246.085C129.891 246.815 129.026 247.18 127.946 247.18C126.866 247.18 125.996 246.815 125.336 246.085C124.686 245.355 124.361 244.45 124.361 243.37C124.361 242.29 124.686 241.39 125.336 240.67C125.996 239.94 126.866 239.575 127.946 239.575C129.026 239.575 129.891 239.94 130.541 240.67C131.201 241.39 131.531 242.29 131.531 243.37C131.531 244.45 131.201 245.355 130.541 246.085ZM126.176 245.365C126.616 245.905 127.206 246.175 127.946 246.175C128.686 246.175 129.271 245.905 129.701 245.365C130.131 244.815 130.346 244.15 130.346 243.37C130.346 242.59 130.131 241.93 129.701 241.39C129.271 240.85 128.686 240.58 127.946 240.58C127.206 240.58 126.616 240.855 126.176 241.405C125.746 241.945 125.531 242.6 125.531 243.37C125.531 244.15 125.746 244.815 126.176 245.365ZM136.56 247.18C135.49 247.18 134.62 246.82 133.95 246.1C133.28 245.37 132.945 244.46 132.945 243.37C132.945 242.28 133.28 241.375 133.95 240.655C134.62 239.935 135.49 239.575 136.56 239.575C137.68 239.575 138.565 239.995 139.215 240.835L138.465 241.525C138.005 240.895 137.39 240.58 136.62 240.58C135.86 240.58 135.25 240.84 134.79 241.36C134.34 241.88 134.115 242.55 134.115 243.37C134.115 244.19 134.34 244.865 134.79 245.395C135.25 245.915 135.86 246.175 136.62 246.175C137.38 246.175 137.995 245.86 138.465 245.23L139.215 245.92C138.565 246.76 137.68 247.18 136.56 247.18ZM141.917 247H140.792V239.755H141.917V242.77H145.697V239.755H146.822V247H145.697V243.76H141.917V247ZM154.828 246.085C154.178 246.815 153.313 247.18 152.233 247.18C151.153 247.18 150.283 246.815 149.623 246.085C148.973 245.355 148.648 244.45 148.648 243.37C148.648 242.29 148.973 241.39 149.623 240.67C150.283 239.94 151.153 239.575 152.233 239.575C153.313 239.575 154.178 239.94 154.828 240.67C155.488 241.39 155.818 242.29 155.818 243.37C155.818 244.45 155.488 245.355 154.828 246.085ZM150.463 245.365C150.903 245.905 151.493 246.175 152.233 246.175C152.973 246.175 153.558 245.905 153.988 245.365C154.418 244.815 154.633 244.15 154.633 243.37C154.633 242.59 154.418 241.93 153.988 241.39C153.558 240.85 152.973 240.58 152.233 240.58C151.493 240.58 150.903 240.855 150.463 241.405C150.033 241.945 149.818 242.6 149.818 243.37C149.818 244.15 150.033 244.815 150.463 245.365ZM161.717 247H157.652V239.755H161.642C162.272 239.755 162.767 239.925 163.127 240.265C163.497 240.605 163.682 241.055 163.682 241.615C163.682 242.025 163.567 242.38 163.337 242.68C163.117 242.97 162.842 243.165 162.512 243.265C162.882 243.355 163.192 243.57 163.442 243.91C163.702 244.25 163.832 244.625 163.832 245.035C163.832 245.625 163.642 246.1 163.262 246.46C162.892 246.82 162.377 247 161.717 247ZM161.492 246.01C161.852 246.01 162.137 245.91 162.347 245.71C162.557 245.51 162.662 245.24 162.662 244.9C162.662 244.59 162.557 244.325 162.347 244.105C162.137 243.885 161.852 243.775 161.492 243.775H158.777V246.01H161.492ZM161.447 242.785C161.787 242.785 162.052 242.695 162.242 242.515C162.432 242.325 162.527 242.08 162.527 241.78C162.527 241.46 162.432 241.21 162.242 241.03C162.052 240.84 161.787 240.745 161.447 240.745H158.777V242.785H161.447ZM171.613 247H170.488V246.175C169.878 246.845 169.078 247.18 168.088 247.18C167.418 247.18 166.828 246.965 166.318 246.535C165.808 246.105 165.553 245.52 165.553 244.78C165.553 244.02 165.803 243.435 166.303 243.025C166.813 242.605 167.408 242.395 168.088 242.395C169.118 242.395 169.918 242.725 170.488 243.385V242.08C170.488 241.6 170.318 241.225 169.978 240.955C169.638 240.685 169.198 240.55 168.658 240.55C167.808 240.55 167.068 240.885 166.438 241.555L165.913 240.775C166.683 239.975 167.648 239.575 168.808 239.575C169.638 239.575 170.313 239.775 170.833 240.175C171.353 240.575 171.613 241.19 171.613 242.02V247ZM168.493 246.37C169.393 246.37 170.058 246.07 170.488 245.47V244.105C170.058 243.505 169.393 243.205 168.493 243.205C167.973 243.205 167.543 243.355 167.203 243.655C166.873 243.945 166.708 244.325 166.708 244.795C166.708 245.255 166.873 245.635 167.203 245.935C167.543 246.225 167.973 246.37 168.493 246.37ZM176.313 247H175.188V240.745H173.088V239.755H178.428V240.745H176.313V247ZM183.173 247.18C182.093 247.18 181.208 246.83 180.518 246.13C179.828 245.42 179.483 244.5 179.483 243.37C179.483 242.31 179.823 241.415 180.503 240.685C181.183 239.945 182.033 239.575 183.053 239.575C184.123 239.575 184.968 239.945 185.588 240.685C186.218 241.415 186.533 242.34 186.533 243.46V243.745H180.668C180.718 244.455 180.978 245.05 181.448 245.53C181.918 246.01 182.528 246.25 183.278 246.25C184.178 246.25 184.923 245.945 185.513 245.335L186.053 246.07C185.313 246.81 184.353 247.18 183.173 247.18ZM185.423 242.92C185.413 242.3 185.203 241.745 184.793 241.255C184.383 240.755 183.798 240.505 183.038 240.505C182.318 240.505 181.748 240.75 181.328 241.24C180.918 241.73 180.698 242.29 180.668 242.92H185.423ZM187.5 247.18V246.25C187.84 246.25 188.12 246.025 188.34 245.575C188.56 245.125 188.74 244.375 188.88 243.325L189.345 239.755H194.385V247H193.26V240.745H190.335L190.005 243.46C189.845 244.79 189.565 245.745 189.165 246.325C188.765 246.895 188.21 247.18 187.5 247.18ZM196.632 239.755H197.757V242.56H200.472C201.192 242.56 201.752 242.775 202.152 243.205C202.552 243.625 202.752 244.15 202.752 244.78C202.752 245.41 202.547 245.94 202.137 246.37C201.737 246.79 201.182 247 200.472 247H196.632V239.755ZM200.352 243.55H197.757V246.01H200.352C200.752 246.01 201.057 245.9 201.267 245.68C201.487 245.45 201.597 245.15 201.597 244.78C201.597 244.41 201.487 244.115 201.267 243.895C201.057 243.665 200.752 243.55 200.352 243.55Z" fill="white"/>
</svg>
