<svg width="161" height="49" viewBox="0 0 161 49" fill="none" xmlns="http://www.w3.org/2000/svg">
<path d="M31.46 27.63H19.28V41.49H12.21V27.63H0.0300001V21.19H12.21V7.82H19.28V21.19H31.46V27.63ZM60.5685 48H48.5285V16.71L40.6885 24.62L33.8285 17.41L50.1385 1.31H60.5685V48ZM86.4171 48.84C78.4838 48.84 72.2071 46.5767 67.5871 42.05L74.1671 33.65C77.4804 36.6833 81.5171 38.2 86.2771 38.2C88.7038 38.2 90.5704 37.6867 91.8771 36.66C93.2304 35.6333 93.9071 34.35 93.9071 32.81C93.9071 31.1767 93.2771 29.87 92.0171 28.89C90.7571 27.91 88.9604 27.42 86.6271 27.42C82.9404 27.42 79.8604 28.5867 77.3871 30.92L69.0571 28.89V1.31H102.937V11.81H81.0971V20.84C83.6638 18.3667 87.0004 17.13 91.1071 17.13C95.2138 17.13 98.7371 18.53 101.677 21.33C104.664 24.13 106.157 27.7933 106.157 32.32C106.157 37.36 104.384 41.3733 100.837 44.36C97.2904 47.3467 92.4838 48.84 86.4171 48.84ZM121.71 23.99C118.117 23.99 115.2 22.8933 112.96 20.7C110.72 18.46 109.6 15.6833 109.6 12.37C109.6 9.01 110.72 6.21 112.96 3.97C115.2 1.73 118.117 0.609997 121.71 0.609997C125.397 0.609997 128.36 1.73 130.6 3.97C132.887 6.21 134.03 9.01 134.03 12.37C134.03 15.6833 132.887 18.46 130.6 20.7C128.36 22.8933 125.397 23.99 121.71 23.99ZM123.11 48H117.09L146.91 1.31H153L123.11 48ZM148.1 48.84C144.507 48.84 141.59 47.7433 139.35 45.55C137.11 43.31 135.99 40.5333 135.99 37.22C135.99 33.86 137.11 31.06 139.35 28.82C141.59 26.58 144.507 25.46 148.1 25.46C151.74 25.46 154.68 26.58 156.92 28.82C159.207 31.06 160.35 33.86 160.35 37.22C160.35 40.5333 159.207 43.31 156.92 45.55C154.68 47.7433 151.74 48.84 148.1 48.84ZM118.28 16.22C119.167 17.1067 120.31 17.55 121.71 17.55C123.11 17.55 124.254 17.1067 125.14 16.22C126.074 15.2867 126.54 14.0033 126.54 12.37C126.54 10.69 126.074 9.38333 125.14 8.45C124.254 7.51666 123.11 7.05 121.71 7.05C120.31 7.05 119.167 7.51666 118.28 8.45C117.44 9.38333 117.02 10.69 117.02 12.37C117.02 14.0033 117.44 15.2867 118.28 16.22ZM148.1 42.4C149.547 42.4 150.714 41.9567 151.6 41.07C152.487 40.1833 152.93 38.9 152.93 37.22C152.93 35.54 152.464 34.2333 151.53 33.3C150.644 32.3667 149.5 31.9 148.1 31.9C146.7 31.9 145.557 32.3667 144.67 33.3C143.83 34.2333 143.41 35.54 143.41 37.22C143.41 38.9 143.83 40.1833 144.67 41.07C145.557 41.9567 146.7 42.4 148.1 42.4Z" fill="url(#paint0_linear)"/>
<defs>
<linearGradient id="paint0_linear" x1="4.26131" y1="19.2327" x2="166.988" y2="19.2327" gradientUnits="userSpaceOnUse">
<stop stop-color="#1378BA"/>
<stop offset="1" stop-color="#2BB673"/>
</linearGradient>
</defs>
</svg>
