<svg width="172" height="49" viewBox="0 0 172 49" fill="none" xmlns="http://www.w3.org/2000/svg">
<path d="M31.46 27.63V21.19H19.28V7.82H12.21V21.19H0.0300001V27.63H12.21V41.49H19.28V27.63H31.46ZM53.9185 48.84C65.5385 48.84 73.2385 43.17 73.2385 34.98C73.2385 28.26 67.2185 24.41 62.2485 23.92C67.7785 23.01 72.4685 18.88 72.4685 13.42C72.4685 5.72 65.8185 0.609997 53.9185 0.609997C45.3085 0.609997 39.1485 3.76 35.2285 8.17L41.0385 15.73C44.3285 12.79 48.3885 11.25 52.6585 11.25C57.1385 11.25 60.4985 12.58 60.4985 15.52C60.4985 17.97 57.7685 19.16 52.9385 19.16C51.1885 19.16 47.5485 19.16 46.6385 19.09V29.8C47.3385 29.73 50.9085 29.73 52.9385 29.73C59.3085 29.73 61.2685 30.99 61.2685 33.65C61.2685 36.24 58.6085 38.2 53.4285 38.2C49.3685 38.2 44.0485 36.59 40.6885 33.3L34.5985 41.49C38.2385 45.69 44.9585 48.84 53.9185 48.84ZM97.2179 48.84C109.328 48.84 116.958 42.4 116.958 32.32C116.958 22.94 109.818 17.13 101.908 17.13C97.7779 17.13 94.1379 18.67 91.8979 20.84V11.81H113.738V1.31H79.8579V28.89L88.1879 30.92C90.7779 28.47 93.7179 27.42 97.4279 27.42C102.258 27.42 104.708 29.66 104.708 32.81C104.708 35.68 102.188 38.2 97.0779 38.2C92.5979 38.2 88.1879 36.59 84.9679 33.65L78.3879 42.05C82.7279 46.32 88.9579 48.84 97.2179 48.84ZM132.511 23.99C140.001 23.99 144.831 18.88 144.831 12.37C144.831 5.79 140.001 0.609997 132.511 0.609997C125.161 0.609997 120.401 5.79 120.401 12.37C120.401 18.88 125.161 23.99 132.511 23.99ZM133.911 48L163.801 1.31H157.711L127.891 48H133.911ZM158.901 48.84C166.321 48.84 171.151 43.73 171.151 37.22C171.151 30.64 166.321 25.46 158.901 25.46C151.551 25.46 146.791 30.64 146.791 37.22C146.791 43.73 151.551 48.84 158.901 48.84ZM132.511 17.55C129.851 17.55 127.821 15.73 127.821 12.37C127.821 8.87 129.851 7.05 132.511 7.05C135.241 7.05 137.341 8.87 137.341 12.37C137.341 15.73 135.241 17.55 132.511 17.55ZM158.901 42.4C156.171 42.4 154.211 40.65 154.211 37.22C154.211 33.72 156.171 31.9 158.901 31.9C161.631 31.9 163.731 33.72 163.731 37.22C163.731 40.65 161.631 42.4 158.901 42.4Z" fill="url(#paint0_linear)"/>
<defs>
<linearGradient id="paint0_linear" x1="4.68127" y1="19.2327" x2="178.322" y2="19.2327" gradientUnits="userSpaceOnUse">
<stop stop-color="#1378BA"/>
<stop offset="1" stop-color="#2BB673"/>
</linearGradient>
</defs>
</svg>
