<svg width="158" height="49" viewBox="0 0 158 49" fill="none" xmlns="http://www.w3.org/2000/svg">
<path d="M16.9 35.54H0.1V26.51H16.9V35.54ZM58.6763 48H22.0663V38.62C32.4263 31.1533 39.0063 26.1133 41.8063 23.5C44.653 20.8867 46.0763 18.4367 46.0763 16.15C46.0763 14.61 45.4463 13.42 44.1863 12.58C42.973 11.6933 41.4563 11.25 39.6363 11.25C34.9697 11.25 30.8163 12.9533 27.1763 16.36L20.5263 8.38C22.9063 5.76666 25.7763 3.83 29.1363 2.57C32.4963 1.26333 35.9263 0.609997 39.4263 0.609997C44.9797 0.609997 49.5063 2.03333 53.0063 4.88C56.553 7.72667 58.3263 11.4833 58.3263 16.15C58.3263 19.65 57.0197 23.0567 54.4063 26.37C51.793 29.6833 47.523 33.3933 41.5963 37.5H58.6763V48ZM83.1359 48.84C75.2025 48.84 68.9259 46.5767 64.3059 42.05L70.8859 33.65C74.1992 36.6833 78.2359 38.2 82.9959 38.2C85.4225 38.2 87.2892 37.6867 88.5959 36.66C89.9492 35.6333 90.6259 34.35 90.6259 32.81C90.6259 31.1767 89.9959 29.87 88.7359 28.89C87.4759 27.91 85.6792 27.42 83.3459 27.42C79.6592 27.42 76.5792 28.5867 74.1059 30.92L65.7759 28.89V1.31H99.6559V11.81H77.8159V20.84C80.3825 18.3667 83.7192 17.13 87.8259 17.13C91.9325 17.13 95.4559 18.53 98.3959 21.33C101.383 24.13 102.876 27.7933 102.876 32.32C102.876 37.36 101.103 41.3733 97.5559 44.36C94.0092 47.3467 89.2025 48.84 83.1359 48.84ZM118.429 23.99C114.836 23.99 111.919 22.8933 109.679 20.7C107.439 18.46 106.319 15.6833 106.319 12.37C106.319 9.01 107.439 6.21 109.679 3.97C111.919 1.73 114.836 0.609997 118.429 0.609997C122.116 0.609997 125.079 1.73 127.319 3.97C129.606 6.21 130.749 9.01 130.749 12.37C130.749 15.6833 129.606 18.46 127.319 20.7C125.079 22.8933 122.116 23.99 118.429 23.99ZM119.829 48H113.809L143.629 1.31H149.719L119.829 48ZM144.819 48.84C141.226 48.84 138.309 47.7433 136.069 45.55C133.829 43.31 132.709 40.5333 132.709 37.22C132.709 33.86 133.829 31.06 136.069 28.82C138.309 26.58 141.226 25.46 144.819 25.46C148.459 25.46 151.399 26.58 153.639 28.82C155.926 31.06 157.069 33.86 157.069 37.22C157.069 40.5333 155.926 43.31 153.639 45.55C151.399 47.7433 148.459 48.84 144.819 48.84ZM114.999 16.22C115.886 17.1067 117.029 17.55 118.429 17.55C119.829 17.55 120.972 17.1067 121.859 16.22C122.792 15.2867 123.259 14.0033 123.259 12.37C123.259 10.69 122.792 9.38333 121.859 8.45C120.972 7.51666 119.829 7.05 118.429 7.05C117.029 7.05 115.886 7.51666 114.999 8.45C114.159 9.38333 113.739 10.69 113.739 12.37C113.739 14.0033 114.159 15.2867 114.999 16.22ZM144.819 42.4C146.266 42.4 147.432 41.9567 148.319 41.07C149.206 40.1833 149.649 38.9 149.649 37.22C149.649 35.54 149.182 34.2333 148.249 33.3C147.362 32.3667 146.219 31.9 144.819 31.9C143.419 31.9 142.276 32.3667 141.389 33.3C140.549 34.2333 140.129 35.54 140.129 37.22C140.129 38.9 140.549 40.1833 141.389 41.07C142.276 41.9567 143.419 42.4 144.819 42.4Z" fill="url(#paint0_linear)"/>
<defs>
<linearGradient id="paint0_linear" x1="4.14677" y1="19.2327" x2="163.896" y2="19.2327" gradientUnits="userSpaceOnUse">
<stop stop-color="#1378BA"/>
<stop offset="1" stop-color="#2BB673"/>
</linearGradient>
</defs>
</svg>
