<svg width="142" height="49" viewBox="0 0 142 49" fill="none" xmlns="http://www.w3.org/2000/svg">
<path d="M16.9 35.54V26.51H0.1V35.54H16.9ZM46.0763 48V1.31H35.6463L19.3363 17.41L26.1963 24.62L34.0363 16.71V48H46.0763ZM71.9249 48L88.3749 9.64V1.31H51.7649V11.81H74.5149L58.6949 48H71.9249ZM103.185 23.99C110.675 23.99 115.505 18.88 115.505 12.37C115.505 5.79 110.675 0.609997 103.185 0.609997C95.8348 0.609997 91.0748 5.79 91.0748 12.37C91.0748 18.88 95.8348 23.99 103.185 23.99ZM104.585 48L134.475 1.31H128.385L98.5648 48H104.585ZM129.575 48.84C136.995 48.84 141.825 43.73 141.825 37.22C141.825 30.64 136.995 25.46 129.575 25.46C122.225 25.46 117.465 30.64 117.465 37.22C117.465 43.73 122.225 48.84 129.575 48.84ZM103.185 17.55C100.525 17.55 98.4948 15.73 98.4948 12.37C98.4948 8.87 100.525 7.05 103.185 7.05C105.915 7.05 108.015 8.87 108.015 12.37C108.015 15.73 105.915 17.55 103.185 17.55ZM129.575 42.4C126.845 42.4 124.885 40.65 124.885 37.22C124.885 33.72 126.845 31.9 129.575 31.9C132.305 31.9 134.405 33.72 134.405 37.22C134.405 40.65 132.305 42.4 129.575 42.4Z" fill="url(#paint0_linear)"/>
<defs>
<linearGradient id="paint0_linear" x1="3.57409" y1="19.2327" x2="148.44" y2="19.2327" gradientUnits="userSpaceOnUse">
<stop stop-color="#1378BA"/>
<stop offset="1" stop-color="#2BB673"/>
</linearGradient>
</defs>
</svg>
