<svg width="752" height="479" viewBox="0 0 752 479" fill="none" xmlns="http://www.w3.org/2000/svg">
<path d="M8 44.5L2 36.2728L2 52.7272L8 44.5Z" fill="#DDE3E7"/>
<path d="M21 44.5L14.25 36.2728L14.25 52.7272L21 44.5Z" fill="#DDE3E7"/>
<path d="M33 44.5L27 36.2728L27 52.7272L33 44.5Z" fill="#DDE3E7"/>
<path d="M744 44.5L750 36.2728L750 52.7272L744 44.5Z" fill="#DDE3E7"/>
<path d="M731 44.5L737.75 36.2728L737.75 52.7272L731 44.5Z" fill="#DDE3E7"/>
<path d="M719 44.5L725 36.2728L725 52.7272L719 44.5Z" fill="#DDE3E7"/>
<path d="M59 0H378V88H88.5L59 0Z" fill="#29B179"/>
<path d="M697 0H378V88H667.5L697 0Z" fill="#29B179"/>
<path d="M38 131.5L32 123.273L32 139.727L38 131.5Z" fill="#DDE3E7"/>
<path d="M51 131.5L44.25 123.273L44.25 139.727L51 131.5Z" fill="#DDE3E7"/>
<path d="M63 131.5L57 123.273L57 139.727L63 131.5Z" fill="#DDE3E7"/>
<path d="M714 131.5L720 123.273L720 139.727L714 131.5Z" fill="#DDE3E7"/>
<path d="M701 131.5L707.75 123.273L707.75 139.727L701 131.5Z" fill="#DDE3E7"/>
<path d="M689 131.5L695 123.273L695 139.727L689 131.5Z" fill="#DDE3E7"/>
<g opacity="0.9">
<path d="M88 87H407V175H117.5L88 87Z" fill="#29B179"/>
<path d="M668 87H349V175H638.5L668 87Z" fill="#29B179"/>
</g>
<path d="M68 219.5L62 211.273L62 227.727L68 219.5Z" fill="#DDE3E7"/>
<path d="M81 219.5L74.25 211.273L74.25 227.727L81 219.5Z" fill="#DDE3E7"/>
<path d="M93 219.5L87 211.273L87 227.727L93 219.5Z" fill="#DDE3E7"/>
<path d="M684 219.5L690 211.273L690 227.727L684 219.5Z" fill="#DDE3E7"/>
<path d="M671 219.5L677.75 211.273L677.75 227.727L671 219.5Z" fill="#DDE3E7"/>
<path d="M659 219.5L665 211.273L665 227.727L659 219.5Z" fill="#DDE3E7"/>
<g opacity="0.8">
<path d="M117 175H436V263H146.5L117 175Z" fill="#29B179"/>
<path d="M638 175H319V263H608.5L638 175Z" fill="#29B179"/>
</g>
<path d="M98 307.5L92 299.273L92 315.727L98 307.5Z" fill="#DDE3E7"/>
<path d="M111 307.5L104.25 299.273L104.25 315.727L111 307.5Z" fill="#DDE3E7"/>
<path d="M123 307.5L117 299.273L117 315.727L123 307.5Z" fill="#DDE3E7"/>
<path d="M654 307.5L660 299.273L660 315.727L654 307.5Z" fill="#DDE3E7"/>
<path d="M641 307.5L647.75 299.273L647.75 315.727L641 307.5Z" fill="#DDE3E7"/>
<path d="M629 307.5L635 299.273L635 315.727L629 307.5Z" fill="#DDE3E7"/>
<g opacity="0.68">
<path d="M147 263H466V351H176.5L147 263Z" fill="#29B179"/>
<path d="M608 263H289V351H578.5L608 263Z" fill="#29B179"/>
</g>
<path d="M128 395.5L122 387.273L122 403.727L128 395.5Z" fill="#DDE3E7"/>
<path d="M141 395.5L134.25 387.273L134.25 403.727L141 395.5Z" fill="#DDE3E7"/>
<path d="M153 395.5L147 387.273L147 403.727L153 395.5Z" fill="#DDE3E7"/>
<path d="M624 395.5L630 387.273L630 403.727L624 395.5Z" fill="#DDE3E7"/>
<path d="M611 395.5L617.75 387.273L617.75 403.727L611 395.5Z" fill="#DDE3E7"/>
<path d="M599 395.5L605 387.273L605 403.727L599 395.5Z" fill="#DDE3E7"/>
<g opacity="0.62">
<path d="M177 351H496V439H206.5L177 351Z" fill="#29B179"/>
<path d="M578 351H259V439H548.5L578 351Z" fill="#29B179"/>
</g>
<path opacity="0.62" d="M377 479L206 439L548 439L377 479Z" fill="#29B179"/>
</svg>
